{"glyphs":{"0":{"ha":714,"x_min":0,"x_max":0,"o":"m 311 -14 b 610 289 494 -14 574 88 l 678 671 b 438 994 714 879 613 994 b 139 686 279 994 178 906 b 75 319 139 685 75 319 b 311 -14 39 119 107 -14 z m 318 50 b 143 315 164 50 113 144 l 208 681 b 431 933 240 864 311 933 b 610 675 578 933 639 843 l 540 293 b 318 50 511 126 451 50 z "},"1":{"ha":458,"x_min":0,"x_max":0,"o":"m 351 0 l 363 65 l 207 65 l 368 985 l 314 985 b 156 842 282 886 244 844 l 144 786 b 278 838 196 788 246 807 l 142 65 l -11 65 l -22 0 z "},"2":{"ha":644,"x_min":0,"x_max":0,"o":"m 514 0 l 525 65 l 88 65 b 361 396 114 218 238 308 b 632 721 483 483 606 569 l 638 751 b 419 994 663 890 583 994 b 147 757 263 994 175 907 l 124 621 l 190 621 l 214 746 b 417 933 233 868 297 933 b 569 757 533 933 589 868 l 564 725 b 313 438 543 600 431 522 b 13 58 183 344 46 243 l 3 0 z "},"3":{"ha":661,"x_min":0,"x_max":0,"o":"m 276 -14 b 563 256 450 -14 529 68 l 565 269 b 457 510 588 394 556 482 b 633 724 561 536 613 617 l 635 732 b 413 994 667 904 576 994 b 131 719 250 994 164 914 b 122 675 131 719 122 676 l 190 675 l 196 708 b 410 933 225 876 286 933 b 567 736 525 933 593 876 l 564 722 b 365 539 543 617 481 539 l 281 539 l 271 478 l 356 478 b 496 279 474 478 518 401 l 494 263 b 281 50 467 113 413 50 b 122 304 124 50 93 144 l 128 342 l 60 342 b 54 310 60 340 54 310 b 276 -14 19 110 72 -14 z "},"4":{"ha":640,"x_min":0,"x_max":0,"o":"m 471 835 l 515 919 l 486 828 l 396 308 l 94 308 z m 581 249 l 592 308 l 458 308 l 576 983 l 514 983 l 22 301 l 13 249 l 385 249 l 342 0 l 404 0 l 447 249 z "},"5":{"ha":668,"x_min":0,"x_max":0,"o":"m 276 -14 b 563 236 433 -14 533 71 l 597 433 b 406 681 625 590 550 681 b 190 561 301 681 239 629 b 289 921 215 653 267 840 l 564 921 b 665 982 642 921 654 928 l 665 983 l 244 983 l 107 483 l 160 465 l 179 493 b 386 621 224 560 288 621 b 529 436 497 621 550 556 l 496 244 b 282 49 472 111 399 49 b 128 244 147 49 107 122 l 142 328 l 72 328 l 58 250 b 276 -14 31 93 89 -14 z "},"6":{"ha":690,"x_min":0,"x_max":0,"o":"m 597 272 l 606 318 b 385 597 635 492 536 597 b 168 471 276 597 207 547 l 206 681 b 428 933 238 864 306 933 b 599 682 574 933 628 843 l 597 674 l 665 674 l 668 682 b 432 994 704 888 600 994 b 139 686 274 994 178 906 b 75 322 139 685 75 322 b 306 -14 39 122 101 -14 b 597 272 483 -14 561 82 z m 313 50 b 140 317 158 50 110 146 l 150 372 b 361 536 175 472 250 536 b 538 321 496 536 557 447 l 529 276 b 313 50 501 121 444 50 z "},"7":{"ha":572,"x_min":0,"x_max":0,"o":"m 161 0 b 628 926 275 357 461 681 l 638 983 l 143 983 l 132 919 l 556 919 b 89 0 394 683 210 365 z "},"8":{"ha":665,"x_min":0,"x_max":0,"o":"m 274 -14 b 575 238 451 -14 542 57 l 583 285 b 472 511 601 397 556 481 b 640 699 560 532 622 599 l 650 747 b 426 994 679 907 589 994 b 147 764 283 994 176 933 l 140 717 b 236 517 125 622 160 547 b 49 307 135 494 69 414 l 42 263 b 274 -14 8 88 75 -14 z m 343 542 b 208 717 226 542 193 624 l 214 757 b 421 933 239 890 311 933 b 582 746 554 933 606 867 l 574 703 b 376 542 557 608 492 542 z m 281 50 b 110 258 131 50 83 119 l 118 306 b 329 485 133 410 210 485 l 357 485 b 515 289 489 485 535 403 l 507 239 b 281 50 479 99 410 50 z "},"9":{"ha":685,"x_min":0,"x_max":0,"o":"m 360 449 b 186 664 226 449 167 536 l 193 706 b 410 932 221 858 279 932 b 582 663 564 932 611 833 l 576 633 b 360 449 557 521 479 449 z m 290 -14 b 582 297 456 -14 543 78 l 647 658 b 415 994 682 857 618 994 b 125 708 240 994 158 897 l 118 665 b 338 390 90 492 186 390 b 556 517 447 390 517 440 l 517 303 b 294 47 483 119 421 47 b 124 301 149 47 94 140 l 128 321 l 58 321 l 54 301 b 290 -14 18 96 111 -14 z "}," ":{"ha":315,"x_min":0,"x_max":0,"o":""}," ":{"ha":315,"x_min":0,"x_max":0,"o":""},"A":{"ha":646,"x_min":0,"x_max":0,"o":"m 396 853 l 411 908 l 408 853 l 450 306 l 168 306 z m 472 0 l 539 0 l 457 983 l 390 983 l -28 0 l 42 0 l 142 242 l 454 242 z "},"B":{"ha":674,"x_min":0,"x_max":0,"o":"m 303 0 b 578 211 488 0 553 64 b 592 288 578 210 592 288 b 485 507 611 400 583 478 b 649 688 581 526 631 581 l 660 747 b 447 983 683 883 629 983 l 211 983 l 38 0 z m 379 538 l 199 538 l 267 925 l 436 925 b 593 754 571 925 610 856 l 583 700 b 379 538 563 583 506 536 z m 372 478 b 524 299 507 478 544 408 l 513 226 b 307 61 492 115 447 61 l 114 61 l 188 478 z "},"C":{"ha":694,"x_min":0,"x_max":0,"o":"m 310 -14 b 606 290 492 -14 569 88 l 615 344 l 544 344 l 536 293 b 317 50 506 125 449 50 b 143 315 164 50 114 144 l 208 683 b 435 933 242 865 313 933 b 607 686 578 933 636 843 l 593 603 l 663 603 l 676 685 b 440 994 711 875 619 994 b 140 688 279 994 179 906 l 74 317 b 310 -14 39 119 106 -14 z "},"D":{"ha":704,"x_min":0,"x_max":0,"o":"m 38 0 l 265 0 b 601 301 454 0 567 100 l 664 651 b 419 983 701 864 600 983 l 211 983 z m 408 924 b 596 661 557 924 626 833 l 535 314 b 258 61 506 142 415 61 l 115 61 l 267 924 z "},"E":{"ha":601,"x_min":0,"x_max":0,"o":"m 494 63 l 114 63 l 188 478 l 507 478 l 518 540 l 199 540 l 267 922 l 635 922 l 644 983 l 211 983 l 38 0 l 485 0 z "},"F":{"ha":567,"x_min":0,"x_max":0,"o":"m 507 443 l 518 506 l 193 506 l 267 922 l 615 922 l 626 983 l 211 983 l 38 0 l 103 0 l 182 443 z "},"G":{"ha":710,"x_min":0,"x_max":0,"o":"m 499 0 l 544 0 l 632 499 l 364 499 l 354 438 l 563 438 l 554 393 l 549 394 l 535 315 b 297 50 503 143 439 50 b 136 315 154 50 107 147 l 203 683 b 436 933 235 861 313 933 b 606 701 575 933 635 861 l 600 665 l 669 665 l 675 701 b 442 994 710 899 610 994 b 135 686 275 994 174 899 l 69 319 b 279 -14 33 115 97 -14 b 515 151 400 -14 472 44 z "},"H":{"ha":710,"x_min":0,"x_max":0,"o":"m 469 0 l 536 0 l 710 983 l 643 983 l 561 521 l 196 521 l 276 983 l 210 983 l 38 0 l 104 0 l 185 457 l 550 457 z "},"I":{"ha":442,"x_min":0,"x_max":0,"o":"m 328 0 l 339 63 l 196 63 l 347 922 l 490 922 l 501 983 l 150 983 l 140 922 l 282 922 l 131 63 l -11 63 l -22 0 z "},"J":{"ha":585,"x_min":0,"x_max":0,"o":"m 218 -14 b 460 229 361 -14 431 61 l 592 983 l 524 983 l 394 240 b 219 50 371 111 328 50 b 96 210 117 50 79 118 l 118 333 l 50 333 l 28 211 b 218 -14 4 75 69 -14 z "},"K":{"ha":668,"x_min":0,"x_max":0,"o":"m 372 535 l 496 0 l 569 0 l 418 631 l 718 983 l 642 983 l 185 449 l 178 438 l 188 476 l 276 983 l 211 983 l 38 0 l 104 0 l 167 358 l 367 589 z "},"L":{"ha":550,"x_min":0,"x_max":0,"o":"m 442 0 l 451 64 l 114 64 l 276 983 l 211 983 l 38 0 z "},"M":{"ha":821,"x_min":0,"x_max":0,"o":"m 224 696 l 250 904 l 261 818 l 392 353 l 417 353 l 711 817 l 754 904 l 706 696 l 583 0 l 647 0 l 819 983 l 750 983 l 429 472 l 419 453 l 417 472 l 276 983 l 211 983 l 38 0 l 101 0 z "},"N":{"ha":739,"x_min":0,"x_max":0,"o":"m 233 753 l 249 907 l 282 749 l 507 0 l 565 0 l 738 983 l 674 983 l 544 244 l 528 92 l 493 250 l 271 983 l 211 983 l 38 0 l 101 0 z "},"O":{"ha":714,"x_min":0,"x_max":0,"o":"m 311 -14 b 608 288 493 -14 572 89 l 679 678 b 440 994 713 879 615 994 b 139 686 279 994 179 906 l 74 318 b 311 -14 39 122 107 -14 z m 318 50 b 142 313 163 50 113 144 l 208 681 b 435 933 242 864 313 933 b 611 683 579 933 639 843 l 540 290 b 318 50 511 125 450 50 z "},"P":{"ha":657,"x_min":0,"x_max":0,"o":"m 422 924 b 582 722 560 924 601 840 l 557 583 b 336 382 535 454 471 382 l 171 382 l 267 924 z m 332 322 b 621 564 511 321 593 411 l 647 715 b 433 983 675 872 607 983 l 211 983 l 38 0 l 104 0 l 161 322 z "},"Q":{"ha":714,"x_min":0,"x_max":0,"o":"m 513 -132 l 443 11 b 610 289 535 53 583 144 l 678 675 b 442 994 714 885 615 994 b 139 686 279 994 178 906 b 75 319 139 685 75 319 b 310 -14 39 119 106 -14 b 375 -8 333 -14 354 -12 l 428 -132 z m 318 50 b 143 315 164 50 113 144 l 208 681 b 433 933 240 864 314 933 b 611 681 578 933 640 847 l 540 293 b 318 50 511 126 451 50 z "},"R":{"ha":674,"x_min":0,"x_max":0,"o":"m 438 924 b 592 738 571 924 614 854 l 578 668 b 357 490 556 546 489 490 l 190 490 l 267 924 z m 350 432 b 494 260 478 432 514 376 l 460 68 b 464 0 456 40 454 13 l 540 0 b 528 67 526 13 522 38 l 563 264 b 460 461 585 371 558 438 b 643 653 567 482 622 543 l 657 729 b 447 983 686 885 618 983 l 211 983 l 38 0 l 104 0 l 181 432 z "},"S":{"ha":640,"x_min":0,"x_max":0,"o":"m 283 -14 b 556 217 451 -14 531 74 l 560 239 b 378 526 585 401 479 467 b 208 763 282 582 188 636 l 213 783 b 397 936 229 885 301 936 b 569 746 538 936 590 857 l 558 679 l 625 679 l 638 749 b 400 994 660 886 583 994 b 146 789 271 994 168 921 l 143 768 b 319 486 115 610 219 544 b 493 244 417 429 513 375 l 490 222 b 283 49 472 119 417 49 b 107 263 149 49 82 121 l 121 339 l 53 339 l 39 267 b 283 -14 4 89 99 -14 z "},"T":{"ha":546,"x_min":0,"x_max":0,"o":"m 603 921 l 614 983 l 142 983 l 132 921 l 331 921 l 169 0 l 236 0 l 397 921 z "},"U":{"ha":690,"x_min":0,"x_max":0,"o":"m 290 -14 b 571 272 464 -14 538 83 l 697 983 l 629 983 l 506 283 b 297 51 478 126 422 51 b 150 299 164 51 121 135 l 271 983 l 203 983 l 83 304 b 290 -14 49 110 100 -14 z "},"V":{"ha":640,"x_min":0,"x_max":0,"o":"m 285 0 l 710 983 l 639 983 l 276 131 l 268 104 l 269 131 l 214 983 l 144 983 l 218 0 z "},"W":{"ha":950,"x_min":0,"x_max":0,"o":"m 540 825 l 560 899 l 553 825 l 593 0 l 654 0 l 1004 983 l 939 983 l 660 182 l 632 71 l 639 179 l 597 983 l 550 983 l 213 179 l 182 79 l 197 185 l 219 983 l 156 983 l 133 0 l 196 0 z "},"X":{"ha":613,"x_min":0,"x_max":0,"o":"m 308 440 l 324 476 l 329 440 l 450 0 l 521 0 l 368 524 l 667 983 l 590 983 l 354 604 l 340 574 l 336 606 l 236 983 l 167 983 l 296 529 l -47 0 l 31 0 z "},"Y":{"ha":606,"x_min":0,"x_max":0,"o":"m 263 0 l 326 354 l 676 983 l 604 983 l 338 492 l 300 404 l 296 490 l 208 983 l 139 983 l 257 351 l 194 0 z "},"Z":{"ha":585,"x_min":0,"x_max":0,"o":"m 464 0 l 475 65 l 69 65 l 617 924 l 628 983 l 183 983 l 174 921 l 544 921 l -8 58 l -19 0 z "},"Á":{"ha":646,"x_min":0,"x_max":0,"o":"m 396 853 l 411 908 l 408 853 l 450 306 l 168 306 z m 472 0 l 539 0 l 457 983 l 390 983 l -28 0 l 42 0 l 142 242 l 454 242 z m 411 1079 l 468 1079 l 661 1296 l 586 1296 z "},"Ă":{"ha":646,"x_min":0,"x_max":0,"o":"m 396 853 l 411 908 l 408 853 l 450 306 l 168 306 z m 472 0 l 539 0 l 457 983 l 390 983 l -28 0 l 42 0 l 142 242 l 454 242 z m 444 1075 b 646 1258 564 1075 624 1150 l 593 1258 b 449 1125 574 1178 529 1126 b 353 1258 364 1126 342 1178 l 299 1258 b 444 1075 283 1149 322 1075 z "},"Â":{"ha":646,"x_min":0,"x_max":0,"o":"m 396 853 l 411 908 l 408 853 l 450 306 l 168 306 z m 472 0 l 539 0 l 457 983 l 390 983 l -28 0 l 42 0 l 142 242 l 454 242 z m 533 1072 l 594 1072 l 497 1258 l 444 1258 l 282 1072 l 349 1072 l 465 1208 z "},"Ä":{"ha":646,"x_min":0,"x_max":0,"o":"m 396 853 l 411 908 l 408 853 l 450 306 l 168 306 z m 472 0 l 539 0 l 457 983 l 390 983 l -28 0 l 42 0 l 142 242 l 454 242 z m 349 1074 b 408 1129 382 1074 401 1088 b 368 1188 415 1168 400 1188 b 308 1131 335 1188 317 1171 b 349 1074 301 1089 318 1074 z m 524 1074 b 581 1129 554 1074 574 1088 b 542 1188 588 1168 574 1188 b 482 1131 507 1188 489 1171 b 524 1074 475 1089 490 1074 z "},"À":{"ha":646,"x_min":0,"x_max":0,"o":"m 396 853 l 411 908 l 408 853 l 450 306 l 168 306 z m 472 0 l 539 0 l 457 983 l 390 983 l -28 0 l 42 0 l 142 242 l 454 242 z m 414 1078 l 471 1078 l 382 1267 l 307 1267 z "},"Ā":{"ha":646,"x_min":0,"x_max":0,"o":"m 396 853 l 411 908 l 408 853 l 450 306 l 168 306 z m 472 0 l 539 0 l 457 983 l 390 983 l -28 0 l 42 0 l 142 242 l 454 242 z m 296 1099 l 585 1099 l 594 1154 l 306 1154 z "},"Ʌ":{"ha":646,"x_min":0,"x_max":0,"o":"m 396 853 l 411 906 l 408 853 l 472 0 l 539 0 l 457 983 l 390 983 l -28 0 l 42 0 z "},"Ą":{"ha":646,"x_min":0,"x_max":0,"o":"m 629 -139 l 565 -139 b 463 -203 543 -182 510 -203 b 389 -133 410 -203 383 -172 b 536 0 396 -90 438 -56 l 539 0 l 457 983 l 390 983 l -28 0 l 42 0 l 142 242 l 454 242 l 471 13 b 333 -128 390 -32 344 -75 b 454 -253 321 -196 364 -253 b 629 -139 539 -253 593 -215 z m 396 853 l 411 908 l 408 853 l 450 306 l 168 306 z "},"Å":{"ha":646,"x_min":0,"x_max":0,"o":"m 396 853 l 411 908 l 408 853 l 450 306 l 168 306 z m 472 0 l 539 0 l 457 983 l 390 983 l -28 0 l 42 0 l 142 242 l 454 242 z m 444 1081 b 578 1192 515 1081 565 1121 b 467 1322 590 1261 546 1322 b 332 1211 400 1322 344 1279 b 444 1081 319 1140 364 1081 z m 447 1131 b 385 1206 403 1131 378 1164 b 464 1272 393 1249 422 1272 b 525 1197 508 1272 532 1238 b 447 1131 517 1153 490 1131 z "},"Ǻ":{"ha":646,"x_min":0,"x_max":0,"o":"m 446 1244 l 503 1244 l 696 1461 l 621 1461 z m 428 983 b 365 1058 383 983 358 1017 b 444 1125 374 1101 403 1125 b 506 1050 489 1125 513 1090 b 428 983 497 1006 471 983 z m 396 853 l 411 908 l 408 853 l 450 306 l 168 306 z m 472 0 l 539 0 l 461 938 b 558 1044 513 949 549 986 b 447 1175 571 1114 526 1175 b 313 1064 381 1175 325 1132 b 374 943 303 1010 326 963 l -28 0 l 42 0 l 142 242 l 454 242 z "},"Ã":{"ha":646,"x_min":0,"x_max":0,"o":"m 396 853 l 411 908 l 408 853 l 450 306 l 168 306 z m 472 0 l 539 0 l 457 983 l 390 983 l -28 0 l 42 0 l 142 242 l 454 242 z m 246 1079 l 297 1079 b 358 1154 306 1131 325 1154 b 531 1076 418 1154 451 1076 b 644 1204 599 1076 632 1124 l 594 1204 b 532 1131 586 1149 565 1131 b 361 1207 478 1131 440 1207 b 246 1079 294 1207 261 1161 z "},"Æ":{"ha":918,"x_min":0,"x_max":0,"o":"m 446 813 l 485 917 l 471 815 l 443 303 l 183 303 z m 426 0 l 800 0 l 811 63 l 492 63 l 513 463 l 819 463 l 831 525 l 515 525 l 536 922 l 950 922 l 961 983 l 471 983 l -43 0 l 28 0 l 153 243 l 440 243 z "},"Ǽ":{"ha":918,"x_min":0,"x_max":0,"o":"m 446 813 l 485 917 l 471 815 l 443 303 l 183 303 z m 426 0 l 800 0 l 811 63 l 492 63 l 513 463 l 819 463 l 831 525 l 515 525 l 536 922 l 950 922 l 961 983 l 471 983 l -43 0 l 28 0 l 153 243 l 440 243 z m 497 1079 l 554 1079 l 747 1296 l 672 1296 z "},"Ć":{"ha":689,"x_min":0,"x_max":0,"o":"m 304 -14 b 600 290 486 -14 564 88 l 610 344 l 539 344 l 531 293 b 311 50 500 125 443 50 b 138 315 158 50 108 144 l 203 683 b 429 933 236 865 307 933 b 601 686 572 933 631 843 l 588 603 l 657 603 l 671 685 b 435 994 706 875 614 994 b 135 688 274 994 174 906 l 68 317 b 304 -14 33 119 100 -14 z m 451 1090 l 508 1090 l 701 1307 l 626 1307 z "},"Č":{"ha":689,"x_min":0,"x_max":0,"o":"m 304 -14 b 600 290 486 -14 564 88 l 610 344 l 539 344 l 531 293 b 311 50 500 125 443 50 b 138 315 158 50 108 144 l 203 683 b 429 933 236 865 307 933 b 601 686 572 933 631 843 l 588 603 l 657 603 l 671 685 b 435 994 706 875 614 994 b 135 688 274 994 174 906 l 68 317 b 304 -14 33 119 100 -14 z m 503 1088 l 668 1272 l 601 1272 l 486 1140 l 421 1272 l 357 1272 l 454 1088 z "},"Ç":{"ha":689,"x_min":0,"x_max":0,"o":"m 247 -294 b 406 -194 338 -294 394 -256 b 297 -83 418 -125 379 -86 l 310 -14 b 600 290 486 -14 564 88 l 610 344 l 539 344 l 531 293 b 311 50 500 125 443 50 b 138 315 158 50 108 144 l 203 683 b 429 933 236 865 307 933 b 601 686 572 933 631 843 l 588 603 l 657 603 l 671 685 b 435 994 706 875 614 994 b 135 688 274 994 174 906 l 68 317 b 256 -11 36 136 89 10 l 235 -128 l 265 -128 b 347 -190 332 -128 356 -146 b 251 -246 340 -226 307 -246 b 168 -178 197 -246 165 -225 l 107 -178 b 247 -294 106 -253 150 -294 z "},"Ĉ":{"ha":689,"x_min":0,"x_max":0,"o":"m 304 -14 b 600 290 486 -14 564 88 l 610 344 l 539 344 l 531 293 b 311 50 500 125 443 50 b 138 315 158 50 108 144 l 203 683 b 429 933 236 865 307 933 b 601 686 572 933 631 843 l 588 603 l 657 603 l 671 685 b 435 994 706 875 614 994 b 135 688 274 994 174 906 l 68 317 b 304 -14 33 119 100 -14 z m 574 1088 l 635 1088 l 538 1274 l 485 1274 l 322 1088 l 389 1088 l 506 1224 z "},"Ċ":{"ha":689,"x_min":0,"x_max":0,"o":"m 304 -14 b 600 290 486 -14 564 88 l 610 344 l 539 344 l 531 293 b 311 50 500 125 443 50 b 138 315 158 50 108 144 l 203 683 b 429 933 236 865 307 933 b 601 686 572 933 631 843 l 588 603 l 657 603 l 671 685 b 435 994 706 875 614 994 b 135 688 274 994 174 906 l 68 317 b 304 -14 33 119 100 -14 z m 481 1088 b 546 1149 517 1088 536 1104 b 500 1215 553 1194 536 1215 b 435 1151 463 1215 442 1197 b 481 1088 425 1106 443 1088 z "},"Ď":{"ha":704,"x_min":0,"x_max":0,"o":"m 38 0 l 265 0 b 601 301 454 0 567 100 l 664 651 b 419 983 701 864 600 983 l 211 983 z m 408 924 b 596 661 557 924 626 833 l 535 314 b 258 61 506 142 415 61 l 115 61 l 267 924 z m 485 1075 l 650 1260 l 583 1260 l 468 1128 l 403 1260 l 339 1260 l 436 1075 z "},"Đ":{"ha":714,"x_min":0,"x_max":0,"o":"m 275 0 b 611 301 464 0 576 100 l 674 651 b 429 983 711 864 601 983 l 221 983 l 139 519 l 38 519 l 26 458 l 128 458 l 47 0 z m 332 458 l 343 519 l 206 519 l 276 924 l 418 924 b 606 661 560 924 636 833 l 544 314 b 268 61 515 142 425 61 l 125 61 l 194 458 z "},"Ð":{"ha":714,"x_min":0,"x_max":0,"o":"m 275 0 b 611 301 464 0 576 100 l 674 651 b 429 983 711 864 601 983 l 221 983 l 139 519 l 38 519 l 26 458 l 128 458 l 47 0 z m 332 458 l 343 519 l 206 519 l 276 924 l 418 924 b 606 661 560 924 636 833 l 544 314 b 268 61 515 142 425 61 l 125 61 l 194 458 z "},"É":{"ha":601,"x_min":0,"x_max":0,"o":"m 494 63 l 114 63 l 188 478 l 507 478 l 518 540 l 199 540 l 267 922 l 635 922 l 644 983 l 211 983 l 38 0 l 485 0 z m 418 1079 l 475 1079 l 668 1296 l 593 1296 z "},"Ĕ":{"ha":601,"x_min":0,"x_max":0,"o":"m 494 63 l 114 63 l 188 478 l 507 478 l 518 540 l 199 540 l 267 922 l 635 922 l 644 983 l 211 983 l 38 0 l 485 0 z m 454 1075 b 656 1258 574 1075 633 1150 l 603 1258 b 458 1125 583 1178 539 1126 b 363 1258 374 1126 351 1178 l 308 1258 b 454 1075 293 1149 332 1075 z "},"Ě":{"ha":601,"x_min":0,"x_max":0,"o":"m 494 63 l 114 63 l 188 478 l 507 478 l 518 540 l 199 540 l 267 922 l 635 922 l 644 983 l 211 983 l 38 0 l 485 0 z m 469 1076 l 635 1261 l 568 1261 l 453 1129 l 388 1261 l 324 1261 l 421 1076 z "},"Ê":{"ha":601,"x_min":0,"x_max":0,"o":"m 494 63 l 114 63 l 188 478 l 507 478 l 518 540 l 199 540 l 267 922 l 635 922 l 644 983 l 211 983 l 38 0 l 485 0 z m 544 1078 l 606 1078 l 508 1264 l 456 1264 l 293 1078 l 360 1078 l 476 1214 z "},"Ë":{"ha":601,"x_min":0,"x_max":0,"o":"m 494 63 l 114 63 l 188 478 l 507 478 l 518 540 l 199 540 l 267 922 l 635 922 l 644 983 l 211 983 l 38 0 l 485 0 z m 363 1081 b 422 1136 396 1081 415 1094 b 382 1194 429 1175 414 1194 b 322 1138 349 1194 331 1178 b 363 1081 315 1096 332 1081 z m 538 1081 b 594 1136 568 1081 588 1094 b 556 1194 601 1175 588 1194 b 496 1138 521 1194 503 1178 b 538 1081 489 1096 504 1081 z "},"Ė":{"ha":601,"x_min":0,"x_max":0,"o":"m 494 63 l 114 63 l 188 478 l 507 478 l 518 540 l 199 540 l 267 922 l 635 922 l 644 983 l 211 983 l 38 0 l 485 0 z m 449 1076 b 514 1138 485 1076 504 1093 b 468 1204 521 1183 504 1204 b 403 1140 431 1204 410 1186 b 449 1076 393 1094 411 1076 z "},"È":{"ha":601,"x_min":0,"x_max":0,"o":"m 494 63 l 114 63 l 188 478 l 507 478 l 518 540 l 199 540 l 267 922 l 635 922 l 644 983 l 211 983 l 38 0 l 485 0 z m 429 1078 l 486 1078 l 397 1267 l 322 1267 z "},"Ē":{"ha":601,"x_min":0,"x_max":0,"o":"m 494 63 l 114 63 l 188 478 l 507 478 l 518 540 l 199 540 l 267 922 l 635 922 l 644 983 l 211 983 l 38 0 l 485 0 z m 313 1104 l 601 1104 l 611 1160 l 322 1160 z "},"Ę":{"ha":601,"x_min":0,"x_max":0,"o":"m 578 -139 l 514 -139 b 411 -203 492 -182 458 -203 b 338 -133 358 -203 332 -172 b 485 0 344 -90 386 -56 l 494 63 l 114 63 l 188 478 l 507 478 l 518 540 l 199 540 l 267 922 l 635 922 l 644 983 l 211 983 l 38 0 l 397 0 b 282 -128 331 -40 292 -81 b 403 -253 269 -196 313 -253 b 578 -139 488 -253 542 -215 z "},"Ğ":{"ha":710,"x_min":0,"x_max":0,"o":"m 499 0 l 544 0 l 632 499 l 364 499 l 354 438 l 563 438 l 554 393 l 549 394 l 535 315 b 297 50 503 143 439 50 b 136 315 154 50 107 147 l 203 683 b 436 933 235 861 313 933 b 606 701 575 933 635 861 l 600 665 l 669 665 l 675 701 b 442 994 710 899 610 994 b 135 686 275 994 174 899 l 69 319 b 279 -14 33 115 97 -14 b 515 151 400 -14 472 44 z m 489 1086 b 690 1269 608 1086 668 1161 l 638 1269 b 493 1136 618 1189 574 1138 b 397 1269 408 1138 386 1189 l 343 1269 b 489 1086 328 1160 367 1086 z "},"Ĝ":{"ha":710,"x_min":0,"x_max":0,"o":"m 499 0 l 544 0 l 632 499 l 364 499 l 354 438 l 563 438 l 554 393 l 549 394 l 535 315 b 297 50 503 143 439 50 b 136 315 154 50 107 147 l 203 683 b 436 933 235 861 313 933 b 606 701 575 933 635 861 l 600 665 l 669 665 l 675 701 b 442 994 710 899 610 994 b 135 686 275 994 174 899 l 69 319 b 279 -14 33 115 97 -14 b 515 151 400 -14 472 44 z m 582 1089 l 643 1089 l 546 1275 l 493 1275 l 331 1089 l 397 1089 l 514 1225 z "},"Ģ":{"ha":710,"x_min":0,"x_max":0,"o":"m 499 0 l 544 0 l 632 499 l 364 499 l 354 438 l 563 438 l 554 393 l 549 394 l 535 315 b 297 50 503 143 439 50 b 136 315 154 50 107 147 l 203 683 b 436 933 235 861 313 933 b 606 701 575 933 635 861 l 600 665 l 669 665 l 675 701 b 442 994 710 899 610 994 b 135 686 275 994 174 899 l 69 319 b 279 -14 33 115 97 -14 b 515 151 400 -14 472 44 z m 190 -329 b 315 -171 257 -303 303 -244 b 276 -89 326 -112 313 -89 b 214 -147 243 -89 221 -107 b 247 -199 207 -189 222 -199 b 264 -194 253 -199 258 -197 b 185 -293 251 -242 222 -275 z "},"Ġ":{"ha":710,"x_min":0,"x_max":0,"o":"m 499 0 l 544 0 l 632 499 l 364 499 l 354 438 l 563 438 l 554 393 l 549 394 l 535 315 b 297 50 503 143 439 50 b 136 315 154 50 107 147 l 203 683 b 436 933 235 861 313 933 b 606 701 575 933 635 861 l 600 665 l 669 665 l 675 701 b 442 994 710 899 610 994 b 135 686 275 994 174 899 l 69 319 b 279 -14 33 115 97 -14 b 515 151 400 -14 472 44 z m 485 1088 b 550 1149 521 1088 540 1104 b 504 1215 557 1194 540 1215 b 439 1151 467 1215 446 1197 b 485 1088 429 1106 447 1088 z "},"Ħ":{"ha":726,"x_min":0,"x_max":0,"o":"m 568 508 l 201 508 l 238 715 l 604 715 z m 478 0 l 544 0 l 669 715 l 768 715 l 779 774 l 681 774 l 717 983 l 651 983 l 614 774 l 249 774 l 285 983 l 218 983 l 182 774 l 83 774 l 74 715 l 171 715 l 46 0 l 113 0 l 192 449 l 557 449 z "},"Ĥ":{"ha":710,"x_min":0,"x_max":0,"o":"m 469 0 l 536 0 l 710 983 l 643 983 l 561 521 l 196 521 l 276 983 l 210 983 l 38 0 l 104 0 l 185 457 l 550 457 z m 568 1067 l 629 1067 l 532 1253 l 479 1253 l 317 1067 l 383 1067 l 500 1203 z "},"Í":{"ha":442,"x_min":0,"x_max":0,"o":"m 328 0 l 339 63 l 196 63 l 347 922 l 490 922 l 501 983 l 150 983 l 140 922 l 282 922 l 131 63 l -11 63 l -22 0 z m 310 1079 l 367 1079 l 560 1296 l 485 1296 z "},"Ĭ":{"ha":442,"x_min":0,"x_max":0,"o":"m 328 0 l 339 63 l 196 63 l 347 922 l 490 922 l 501 983 l 150 983 l 140 922 l 282 922 l 131 63 l -11 63 l -22 0 z m 347 1075 b 549 1258 467 1075 526 1150 l 496 1258 b 351 1125 476 1178 432 1126 b 256 1258 267 1126 244 1178 l 201 1258 b 347 1075 186 1149 225 1075 z "},"Î":{"ha":442,"x_min":0,"x_max":0,"o":"m 328 0 l 339 63 l 196 63 l 347 922 l 490 922 l 501 983 l 150 983 l 140 922 l 282 922 l 131 63 l -11 63 l -22 0 z m 439 1078 l 500 1078 l 403 1264 l 350 1264 l 188 1078 l 254 1078 l 371 1214 z "},"Ï":{"ha":442,"x_min":0,"x_max":0,"o":"m 328 0 l 339 63 l 196 63 l 347 922 l 490 922 l 501 983 l 150 983 l 140 922 l 282 922 l 131 63 l -11 63 l -22 0 z m 256 1081 b 315 1136 289 1081 308 1094 b 275 1194 322 1175 307 1194 b 215 1138 242 1194 224 1178 b 256 1081 208 1096 225 1081 z m 431 1081 b 488 1136 461 1081 481 1094 b 449 1194 494 1175 481 1194 b 389 1138 414 1194 396 1178 b 431 1081 382 1096 397 1081 z "},"İ":{"ha":442,"x_min":0,"x_max":0,"o":"m 328 0 l 339 63 l 196 63 l 347 922 l 490 922 l 501 983 l 150 983 l 140 922 l 282 922 l 131 63 l -11 63 l -22 0 z m 343 1076 b 408 1138 379 1076 399 1093 b 363 1204 415 1183 399 1204 b 297 1140 325 1204 304 1186 b 343 1076 288 1094 306 1076 z "},"Ì":{"ha":442,"x_min":0,"x_max":0,"o":"m 328 0 l 339 63 l 196 63 l 347 922 l 490 922 l 501 983 l 150 983 l 140 922 l 282 922 l 131 63 l -11 63 l -22 0 z m 318 1078 l 375 1078 l 286 1267 l 211 1267 z "},"Ī":{"ha":442,"x_min":0,"x_max":0,"o":"m 328 0 l 339 63 l 196 63 l 347 922 l 490 922 l 501 983 l 150 983 l 140 922 l 282 922 l 131 63 l -11 63 l -22 0 z m 204 1103 l 493 1103 l 503 1158 l 214 1158 z "},"Į":{"ha":442,"x_min":0,"x_max":0,"o":"m 421 -139 l 357 -139 b 254 -203 335 -182 301 -203 b 181 -133 201 -203 175 -172 b 328 0 188 -90 229 -56 l 339 63 l 196 63 l 347 922 l 490 922 l 501 983 l 150 983 l 140 922 l 282 922 l 131 63 l -11 63 l -22 0 l 240 0 b 125 -128 174 -40 135 -81 b 246 -253 113 -196 156 -253 b 421 -139 331 -253 385 -215 z "},"Ĩ":{"ha":442,"x_min":0,"x_max":0,"o":"m 328 0 l 339 63 l 196 63 l 347 922 l 490 922 l 501 983 l 150 983 l 140 922 l 282 922 l 131 63 l -11 63 l -22 0 z m 153 1081 l 204 1081 b 265 1156 213 1132 232 1156 b 438 1078 325 1156 358 1078 b 551 1206 506 1078 539 1125 l 501 1206 b 439 1132 493 1150 472 1132 b 268 1208 385 1132 347 1208 b 153 1081 201 1208 168 1163 z "},"Ĵ":{"ha":585,"x_min":0,"x_max":0,"o":"m 218 -14 b 460 229 361 -14 431 61 l 592 983 l 524 983 l 394 240 b 219 50 371 111 328 50 b 96 210 117 50 79 118 l 118 333 l 50 333 l 28 211 b 218 -14 4 75 69 -14 z m 671 1078 l 732 1078 l 635 1264 l 582 1264 l 419 1078 l 486 1078 l 603 1214 z "},"Ķ":{"ha":668,"x_min":0,"x_max":0,"o":"m 372 535 l 496 0 l 569 0 l 418 631 l 718 983 l 642 983 l 185 449 l 178 438 l 188 476 l 276 983 l 211 983 l 38 0 l 104 0 l 167 358 l 367 589 z m 193 -307 b 318 -149 260 -281 306 -222 b 279 -67 329 -90 315 -67 b 217 -125 246 -67 224 -85 b 250 -176 210 -167 225 -176 b 267 -172 256 -176 261 -175 b 188 -271 254 -219 225 -253 z "},"Ĺ":{"ha":550,"x_min":0,"x_max":0,"o":"m 442 0 l 451 64 l 114 64 l 276 983 l 211 983 l 38 0 z m 229 1079 l 286 1079 l 479 1296 l 404 1296 z "},"Ľ":{"ha":550,"x_min":0,"x_max":0,"o":"m 442 0 l 451 64 l 114 64 l 276 983 l 211 983 l 38 0 z m 411 883 l 458 883 l 563 1082 l 499 1082 z "},"Ļ":{"ha":550,"x_min":0,"x_max":0,"o":"m 442 0 l 451 64 l 114 64 l 276 983 l 211 983 l 38 0 z m 143 -315 b 268 -157 210 -289 256 -231 b 229 -75 279 -99 265 -75 b 167 -133 196 -75 174 -93 b 200 -185 160 -175 175 -185 b 217 -181 206 -185 211 -183 b 138 -279 204 -228 175 -261 z "},"Ŀ":{"ha":550,"x_min":0,"x_max":0,"o":"m 442 0 l 451 64 l 114 64 l 278 983 l 211 983 l 38 0 z m 447 344 b 513 406 483 344 503 360 b 467 472 519 450 503 472 b 401 408 429 472 408 453 b 447 344 392 361 410 344 z "},"Ł":{"ha":561,"x_min":0,"x_max":0,"o":"m 451 0 l 463 64 l 125 64 l 201 493 l 364 539 l 358 594 l 211 553 l 288 983 l 221 983 l 142 533 l 29 501 l 36 446 l 132 472 l 49 0 z "},"Ń":{"ha":739,"x_min":0,"x_max":0,"o":"m 233 753 l 249 907 l 282 749 l 507 0 l 565 0 l 738 983 l 674 983 l 544 244 l 528 92 l 493 250 l 271 983 l 211 983 l 38 0 l 101 0 z m 457 1057 l 514 1057 l 707 1274 l 632 1274 z "},"Ň":{"ha":739,"x_min":0,"x_max":0,"o":"m 233 753 l 249 907 l 282 749 l 507 0 l 565 0 l 738 983 l 674 983 l 544 244 l 528 92 l 493 250 l 271 983 l 211 983 l 38 0 l 101 0 z m 510 1057 l 675 1242 l 608 1242 l 493 1110 l 428 1242 l 364 1242 l 461 1057 z "},"Ņ":{"ha":739,"x_min":0,"x_max":0,"o":"m 233 753 l 249 907 l 282 749 l 507 0 l 565 0 l 738 983 l 674 983 l 544 244 l 528 92 l 493 250 l 271 983 l 211 983 l 38 0 l 101 0 z m 194 -306 b 319 -147 261 -279 307 -221 b 281 -65 331 -89 317 -65 b 218 -124 247 -65 225 -83 b 251 -175 211 -165 226 -175 b 268 -171 257 -175 263 -174 b 189 -269 256 -218 226 -251 z "},"Ñ":{"ha":739,"x_min":0,"x_max":0,"o":"m 233 753 l 249 907 l 282 749 l 507 0 l 565 0 l 738 983 l 674 983 l 544 244 l 528 92 l 493 250 l 271 983 l 211 983 l 38 0 l 101 0 z m 304 1065 l 356 1065 b 417 1140 364 1117 383 1140 b 589 1063 476 1140 510 1063 b 703 1190 657 1063 690 1110 l 653 1190 b 590 1117 644 1135 624 1117 b 419 1193 536 1117 499 1193 b 304 1065 353 1193 319 1147 z "},"Ŋ":{"ha":739,"x_min":0,"x_max":0,"o":"m 354 -228 b 558 -39 489 -228 531 -186 l 738 983 l 674 983 l 544 243 l 528 93 l 497 235 l 271 983 l 211 983 l 38 0 l 101 0 l 233 754 l 249 906 l 276 768 l 503 13 l 496 -33 b 358 -167 475 -142 447 -167 l 326 -167 l 317 -228 z "},"Ó":{"ha":714,"x_min":0,"x_max":0,"o":"m 311 -14 b 608 288 493 -14 572 89 l 679 678 b 440 994 713 879 615 994 b 139 686 279 994 179 906 l 74 318 b 311 -14 39 122 107 -14 z m 318 50 b 142 313 163 50 113 144 l 208 681 b 435 933 242 864 313 933 b 611 683 579 933 639 843 l 540 290 b 318 50 511 125 450 50 z m 443 1094 l 500 1094 l 693 1311 l 618 1311 z "},"Ŏ":{"ha":714,"x_min":0,"x_max":0,"o":"m 311 -14 b 608 288 493 -14 572 89 l 679 678 b 440 994 713 879 615 994 b 139 686 279 994 179 906 l 74 318 b 311 -14 39 122 107 -14 z m 318 50 b 142 313 163 50 113 144 l 208 681 b 435 933 242 864 313 933 b 611 683 579 933 639 843 l 540 290 b 318 50 511 125 450 50 z m 483 1085 b 685 1268 603 1085 663 1160 l 632 1268 b 488 1135 613 1188 568 1136 b 392 1268 403 1136 381 1188 l 338 1268 b 483 1085 322 1158 361 1085 z "},"Ô":{"ha":714,"x_min":0,"x_max":0,"o":"m 311 -14 b 608 288 493 -14 572 89 l 679 678 b 440 994 713 879 615 994 b 139 686 279 994 179 906 l 74 318 b 311 -14 39 122 107 -14 z m 318 50 b 142 313 163 50 113 144 l 208 681 b 435 933 242 864 313 933 b 611 683 579 933 639 843 l 540 290 b 318 50 511 125 450 50 z m 576 1088 l 638 1088 l 540 1274 l 488 1274 l 325 1088 l 392 1088 l 508 1224 z "},"Ö":{"ha":714,"x_min":0,"x_max":0,"o":"m 311 -14 b 608 288 493 -14 572 89 l 679 678 b 440 994 713 879 615 994 b 139 686 279 994 179 906 l 74 318 b 311 -14 39 122 107 -14 z m 318 50 b 142 313 163 50 113 144 l 208 681 b 435 933 242 864 313 933 b 611 683 579 933 639 843 l 540 290 b 318 50 511 125 450 50 z m 393 1090 b 453 1146 426 1090 446 1104 b 413 1204 460 1185 444 1204 b 353 1147 379 1204 361 1188 b 393 1090 346 1106 363 1090 z m 568 1090 b 625 1146 599 1090 618 1104 b 586 1204 632 1185 618 1204 b 526 1147 551 1204 533 1188 b 568 1090 519 1106 535 1090 z "},"Ò":{"ha":714,"x_min":0,"x_max":0,"o":"m 311 -14 b 608 288 493 -14 572 89 l 679 678 b 440 994 713 879 615 994 b 139 686 279 994 179 906 l 74 318 b 311 -14 39 122 107 -14 z m 318 50 b 142 313 163 50 113 144 l 208 681 b 435 933 242 864 313 933 b 611 683 579 933 639 843 l 540 290 b 318 50 511 125 450 50 z m 457 1089 l 514 1089 l 425 1278 l 350 1278 z "},"Ő":{"ha":714,"x_min":0,"x_max":0,"o":"m 311 -14 b 608 288 493 -14 572 89 l 679 678 b 440 994 713 879 615 994 b 139 686 279 994 179 906 l 74 318 b 311 -14 39 122 107 -14 z m 318 50 b 142 313 163 50 113 144 l 208 681 b 435 933 242 864 313 933 b 611 683 579 933 639 843 l 540 290 b 318 50 511 125 450 50 z m 603 1276 l 529 1276 l 381 1089 l 433 1089 z m 758 1276 l 683 1276 l 522 1089 l 576 1089 z "},"Ō":{"ha":714,"x_min":0,"x_max":0,"o":"m 311 -14 b 608 288 493 -14 572 89 l 679 678 b 440 994 713 879 615 994 b 139 686 279 994 179 906 l 74 318 b 311 -14 39 122 107 -14 z m 318 50 b 142 313 163 50 113 144 l 208 681 b 435 933 242 864 313 933 b 611 683 579 933 639 843 l 540 290 b 318 50 511 125 450 50 z m 340 1108 l 629 1108 l 639 1164 l 350 1164 z "},"Ø":{"ha":718,"x_min":0,"x_max":0,"o":"m 142 315 l 207 681 b 436 933 240 864 315 933 b 542 911 478 933 514 926 l 172 106 b 142 315 135 150 125 221 z m 319 50 b 213 74 275 50 240 58 l 582 881 b 615 681 619 839 632 772 l 546 293 b 319 50 517 126 453 50 z m 313 -14 b 614 289 496 -14 578 88 l 682 675 b 611 943 704 801 675 892 l 688 1103 l 633 1103 l 569 969 b 443 994 533 986 492 994 b 139 686 282 994 178 906 b 75 319 139 685 75 319 b 140 36 53 193 72 93 l 64 -125 l 119 -125 l 183 11 b 313 -14 218 -6 261 -14 z "},"Ǿ":{"ha":718,"x_min":0,"x_max":0,"o":"m 142 315 l 207 681 b 436 933 240 864 315 933 b 542 911 478 933 514 926 l 172 106 b 142 315 135 150 125 221 z m 319 50 b 213 74 275 50 240 58 l 582 881 b 615 681 619 839 632 772 l 546 293 b 319 50 517 126 453 50 z m 313 -14 b 614 289 496 -14 578 88 l 682 675 b 611 943 704 801 675 892 l 688 1103 l 633 1103 l 569 969 b 443 994 533 986 492 994 b 139 686 282 994 178 906 b 75 319 139 685 75 319 b 140 36 53 193 72 93 l 64 -125 l 119 -125 l 183 11 b 313 -14 218 -6 261 -14 z m 454 1108 l 511 1108 l 704 1325 l 629 1325 z "},"Õ":{"ha":714,"x_min":0,"x_max":0,"o":"m 311 -14 b 608 288 493 -14 572 89 l 679 678 b 440 994 713 879 615 994 b 139 686 279 994 179 906 l 74 318 b 311 -14 39 122 107 -14 z m 318 50 b 142 313 163 50 113 144 l 208 681 b 435 933 242 864 313 933 b 611 683 579 933 639 843 l 540 290 b 318 50 511 125 450 50 z m 290 1092 l 342 1092 b 403 1167 350 1143 369 1167 b 575 1089 463 1167 496 1089 b 689 1217 643 1089 676 1136 l 639 1217 b 576 1143 631 1161 610 1143 b 406 1219 522 1143 485 1219 b 290 1092 339 1219 306 1174 z "},"Œ":{"ha":1051,"x_min":0,"x_max":0,"o":"m 318 50 b 143 315 164 50 113 144 l 208 681 b 431 933 240 864 311 933 b 610 675 578 933 639 843 l 540 293 b 318 50 511 126 451 50 z m 488 0 l 935 0 l 944 63 l 563 63 l 638 478 l 957 478 l 968 540 l 649 540 l 717 922 l 1085 922 l 1094 983 l 661 983 l 638 851 b 432 994 617 947 546 994 b 139 686 276 994 178 906 b 75 319 139 685 75 319 b 303 -14 39 119 106 -14 b 506 107 408 -14 467 28 z "},"Ŕ":{"ha":674,"x_min":0,"x_max":0,"o":"m 438 924 b 592 738 571 924 614 854 l 578 668 b 357 490 556 546 489 490 l 190 490 l 267 924 z m 350 432 b 494 260 478 432 514 376 l 460 68 b 464 0 456 40 454 13 l 540 0 b 528 67 526 13 522 38 l 563 264 b 460 461 585 371 558 438 b 643 653 567 482 622 543 l 657 729 b 447 983 686 885 618 983 l 211 983 l 38 0 l 104 0 l 181 432 z m 435 1078 l 492 1078 l 685 1294 l 610 1294 z "},"Ř":{"ha":674,"x_min":0,"x_max":0,"o":"m 438 924 b 592 738 571 924 614 854 l 578 668 b 357 490 556 546 489 490 l 190 490 l 267 924 z m 350 432 b 494 260 478 432 514 376 l 460 68 b 464 0 456 40 454 13 l 540 0 b 528 67 526 13 522 38 l 563 264 b 460 461 585 371 558 438 b 643 653 567 482 622 543 l 657 729 b 447 983 686 885 618 983 l 211 983 l 38 0 l 104 0 l 181 432 z m 486 1075 l 651 1260 l 585 1260 l 469 1128 l 404 1260 l 340 1260 l 438 1075 z "},"Ŗ":{"ha":674,"x_min":0,"x_max":0,"o":"m 438 924 b 592 738 571 924 614 854 l 578 668 b 357 490 556 546 489 490 l 190 490 l 267 924 z m 350 432 b 494 260 478 432 514 376 l 460 68 b 464 0 456 40 454 13 l 540 0 b 528 67 526 13 522 38 l 563 264 b 460 461 585 371 558 438 b 643 653 567 482 622 543 l 657 729 b 447 983 686 885 618 983 l 211 983 l 38 0 l 104 0 l 181 432 z m 183 -306 b 308 -147 250 -279 296 -221 b 269 -65 319 -89 306 -65 b 207 -124 236 -65 214 -83 b 240 -175 200 -165 215 -175 b 257 -171 246 -175 251 -174 b 178 -269 244 -218 215 -251 z "},"Ś":{"ha":640,"x_min":0,"x_max":0,"o":"m 283 -14 b 556 217 451 -14 531 74 l 560 239 b 378 526 585 401 479 467 b 208 763 282 582 188 636 l 213 783 b 397 936 229 885 301 936 b 569 746 538 936 590 857 l 558 679 l 625 679 l 638 749 b 400 994 660 886 583 994 b 146 789 271 994 168 921 l 143 768 b 319 486 115 610 219 544 b 493 244 417 429 513 375 l 490 222 b 283 49 472 119 417 49 b 107 263 149 49 82 121 l 121 339 l 53 339 l 39 267 b 283 -14 4 89 99 -14 z m 411 1090 l 468 1090 l 661 1307 l 586 1307 z "},"Š":{"ha":640,"x_min":0,"x_max":0,"o":"m 283 -14 b 556 217 451 -14 531 74 l 560 239 b 378 526 585 401 479 467 b 208 763 282 582 188 636 l 213 783 b 397 936 229 885 301 936 b 569 746 538 936 590 857 l 558 679 l 625 679 l 638 749 b 400 994 660 886 583 994 b 146 789 271 994 168 921 l 143 768 b 319 486 115 610 219 544 b 493 244 417 429 513 375 l 490 222 b 283 49 472 119 417 49 b 107 263 149 49 82 121 l 121 339 l 53 339 l 39 267 b 283 -14 4 89 99 -14 z m 467 1088 l 632 1272 l 565 1272 l 450 1140 l 385 1272 l 321 1272 l 418 1088 z "},"Ş":{"ha":640,"x_min":0,"x_max":0,"o":"m 217 -294 b 375 -194 307 -294 364 -256 b 267 -83 388 -125 349 -86 l 279 -14 l 283 -14 b 556 217 451 -14 531 74 l 560 239 b 378 526 585 401 479 467 b 208 763 282 582 188 636 l 213 783 b 397 936 229 885 301 936 b 569 746 538 936 590 857 l 558 679 l 625 679 l 638 749 b 400 994 660 886 583 994 b 146 789 271 994 168 921 l 143 768 b 319 486 115 610 219 544 b 493 244 417 429 513 375 l 490 222 b 283 49 472 119 417 49 b 107 263 149 49 82 121 l 121 339 l 53 339 l 39 267 b 225 -10 8 108 79 10 l 204 -128 l 235 -128 b 317 -190 301 -128 325 -146 b 221 -246 310 -226 276 -246 b 138 -178 167 -246 135 -225 l 76 -178 b 217 -294 75 -253 119 -294 z "},"Ŝ":{"ha":640,"x_min":0,"x_max":0,"o":"m 283 -14 b 556 217 451 -14 531 74 l 560 239 b 378 526 585 401 479 467 b 208 763 282 582 188 636 l 213 783 b 397 936 229 885 301 936 b 569 746 538 936 590 857 l 558 679 l 625 679 l 638 749 b 400 994 660 886 583 994 b 146 789 271 994 168 921 l 143 768 b 319 486 115 610 219 544 b 493 244 417 429 513 375 l 490 222 b 283 49 472 119 417 49 b 107 263 149 49 82 121 l 121 339 l 53 339 l 39 267 b 283 -14 4 89 99 -14 z m 542 1085 l 603 1085 l 506 1271 l 453 1271 l 290 1085 l 357 1085 l 474 1221 z "},"Ș":{"ha":640,"x_min":0,"x_max":0,"o":"m 283 -14 b 556 217 451 -14 531 74 l 560 239 b 378 526 585 401 479 467 b 208 763 282 582 188 636 l 213 783 b 397 936 229 885 301 936 b 569 746 538 936 590 857 l 558 679 l 625 679 l 638 749 b 400 994 660 886 583 994 b 146 789 271 994 168 921 l 143 768 b 319 486 115 610 219 544 b 493 244 417 429 513 375 l 490 222 b 283 49 472 119 417 49 b 107 263 149 49 82 121 l 121 339 l 53 339 l 39 267 b 283 -14 4 89 99 -14 z m 157 -331 b 282 -172 224 -304 269 -246 b 243 -90 293 -114 279 -90 b 181 -149 210 -90 188 -108 b 214 -200 174 -190 189 -200 b 231 -196 219 -200 225 -199 b 151 -294 218 -243 189 -276 z "},"Ŧ":{"ha":546,"x_min":0,"x_max":0,"o":"m 435 460 l 444 519 l 328 519 l 397 921 l 603 921 l 614 983 l 142 983 l 132 921 l 331 921 l 261 519 l 140 519 l 131 460 l 250 460 l 169 0 l 236 0 l 317 460 z "},"Ť":{"ha":546,"x_min":0,"x_max":0,"o":"m 603 921 l 614 983 l 142 983 l 132 921 l 331 921 l 169 0 l 236 0 l 397 921 z m 415 1076 l 581 1261 l 514 1261 l 399 1129 l 333 1261 l 269 1261 l 367 1076 z "},"Ţ":{"ha":546,"x_min":0,"x_max":0,"o":"m 603 921 l 614 983 l 142 983 l 132 921 l 331 921 l 169 0 l 236 0 l 397 921 z m 107 -315 b 232 -157 174 -289 219 -231 b 193 -75 243 -99 229 -75 b 131 -133 160 -75 138 -93 b 164 -185 124 -175 139 -185 b 181 -181 169 -185 175 -183 b 101 -279 168 -228 139 -261 z "},"Ú":{"ha":690,"x_min":0,"x_max":0,"o":"m 290 -14 b 571 272 464 -14 538 83 l 697 983 l 629 983 l 506 283 b 297 51 478 126 422 51 b 150 299 164 51 121 135 l 271 983 l 203 983 l 83 304 b 290 -14 49 110 100 -14 z m 432 1068 l 489 1068 l 682 1285 l 607 1285 z "},"Ŭ":{"ha":690,"x_min":0,"x_max":0,"o":"m 290 -14 b 571 272 464 -14 538 83 l 697 983 l 629 983 l 506 283 b 297 51 478 126 422 51 b 150 299 164 51 121 135 l 271 983 l 203 983 l 83 304 b 290 -14 49 110 100 -14 z m 467 1064 b 668 1247 586 1064 646 1139 l 615 1247 b 471 1114 596 1167 551 1115 b 375 1247 386 1115 364 1167 l 321 1247 b 467 1064 306 1138 344 1064 z "},"Û":{"ha":690,"x_min":0,"x_max":0,"o":"m 290 -14 b 571 272 464 -14 538 83 l 697 983 l 629 983 l 506 283 b 297 51 478 126 422 51 b 150 299 164 51 121 135 l 271 983 l 203 983 l 83 304 b 290 -14 49 110 100 -14 z m 560 1067 l 621 1067 l 524 1253 l 471 1253 l 308 1067 l 375 1067 l 492 1203 z "},"Ü":{"ha":690,"x_min":0,"x_max":0,"o":"m 290 -14 b 571 272 464 -14 538 83 l 697 983 l 629 983 l 506 283 b 297 51 478 126 422 51 b 150 299 164 51 121 135 l 271 983 l 203 983 l 83 304 b 290 -14 49 110 100 -14 z m 375 1069 b 435 1125 408 1069 428 1083 b 394 1183 442 1164 426 1183 b 335 1126 361 1183 343 1167 b 375 1069 328 1085 344 1069 z m 550 1069 b 607 1125 581 1069 600 1083 b 568 1183 614 1164 600 1183 b 508 1126 533 1183 515 1167 b 550 1069 501 1085 517 1069 z "},"Ù":{"ha":690,"x_min":0,"x_max":0,"o":"m 290 -14 b 571 272 464 -14 538 83 l 697 983 l 629 983 l 506 283 b 297 51 478 126 422 51 b 150 299 164 51 121 135 l 271 983 l 203 983 l 83 304 b 290 -14 49 110 100 -14 z m 439 1067 l 496 1067 l 407 1256 l 332 1256 z "},"Ű":{"ha":690,"x_min":0,"x_max":0,"o":"m 290 -14 b 571 272 464 -14 538 83 l 697 983 l 629 983 l 506 283 b 297 51 478 126 422 51 b 150 299 164 51 121 135 l 271 983 l 203 983 l 83 304 b 290 -14 49 110 100 -14 z m 585 1256 l 511 1256 l 363 1068 l 415 1068 z m 740 1256 l 665 1256 l 504 1068 l 558 1068 z "},"Ū":{"ha":690,"x_min":0,"x_max":0,"o":"m 290 -14 b 571 272 464 -14 538 83 l 697 983 l 629 983 l 506 283 b 297 51 478 126 422 51 b 150 299 164 51 121 135 l 271 983 l 203 983 l 83 304 b 290 -14 49 110 100 -14 z m 322 1088 l 611 1088 l 621 1143 l 332 1143 z "},"Ų":{"ha":690,"x_min":0,"x_max":0,"o":"m 308 -244 b 483 -131 393 -244 447 -207 l 419 -131 b 317 -194 397 -174 364 -194 b 243 -125 264 -194 238 -164 b 364 -7 250 -86 285 -54 b 571 272 486 18 543 113 l 697 983 l 629 983 l 506 283 b 297 51 478 126 422 51 b 150 299 164 51 121 135 l 271 983 l 203 983 l 83 304 b 269 -14 50 117 96 -4 b 188 -119 224 -47 196 -81 b 308 -244 175 -187 218 -244 z "},"Ů":{"ha":690,"x_min":0,"x_max":0,"o":"m 290 -14 b 571 272 464 -14 538 83 l 697 983 l 629 983 l 506 283 b 297 51 478 126 422 51 b 150 299 164 51 121 135 l 271 983 l 203 983 l 83 304 b 290 -14 49 110 100 -14 z m 469 1053 b 603 1164 540 1053 590 1093 b 492 1294 615 1233 571 1294 b 357 1183 425 1294 369 1251 b 469 1053 344 1113 389 1053 z m 472 1103 b 410 1178 428 1103 403 1136 b 489 1244 418 1221 447 1244 b 550 1169 533 1244 557 1210 b 472 1103 542 1125 515 1103 z "},"Ũ":{"ha":690,"x_min":0,"x_max":0,"o":"m 290 -14 b 571 272 464 -14 538 83 l 697 983 l 629 983 l 506 283 b 297 51 478 126 422 51 b 150 299 164 51 121 135 l 271 983 l 203 983 l 83 304 b 290 -14 49 110 100 -14 z m 272 1069 l 324 1069 b 385 1144 332 1121 351 1144 b 557 1067 444 1144 478 1067 b 671 1194 625 1067 658 1114 l 621 1194 b 558 1121 613 1139 592 1121 b 388 1197 504 1121 467 1197 b 272 1069 321 1197 288 1151 z "},"Ẃ":{"ha":950,"x_min":0,"x_max":0,"o":"m 540 825 l 560 899 l 553 825 l 593 0 l 654 0 l 1004 983 l 939 983 l 660 182 l 632 71 l 639 179 l 597 983 l 550 983 l 213 179 l 182 79 l 197 185 l 219 983 l 156 983 l 133 0 l 196 0 z m 561 1079 l 618 1079 l 811 1296 l 736 1296 z "},"Ŵ":{"ha":950,"x_min":0,"x_max":0,"o":"m 540 825 l 560 899 l 553 825 l 593 0 l 654 0 l 1004 983 l 939 983 l 660 182 l 632 71 l 639 179 l 597 983 l 550 983 l 213 179 l 182 79 l 197 185 l 219 983 l 156 983 l 133 0 l 196 0 z m 688 1078 l 749 1078 l 651 1264 l 599 1264 l 436 1078 l 503 1078 l 619 1214 z "},"Ẅ":{"ha":950,"x_min":0,"x_max":0,"o":"m 540 825 l 560 899 l 553 825 l 593 0 l 654 0 l 1004 983 l 939 983 l 660 182 l 632 71 l 639 179 l 597 983 l 550 983 l 213 179 l 182 79 l 197 185 l 219 983 l 156 983 l 133 0 l 196 0 z m 503 1081 b 563 1136 536 1081 556 1094 b 522 1194 569 1175 554 1194 b 463 1138 489 1194 471 1178 b 503 1081 456 1096 472 1081 z m 678 1081 b 735 1136 708 1081 728 1094 b 696 1194 742 1175 728 1194 b 636 1138 661 1194 643 1178 b 678 1081 629 1096 644 1081 z "},"Ẁ":{"ha":950,"x_min":0,"x_max":0,"o":"m 540 825 l 560 899 l 553 825 l 593 0 l 654 0 l 1004 983 l 939 983 l 660 182 l 632 71 l 639 179 l 597 983 l 550 983 l 213 179 l 182 79 l 197 185 l 219 983 l 156 983 l 133 0 l 196 0 z m 567 1078 l 624 1078 l 535 1267 l 460 1267 z "},"Ý":{"ha":606,"x_min":0,"x_max":0,"o":"m 263 0 l 326 354 l 676 983 l 604 983 l 338 492 l 300 404 l 296 490 l 208 983 l 139 983 l 257 351 l 194 0 z m 392 1072 l 449 1072 l 642 1289 l 567 1289 z "},"Ŷ":{"ha":606,"x_min":0,"x_max":0,"o":"m 263 0 l 326 354 l 676 983 l 604 983 l 338 492 l 300 404 l 296 490 l 208 983 l 139 983 l 257 351 l 194 0 z m 519 1071 l 581 1071 l 483 1257 l 431 1257 l 268 1071 l 335 1071 l 451 1207 z "},"Ÿ":{"ha":606,"x_min":0,"x_max":0,"o":"m 263 0 l 326 354 l 676 983 l 604 983 l 338 492 l 300 404 l 296 490 l 208 983 l 139 983 l 257 351 l 194 0 z m 335 1074 b 394 1129 368 1074 388 1088 b 354 1188 401 1168 386 1188 b 294 1131 321 1188 303 1171 b 335 1074 288 1089 304 1074 z m 510 1074 b 567 1129 540 1074 560 1088 b 528 1188 574 1168 560 1188 b 468 1131 493 1188 475 1171 b 510 1074 461 1089 476 1074 z "},"Ỳ":{"ha":606,"x_min":0,"x_max":0,"o":"m 263 0 l 326 354 l 676 983 l 604 983 l 338 492 l 300 404 l 296 490 l 208 983 l 139 983 l 257 351 l 194 0 z m 400 1071 l 457 1071 l 368 1260 l 293 1260 z "},"Ĳ":{"ha":842,"x_min":0,"x_max":0,"o":"m 424 0 l 486 0 b 718 233 640 0 689 65 l 851 983 l 783 983 l 650 235 b 483 63 628 110 592 63 l 435 63 z m 326 0 l 338 63 l 194 63 l 347 922 l 489 922 l 500 983 l 150 983 l 140 922 l 282 922 l 129 63 l -11 63 l -22 0 z "},"Ź":{"ha":585,"x_min":0,"x_max":0,"o":"m 464 0 l 475 65 l 69 65 l 617 924 l 628 983 l 183 983 l 174 921 l 544 921 l -8 58 l -19 0 z m 388 1079 l 444 1079 l 638 1296 l 563 1296 z "},"Ž":{"ha":585,"x_min":0,"x_max":0,"o":"m 464 0 l 475 65 l 69 65 l 617 924 l 628 983 l 183 983 l 174 921 l 544 921 l -8 58 l -19 0 z m 440 1076 l 606 1261 l 539 1261 l 424 1129 l 358 1261 l 294 1261 l 392 1076 z "},"Ż":{"ha":585,"x_min":0,"x_max":0,"o":"m 464 0 l 475 65 l 69 65 l 617 924 l 628 983 l 183 983 l 174 921 l 544 921 l -8 58 l -19 0 z m 418 1076 b 483 1138 454 1076 474 1093 b 438 1204 490 1183 474 1204 b 372 1140 400 1204 379 1186 b 418 1076 363 1094 381 1076 z "},"Þ":{"ha":640,"x_min":0,"x_max":0,"o":"m 301 263 l 150 263 l 236 756 l 379 756 b 539 554 517 756 558 672 l 522 464 b 301 263 500 335 436 261 z m 299 201 b 586 446 476 200 560 293 l 604 547 b 390 815 632 704 564 815 l 247 815 l 276 983 l 211 983 l 38 0 l 104 0 l 139 201 z "},"a":{"ha":654,"x_min":0,"x_max":0,"o":"m 231 46 b 97 201 125 46 81 107 l 99 206 b 188 340 110 271 143 311 b 353 408 229 368 269 382 b 519 501 442 438 494 453 l 478 296 b 231 46 447 143 351 46 z m 553 0 l 581 0 l 592 60 l 576 60 b 519 199 510 60 496 82 l 594 572 b 383 801 622 717 544 801 b 114 582 231 801 140 722 l 104 525 l 169 525 l 178 574 b 382 744 199 693 265 744 b 533 586 511 744 550 678 l 532 585 b 336 453 517 504 440 485 b 150 379 244 424 197 408 b 31 210 90 344 46 296 l 28 199 b 208 -12 4 71 67 -12 b 451 153 308 -12 399 38 b 553 0 432 43 456 0 z "},"b":{"ha":682,"x_min":0,"x_max":0,"o":"m 319 -12 b 579 258 469 -12 550 86 l 622 501 b 414 801 656 685 575 801 b 210 663 318 801 250 751 l 275 1039 l 213 1039 l 31 0 l 82 0 l 119 156 b 319 -12 129 54 192 -12 z m 313 50 b 144 294 161 50 119 150 l 188 533 b 396 743 210 667 285 743 b 556 504 522 743 582 656 l 513 260 b 313 50 489 129 429 50 z "},"c":{"ha":640,"x_min":0,"x_max":0,"o":"m 282 -12 b 542 221 438 -12 514 68 l 556 293 l 486 293 l 474 232 b 286 49 453 113 400 49 b 122 281 140 49 99 146 l 171 554 b 371 743 194 678 261 743 b 526 532 500 743 553 669 l 519 488 l 589 488 l 594 521 b 374 801 626 700 546 801 b 104 558 228 801 133 715 l 58 293 b 282 -12 28 115 82 -12 z "},"d":{"ha":676,"x_min":0,"x_max":0,"o":"m 281 47 b 124 285 157 47 96 131 l 165 521 b 369 742 189 653 253 742 b 535 496 515 742 560 643 l 492 257 b 281 47 469 124 392 47 z m 460 0 l 510 0 l 692 1039 l 629 1039 l 561 646 b 361 800 544 740 481 800 b 99 524 214 800 131 701 l 57 288 b 263 -12 24 101 97 -12 b 471 128 360 -12 429 38 z "},"e":{"ha":644,"x_min":0,"x_max":0,"o":"m 168 550 b 369 743 190 675 261 743 b 532 517 501 743 558 660 l 517 433 l 147 433 z m 546 229 l 553 265 l 485 265 l 481 239 b 285 49 460 113 406 49 b 121 286 136 49 97 146 l 138 376 l 572 376 l 596 511 b 371 801 628 688 546 801 b 104 557 228 801 133 713 l 58 293 b 279 -12 28 115 85 -12 b 546 229 439 -12 517 74 z "},"f":{"ha":376,"x_min":0,"x_max":0,"o":"m 413 728 l 422 789 l 265 789 l 275 844 b 419 999 299 976 322 999 l 460 999 l 471 1058 l 422 1058 b 211 847 290 1058 240 1014 l 201 789 l 89 789 l 79 728 l 190 728 l 63 0 l 126 0 l 254 728 z "},"g":{"ha":676,"x_min":0,"x_max":0,"o":"m 281 47 b 124 285 157 47 96 131 l 165 521 b 369 742 189 653 253 742 b 535 496 515 742 560 643 l 492 257 b 281 47 469 124 392 47 z m 235 -283 b 501 -47 388 -283 472 -203 l 649 789 l 599 789 l 561 633 b 361 800 550 735 486 800 b 100 524 213 800 129 701 l 57 288 b 263 -12 24 101 97 -12 b 469 128 358 -12 426 39 l 440 -36 b 238 -225 417 -161 354 -225 b 71 -93 122 -225 76 -175 l 0 -93 b 235 -283 7 -211 75 -283 z "},"h":{"ha":669,"x_min":0,"x_max":0,"o":"m 183 508 b 397 742 210 656 278 742 b 538 540 517 742 560 667 l 443 0 l 510 0 l 604 540 b 422 801 633 706 564 801 b 207 650 319 801 249 746 l 275 1039 l 213 1039 l 31 0 l 94 0 z "},"i":{"ha":264,"x_min":0,"x_max":0,"o":"m 222 886 b 279 944 256 886 271 900 b 240 1004 288 986 275 1004 b 182 946 206 1004 190 990 b 222 886 174 904 188 886 z m 97 0 l 235 789 l 169 789 l 31 0 z "},"j":{"ha":267,"x_min":0,"x_max":0,"o":"m 225 886 b 282 944 257 886 272 900 b 243 1004 289 986 276 1004 b 185 946 208 1004 193 990 b 225 886 176 904 190 886 z m -110 -226 b 92 -36 25 -226 65 -185 l 238 789 l 171 789 l 26 -32 b -106 -164 8 -139 -18 -164 l -137 -164 l -149 -226 z "},"k":{"ha":613,"x_min":0,"x_max":0,"o":"m 444 0 l 515 0 l 379 503 l 635 789 l 557 789 l 153 342 l 160 372 l 276 1039 l 213 1039 l 31 0 l 94 0 l 139 258 l 322 463 z "},"l":{"ha":265,"x_min":0,"x_max":0,"o":"m 32 0 l 97 0 l 279 1039 l 214 1039 z "},"m":{"ha":1001,"x_min":0,"x_max":0,"o":"m 186 514 b 381 744 210 650 269 744 b 499 550 493 744 518 665 l 403 0 l 468 0 l 564 547 b 749 742 583 656 638 742 b 869 544 858 742 892 669 l 774 0 l 840 0 l 938 550 b 774 801 965 713 904 801 b 568 650 675 801 607 744 b 406 804 563 744 514 804 b 204 649 310 804 243 746 l 221 789 l 168 789 l 31 0 l 96 0 z "},"n":{"ha":669,"x_min":0,"x_max":0,"o":"m 186 508 b 397 742 211 656 278 742 b 538 540 517 742 560 667 l 443 0 l 510 0 l 604 540 b 422 801 633 706 564 801 b 203 642 314 801 243 740 l 221 789 l 168 789 l 31 0 l 96 0 z "},"o":{"ha":660,"x_min":0,"x_max":0,"o":"m 281 -12 b 551 232 440 -12 525 75 l 601 511 b 372 801 633 686 549 801 b 106 561 228 801 133 715 l 58 293 b 281 -12 28 115 86 -12 z m 286 49 b 122 281 143 49 99 146 l 172 557 b 371 743 194 678 263 743 b 536 521 497 743 561 663 l 486 242 b 286 49 465 119 403 49 z "},"p":{"ha":682,"x_min":0,"x_max":0,"o":"m 311 50 b 144 294 160 50 118 150 l 186 533 b 394 743 210 667 285 743 b 556 504 521 743 582 656 l 511 260 b 311 50 488 129 429 50 z m 319 -12 b 579 258 468 -12 549 86 l 622 501 b 414 801 656 685 574 801 b 203 654 314 801 244 747 l 219 789 l 168 789 l -19 -274 l 44 -274 l 119 154 b 319 -12 129 51 192 -12 z "},"q":{"ha":676,"x_min":0,"x_max":0,"o":"m 461 -274 l 649 789 l 599 789 l 561 633 b 361 800 550 735 486 800 b 99 524 213 800 129 701 l 57 288 b 263 -12 22 101 97 -12 b 468 128 358 -12 426 39 l 397 -274 z m 281 47 b 124 285 157 47 96 131 l 165 521 b 369 742 189 653 253 742 b 535 496 515 742 560 643 l 492 257 b 281 47 469 124 392 47 z "},"r":{"ha":424,"x_min":0,"x_max":0,"o":"m 94 0 l 178 476 b 414 722 207 649 267 722 l 451 722 l 463 790 l 433 790 b 203 640 313 790 244 746 l 218 789 l 168 789 l 31 0 z "},"s":{"ha":604,"x_min":0,"x_max":0,"o":"m 258 -14 b 508 182 400 -14 485 49 l 510 185 b 339 429 535 329 435 381 b 182 619 250 472 163 513 l 182 622 b 351 746 196 699 254 746 b 500 589 463 746 517 686 l 493 543 l 558 543 l 564 582 b 356 804 588 718 506 804 b 118 626 225 804 139 740 l 118 622 b 285 383 92 482 190 432 b 443 188 375 338 464 297 l 443 183 b 265 47 428 103 376 47 b 99 217 146 47 79 111 l 110 276 l 40 276 l 31 224 b 258 -14 4 79 96 -14 z "},"t":{"ha":404,"x_min":0,"x_max":0,"o":"m 308 64 l 276 64 b 169 232 169 64 144 90 l 257 728 l 425 728 l 436 789 l 268 789 l 296 950 l 244 950 b 221 844 242 935 225 854 b 157 789 208 799 199 792 b 93 785 150 786 103 785 l 83 728 l 193 728 l 106 228 b 256 0 74 44 110 0 l 297 0 z "},"u":{"ha":651,"x_min":0,"x_max":0,"o":"m 433 0 l 486 0 l 624 789 l 557 789 l 468 281 b 265 47 442 132 379 47 b 136 250 154 47 114 122 l 231 789 l 164 789 l 69 256 b 244 -12 40 83 101 -12 b 451 146 346 -12 413 46 z "},"v":{"ha":621,"x_min":0,"x_max":0,"o":"m 272 0 l 651 789 l 582 789 l 269 128 l 251 78 l 251 129 l 176 789 l 110 789 l 208 0 z "},"w":{"ha":881,"x_min":0,"x_max":0,"o":"m 464 617 l 492 701 l 489 618 l 535 0 l 597 0 l 910 789 l 844 789 l 603 163 l 575 72 l 576 165 l 528 789 l 486 789 l 208 164 l 175 74 l 183 164 l 176 789 l 113 789 l 125 0 l 190 0 z "},"x":{"ha":578,"x_min":0,"x_max":0,"o":"m 274 343 l 289 376 l 293 343 l 408 0 l 481 0 l 333 418 l 600 789 l 526 789 l 318 492 l 304 461 l 299 492 l 197 789 l 126 789 l 260 422 l -39 0 l 36 0 z "},"y":{"ha":619,"x_min":0,"x_max":0,"o":"m 3 -218 b 254 -42 140 -218 183 -189 l 653 789 l 583 789 l 288 160 l 254 65 l 253 163 l 176 789 l 110 789 l 213 7 l 194 -33 b 11 -156 140 -139 110 -156 l -25 -156 l -35 -218 z "},"z":{"ha":547,"x_min":0,"x_max":0,"o":"m 433 0 l 444 63 l 67 63 l 563 733 l 574 789 l 139 789 l 128 729 l 486 729 l -15 53 l -24 0 z "},"á":{"ha":653,"x_min":0,"x_max":0,"o":"m 231 46 b 97 201 125 46 81 107 l 99 206 b 188 340 110 271 143 311 b 353 408 229 368 269 382 b 519 501 442 438 494 453 l 478 296 b 231 46 447 143 351 46 z m 553 0 l 581 0 l 592 60 l 576 60 b 519 199 510 60 496 82 l 594 572 b 383 801 622 717 544 801 b 114 582 231 801 140 722 l 104 525 l 169 525 l 178 574 b 382 744 199 693 265 744 b 533 586 511 744 550 678 l 532 585 b 336 453 517 504 440 485 b 150 379 244 424 197 408 b 31 210 90 344 46 296 l 28 199 b 208 -12 4 71 67 -12 b 451 153 308 -12 399 38 b 553 0 432 43 456 0 z m 382 896 l 439 896 l 632 1113 l 557 1113 z "},"ă":{"ha":653,"x_min":0,"x_max":0,"o":"m 231 46 b 97 201 125 46 81 107 l 99 206 b 188 340 110 271 143 311 b 353 408 229 368 269 382 b 519 501 442 438 494 453 l 478 296 b 231 46 447 143 351 46 z m 553 0 l 581 0 l 592 60 l 576 60 b 519 199 510 60 496 82 l 594 572 b 383 801 622 717 544 801 b 114 582 231 801 140 722 l 104 525 l 169 525 l 178 574 b 382 744 199 693 265 744 b 533 586 511 744 550 678 l 532 585 b 336 453 517 504 440 485 b 150 379 244 424 197 408 b 31 210 90 344 46 296 l 28 199 b 208 -12 4 71 67 -12 b 451 153 308 -12 399 38 b 553 0 432 43 456 0 z m 419 892 b 621 1075 539 892 599 967 l 568 1075 b 424 942 549 994 504 943 b 328 1075 339 943 317 994 l 274 1075 b 419 892 258 965 297 892 z "},"â":{"ha":653,"x_min":0,"x_max":0,"o":"m 231 46 b 97 201 125 46 81 107 l 99 206 b 188 340 110 271 143 311 b 353 408 229 368 269 382 b 519 501 442 438 494 453 l 478 296 b 231 46 447 143 351 46 z m 553 0 l 581 0 l 592 60 l 576 60 b 519 199 510 60 496 82 l 594 572 b 383 801 622 717 544 801 b 114 582 231 801 140 722 l 104 525 l 169 525 l 178 574 b 382 744 199 693 265 744 b 533 586 511 744 550 678 l 532 585 b 336 453 517 504 440 485 b 150 379 244 424 197 408 b 31 210 90 344 46 296 l 28 199 b 208 -12 4 71 67 -12 b 451 153 308 -12 399 38 b 553 0 432 43 456 0 z m 513 894 l 574 894 l 476 1081 l 424 1081 l 261 894 l 328 894 l 444 1031 z "},"ä":{"ha":653,"x_min":0,"x_max":0,"o":"m 231 46 b 97 201 125 46 81 107 l 99 206 b 188 340 110 271 143 311 b 353 408 229 368 269 382 b 519 501 442 438 494 453 l 478 296 b 231 46 447 143 351 46 z m 553 0 l 581 0 l 592 60 l 576 60 b 519 199 510 60 496 82 l 594 572 b 383 801 622 717 544 801 b 114 582 231 801 140 722 l 104 525 l 169 525 l 178 574 b 382 744 199 693 265 744 b 533 586 511 744 550 678 l 532 585 b 336 453 517 504 440 485 b 150 379 244 424 197 408 b 31 210 90 344 46 296 l 28 199 b 208 -12 4 71 67 -12 b 451 153 308 -12 399 38 b 553 0 432 43 456 0 z m 328 897 b 388 953 361 897 381 911 b 347 1011 394 992 379 1011 b 288 954 314 1011 296 994 b 328 897 281 913 297 897 z m 503 897 b 560 953 533 897 553 911 b 521 1011 567 992 553 1011 b 461 954 486 1011 468 994 b 503 897 454 913 469 897 z "},"à":{"ha":653,"x_min":0,"x_max":0,"o":"m 231 46 b 97 201 125 46 81 107 l 99 206 b 188 340 110 271 143 311 b 353 408 229 368 269 382 b 519 501 442 438 494 453 l 478 296 b 231 46 447 143 351 46 z m 553 0 l 581 0 l 592 60 l 576 60 b 519 199 510 60 496 82 l 594 572 b 383 801 622 717 544 801 b 114 582 231 801 140 722 l 104 525 l 169 525 l 178 574 b 382 744 199 693 265 744 b 533 586 511 744 550 678 l 532 585 b 336 453 517 504 440 485 b 150 379 244 424 197 408 b 31 210 90 344 46 296 l 28 199 b 208 -12 4 71 67 -12 b 451 153 308 -12 399 38 b 553 0 432 43 456 0 z m 393 896 l 450 896 l 361 1085 l 286 1085 z "},"ā":{"ha":653,"x_min":0,"x_max":0,"o":"m 231 46 b 97 201 125 46 81 107 l 99 206 b 188 340 110 271 143 311 b 353 408 229 368 269 382 b 519 501 442 438 494 453 l 478 296 b 231 46 447 143 351 46 z m 553 0 l 581 0 l 592 60 l 576 60 b 519 199 510 60 496 82 l 594 572 b 383 801 622 717 544 801 b 114 582 231 801 140 722 l 104 525 l 169 525 l 178 574 b 382 744 199 693 265 744 b 533 586 511 744 550 678 l 532 585 b 336 453 517 504 440 485 b 150 379 244 424 197 408 b 31 210 90 344 46 296 l 28 199 b 208 -12 4 71 67 -12 b 451 153 308 -12 399 38 b 553 0 432 43 456 0 z m 275 915 l 564 915 l 574 971 l 285 971 z "},"ą":{"ha":653,"x_min":0,"x_max":0,"o":"m 674 -139 l 610 -139 b 507 -203 588 -182 554 -203 b 433 -133 454 -203 428 -172 b 581 0 440 -90 482 -56 l 592 60 l 576 60 b 519 199 510 60 496 82 l 594 572 b 383 801 622 717 544 801 b 114 582 231 801 140 722 l 104 525 l 169 525 l 178 574 b 382 744 199 693 265 744 b 533 586 511 744 550 678 l 532 585 b 336 453 517 504 440 485 b 150 379 244 424 197 408 b 31 210 90 344 46 296 l 28 199 b 208 -12 4 71 67 -12 b 451 153 308 -12 399 38 b 503 6 436 65 447 21 b 378 -128 429 -37 389 -78 b 499 -253 365 -196 408 -253 b 674 -139 583 -253 638 -215 z m 231 46 b 97 201 125 46 81 107 l 99 206 b 188 340 110 271 143 311 b 353 408 229 368 269 382 b 519 501 442 438 494 453 l 478 296 b 231 46 447 143 351 46 z "},"å":{"ha":653,"x_min":0,"x_max":0,"o":"m 231 46 b 97 201 125 46 81 107 l 99 206 b 188 340 110 271 143 311 b 353 408 229 368 269 382 b 519 501 442 438 494 453 l 478 296 b 231 46 447 143 351 46 z m 553 0 l 581 0 l 592 60 l 576 60 b 519 199 510 60 496 82 l 594 572 b 383 801 622 717 544 801 b 114 582 231 801 140 722 l 104 525 l 169 525 l 178 574 b 382 744 199 693 265 744 b 533 586 511 744 550 678 l 532 585 b 336 453 517 504 440 485 b 150 379 244 424 197 408 b 31 210 90 344 46 296 l 28 199 b 208 -12 4 71 67 -12 b 451 153 308 -12 399 38 b 553 0 432 43 456 0 z m 424 896 b 557 1007 494 896 544 936 b 446 1138 569 1076 525 1138 b 311 1026 379 1138 324 1094 b 424 896 299 956 343 896 z m 426 946 b 364 1021 382 946 357 979 b 443 1088 372 1064 401 1088 b 504 1013 488 1088 511 1053 b 426 946 496 968 469 946 z "},"ǻ":{"ha":653,"x_min":0,"x_max":0,"o":"m 231 46 b 97 201 125 46 81 107 l 99 206 b 188 340 110 271 143 311 b 353 408 229 368 269 382 b 519 501 442 438 494 453 l 478 296 b 231 46 447 143 351 46 z m 553 0 l 581 0 l 592 60 l 576 60 b 519 199 510 60 496 82 l 594 572 b 383 801 622 717 544 801 b 114 582 231 801 140 722 l 104 525 l 169 525 l 178 574 b 382 744 199 693 265 744 b 533 586 511 744 550 678 l 532 585 b 336 453 517 504 440 485 b 150 379 244 424 197 408 b 31 210 90 344 46 296 l 28 199 b 208 -12 4 71 67 -12 b 451 153 308 -12 399 38 b 553 0 432 43 456 0 z m 421 874 b 554 985 492 874 542 914 b 443 1115 567 1054 522 1115 b 308 1004 376 1115 321 1072 b 421 874 296 933 340 874 z m 424 924 b 361 999 379 924 354 957 b 440 1065 369 1042 399 1065 b 501 990 485 1065 508 1031 b 424 924 493 946 467 924 z m 443 1186 l 500 1186 l 693 1403 l 618 1403 z "},"ã":{"ha":653,"x_min":0,"x_max":0,"o":"m 231 46 b 97 201 125 46 81 107 l 99 206 b 188 340 110 271 143 311 b 353 408 229 368 269 382 b 519 501 442 438 494 453 l 478 296 b 231 46 447 143 351 46 z m 553 0 l 581 0 l 592 60 l 576 60 b 519 199 510 60 496 82 l 594 572 b 383 801 622 717 544 801 b 114 582 231 801 140 722 l 104 525 l 169 525 l 178 574 b 382 744 199 693 265 744 b 533 586 511 744 550 678 l 532 585 b 336 453 517 504 440 485 b 150 379 244 424 197 408 b 31 210 90 344 46 296 l 28 199 b 208 -12 4 71 67 -12 b 451 153 308 -12 399 38 b 553 0 432 43 456 0 z m 225 899 l 276 899 b 338 974 285 950 304 974 b 510 896 397 974 431 896 b 624 1024 578 896 611 943 l 574 1024 b 511 950 565 968 544 950 b 340 1026 457 950 419 1026 b 225 899 274 1026 240 981 z "},"æ":{"ha":1064,"x_min":0,"x_max":0,"o":"m 588 550 b 793 743 611 675 685 743 b 951 517 925 743 978 660 l 936 433 l 567 433 z m 232 46 b 97 201 126 46 81 107 l 99 206 b 185 339 110 269 142 310 b 351 408 225 367 267 382 b 517 499 438 436 490 451 l 478 296 b 232 46 447 143 353 46 z m 965 229 l 972 265 l 904 265 l 900 239 b 704 49 879 113 825 49 b 540 286 557 49 517 146 l 557 376 l 992 376 l 1015 511 b 796 801 1047 688 968 801 b 582 685 701 801 629 758 b 383 801 560 757 492 801 b 114 582 233 801 140 722 l 104 526 l 169 526 l 178 574 b 382 744 199 693 268 744 b 533 586 510 744 550 678 l 532 585 b 336 453 517 504 440 485 b 139 374 239 422 188 406 b 31 210 85 338 44 290 l 28 199 b 210 -12 4 71 68 -12 b 472 175 317 -12 414 36 b 700 -12 476 61 549 -12 b 965 229 858 -12 938 74 z "},"ǽ":{"ha":1064,"x_min":0,"x_max":0,"o":"m 588 550 b 793 743 611 675 685 743 b 951 517 925 743 978 660 l 936 433 l 567 433 z m 232 46 b 97 201 126 46 81 107 l 99 206 b 185 339 110 269 142 310 b 351 408 225 367 267 382 b 517 499 438 436 490 451 l 478 296 b 232 46 447 143 353 46 z m 965 229 l 972 265 l 904 265 l 900 239 b 704 49 879 113 825 49 b 540 286 557 49 517 146 l 557 376 l 992 376 l 1015 511 b 796 801 1047 688 968 801 b 582 685 701 801 629 758 b 383 801 560 757 492 801 b 114 582 233 801 140 722 l 104 526 l 169 526 l 178 574 b 382 744 199 693 268 744 b 533 586 510 744 550 678 l 532 585 b 336 453 517 504 440 485 b 139 374 239 422 188 406 b 31 210 85 338 44 290 l 28 199 b 210 -12 4 71 68 -12 b 472 175 317 -12 414 36 b 700 -12 476 61 549 -12 b 965 229 858 -12 938 74 z m 569 853 l 626 853 l 819 1069 l 744 1069 z "},"ć":{"ha":640,"x_min":0,"x_max":0,"o":"m 282 -12 b 542 221 438 -12 514 68 l 556 293 l 486 293 l 474 232 b 286 49 453 113 400 49 b 122 281 140 49 99 146 l 171 554 b 371 743 194 678 261 743 b 526 532 500 743 553 669 l 519 488 l 589 488 l 594 521 b 374 801 626 700 546 801 b 104 558 228 801 133 715 l 58 293 b 282 -12 28 115 82 -12 z m 388 896 l 444 896 l 638 1113 l 563 1113 z "},"č":{"ha":640,"x_min":0,"x_max":0,"o":"m 282 -12 b 542 221 438 -12 514 68 l 556 293 l 486 293 l 474 232 b 286 49 453 113 400 49 b 122 281 140 49 99 146 l 171 554 b 371 743 194 678 261 743 b 526 532 500 743 553 669 l 519 488 l 589 488 l 594 521 b 374 801 626 700 546 801 b 104 558 228 801 133 715 l 58 293 b 282 -12 28 115 82 -12 z m 439 893 l 604 1078 l 538 1078 l 422 946 l 357 1078 l 293 1078 l 390 893 z "},"ç":{"ha":640,"x_min":0,"x_max":0,"o":"m 208 -293 b 367 -193 299 -293 356 -254 b 258 -82 379 -124 340 -85 l 271 -12 l 282 -12 b 542 221 438 -12 514 68 l 556 293 l 486 293 l 474 232 b 286 49 453 113 400 49 b 122 281 140 49 99 146 l 171 554 b 371 743 194 678 261 743 b 526 532 500 743 553 669 l 519 488 l 589 488 l 594 521 b 374 801 626 700 546 801 b 104 558 228 801 133 715 l 58 293 b 217 -7 32 136 71 18 l 196 -126 l 226 -126 b 308 -189 293 -126 317 -144 b 213 -244 301 -225 268 -244 b 129 -176 158 -244 126 -224 l 68 -176 b 208 -293 67 -251 111 -293 z "},"ĉ":{"ha":640,"x_min":0,"x_max":0,"o":"m 282 -12 b 542 221 438 -12 514 68 l 556 293 l 486 293 l 474 232 b 286 49 453 113 400 49 b 122 281 140 49 99 146 l 171 554 b 371 743 194 678 261 743 b 526 532 500 743 553 669 l 519 488 l 589 488 l 594 521 b 374 801 626 700 546 801 b 104 558 228 801 133 715 l 58 293 b 282 -12 28 115 82 -12 z m 515 894 l 576 894 l 479 1081 l 426 1081 l 264 894 l 331 894 l 447 1031 z "},"ċ":{"ha":640,"x_min":0,"x_max":0,"o":"m 282 -12 b 542 221 438 -12 514 68 l 556 293 l 486 293 l 474 232 b 286 49 453 113 400 49 b 122 281 140 49 99 146 l 171 554 b 371 743 194 678 261 743 b 526 532 500 743 553 669 l 519 488 l 589 488 l 594 521 b 374 801 626 700 546 801 b 104 558 228 801 133 715 l 58 293 b 282 -12 28 115 82 -12 z m 417 893 b 482 954 453 893 472 910 b 436 1021 489 1000 472 1021 b 371 957 399 1021 378 1003 b 417 893 361 911 379 893 z "},"ď":{"ha":676,"x_min":0,"x_max":0,"o":"m 281 47 b 124 285 157 47 96 131 l 165 521 b 369 742 189 653 253 742 b 535 496 515 742 560 643 l 492 257 b 281 47 469 124 392 47 z m 460 0 l 510 0 l 692 1039 l 629 1039 l 561 646 b 361 800 544 740 481 800 b 99 524 214 800 131 701 l 57 288 b 263 -12 24 101 97 -12 b 471 128 360 -12 429 38 z m 753 917 l 800 917 l 904 1115 l 840 1115 z "},"đ":{"ha":676,"x_min":0,"x_max":0,"o":"m 281 47 b 124 285 157 47 96 131 l 165 521 b 369 742 189 653 253 742 b 535 496 515 742 560 643 l 492 257 b 281 47 469 124 392 47 z m 460 0 l 510 0 l 665 892 l 750 892 l 758 938 l 674 938 l 692 1039 l 629 1039 l 611 938 l 482 938 l 474 892 l 603 892 l 561 646 b 361 800 544 740 481 800 b 99 524 214 800 131 701 l 57 288 b 263 -12 24 101 97 -12 b 471 128 360 -12 429 38 z "},"ð":{"ha":658,"x_min":0,"x_max":0,"o":"m 281 -12 b 551 232 439 -12 524 75 l 604 531 b 506 968 635 704 603 849 l 651 1068 l 572 1068 l 475 1001 b 401 1068 453 1025 429 1047 l 303 1068 b 422 965 349 1033 389 1000 l 267 860 l 347 860 l 453 932 b 557 660 522 849 556 761 b 365 794 538 744 474 794 b 103 553 224 794 131 707 l 57 293 b 281 -12 26 115 86 -12 z m 285 49 b 122 281 142 49 99 146 l 169 549 b 369 735 192 671 261 735 b 533 513 494 735 558 654 l 486 242 b 285 49 465 119 401 49 z "},"é":{"ha":646,"x_min":0,"x_max":0,"o":"m 168 550 b 369 743 190 675 261 743 b 532 517 501 743 558 660 l 517 433 l 147 433 z m 546 229 l 553 265 l 485 265 l 481 239 b 285 49 460 113 406 49 b 121 286 136 49 97 146 l 138 376 l 572 376 l 596 511 b 371 801 628 688 546 801 b 104 557 228 801 133 713 l 58 293 b 279 -12 28 115 85 -12 b 546 229 439 -12 517 74 z m 390 897 l 447 897 l 640 1114 l 565 1114 z "},"ĕ":{"ha":646,"x_min":0,"x_max":0,"o":"m 168 550 b 369 743 190 675 261 743 b 532 517 501 743 558 660 l 517 433 l 147 433 z m 546 229 l 553 265 l 485 265 l 481 239 b 285 49 460 113 406 49 b 121 286 136 49 97 146 l 138 376 l 572 376 l 596 511 b 371 801 628 688 546 801 b 104 557 228 801 133 713 l 58 293 b 279 -12 28 115 85 -12 b 546 229 439 -12 517 74 z m 429 893 b 631 1076 549 893 608 968 l 578 1076 b 433 943 558 996 514 944 b 338 1076 349 944 326 996 l 283 1076 b 429 893 268 967 307 893 z "},"ě":{"ha":646,"x_min":0,"x_max":0,"o":"m 168 550 b 369 743 190 675 261 743 b 532 517 501 743 558 660 l 517 433 l 147 433 z m 546 229 l 553 265 l 485 265 l 481 239 b 285 49 460 113 406 49 b 121 286 136 49 97 146 l 138 376 l 572 376 l 596 511 b 371 801 628 688 546 801 b 104 557 228 801 133 713 l 58 293 b 279 -12 28 115 85 -12 b 546 229 439 -12 517 74 z m 446 894 l 611 1079 l 544 1079 l 429 947 l 364 1079 l 300 1079 l 397 894 z "},"ê":{"ha":646,"x_min":0,"x_max":0,"o":"m 168 550 b 369 743 190 675 261 743 b 532 517 501 743 558 660 l 517 433 l 147 433 z m 546 229 l 553 265 l 485 265 l 481 239 b 285 49 460 113 406 49 b 121 286 136 49 97 146 l 138 376 l 572 376 l 596 511 b 371 801 628 688 546 801 b 104 557 228 801 133 713 l 58 293 b 279 -12 28 115 85 -12 b 546 229 439 -12 517 74 z m 518 896 l 579 896 l 482 1082 l 429 1082 l 267 896 l 333 896 l 450 1032 z "},"ë":{"ha":646,"x_min":0,"x_max":0,"o":"m 168 550 b 369 743 190 675 261 743 b 532 517 501 743 558 660 l 517 433 l 147 433 z m 546 229 l 553 265 l 485 265 l 481 239 b 285 49 460 113 406 49 b 121 286 136 49 97 146 l 138 376 l 572 376 l 596 511 b 371 801 628 688 546 801 b 104 557 228 801 133 713 l 58 293 b 279 -12 28 115 85 -12 b 546 229 439 -12 517 74 z m 332 899 b 392 954 365 899 385 913 b 351 1013 399 993 383 1013 b 292 956 318 1013 300 996 b 332 899 285 914 301 899 z m 507 899 b 564 954 538 899 557 913 b 525 1013 571 993 557 1013 b 465 956 490 1013 472 996 b 507 899 458 914 474 899 z "},"ė":{"ha":646,"x_min":0,"x_max":0,"o":"m 168 550 b 369 743 190 675 261 743 b 532 517 501 743 558 660 l 517 433 l 147 433 z m 546 229 l 553 265 l 485 265 l 481 239 b 285 49 460 113 406 49 b 121 286 136 49 97 146 l 138 376 l 572 376 l 596 511 b 371 801 628 688 546 801 b 104 557 228 801 133 713 l 58 293 b 279 -12 28 115 85 -12 b 546 229 439 -12 517 74 z m 422 894 b 488 956 458 894 478 911 b 442 1022 494 1001 478 1022 b 376 958 404 1022 383 1004 b 422 894 367 913 385 894 z "},"è":{"ha":646,"x_min":0,"x_max":0,"o":"m 168 550 b 369 743 190 675 261 743 b 532 517 501 743 558 660 l 517 433 l 147 433 z m 546 229 l 553 265 l 485 265 l 481 239 b 285 49 460 113 406 49 b 121 286 136 49 97 146 l 138 376 l 572 376 l 596 511 b 371 801 628 688 546 801 b 104 557 228 801 133 713 l 58 293 b 279 -12 28 115 85 -12 b 546 229 439 -12 517 74 z m 401 897 l 458 897 l 369 1086 l 294 1086 z "},"ē":{"ha":646,"x_min":0,"x_max":0,"o":"m 168 550 b 369 743 190 675 261 743 b 532 517 501 743 558 660 l 517 433 l 147 433 z m 546 229 l 553 265 l 485 265 l 481 239 b 285 49 460 113 406 49 b 121 286 136 49 97 146 l 138 376 l 572 376 l 596 511 b 371 801 628 688 546 801 b 104 557 228 801 133 713 l 58 293 b 279 -12 28 115 85 -12 b 546 229 439 -12 517 74 z m 283 917 l 572 917 l 582 972 l 293 972 z "},"ę":{"ha":646,"x_min":0,"x_max":0,"o":"m 511 -118 l 447 -118 b 344 -182 425 -161 392 -182 b 271 -112 292 -182 265 -151 b 394 7 278 -74 313 -40 b 546 229 479 40 525 117 l 553 265 l 485 265 l 481 239 b 285 49 460 113 406 49 b 121 286 136 49 97 146 l 138 376 l 572 376 l 596 511 b 371 801 628 688 546 801 b 104 557 228 801 133 713 l 58 293 b 279 -12 28 115 85 -12 l 282 -12 b 215 -107 244 -42 222 -72 b 336 -232 203 -175 246 -232 b 511 -118 421 -232 475 -194 z m 168 550 b 369 743 190 675 261 743 b 532 517 501 743 558 660 l 517 433 l 147 433 z "},"ğ":{"ha":676,"x_min":0,"x_max":0,"o":"m 281 47 b 124 285 157 47 96 131 l 165 521 b 369 742 189 653 253 742 b 535 496 515 742 560 643 l 492 257 b 281 47 469 124 392 47 z m 235 -283 b 501 -47 388 -283 472 -203 l 649 789 l 599 789 l 561 633 b 361 800 550 735 486 800 b 100 524 213 800 129 701 l 57 288 b 263 -12 24 101 97 -12 b 469 128 358 -12 426 39 l 440 -36 b 238 -225 417 -161 354 -225 b 71 -93 122 -225 76 -175 l 0 -93 b 235 -283 7 -211 75 -283 z m 429 889 b 631 1072 549 889 608 964 l 578 1072 b 433 939 558 992 514 940 b 338 1072 349 940 326 992 l 283 1072 b 429 889 268 963 307 889 z "},"ĝ":{"ha":676,"x_min":0,"x_max":0,"o":"m 281 47 b 124 285 157 47 96 131 l 165 521 b 369 742 189 653 253 742 b 535 496 515 742 560 643 l 492 257 b 281 47 469 124 392 47 z m 235 -283 b 501 -47 388 -283 472 -203 l 649 789 l 599 789 l 561 633 b 361 800 550 735 486 800 b 100 524 213 800 129 701 l 57 288 b 263 -12 24 101 97 -12 b 469 128 358 -12 426 39 l 440 -36 b 238 -225 417 -161 354 -225 b 71 -93 122 -225 76 -175 l 0 -93 b 235 -283 7 -211 75 -283 z m 522 892 l 583 892 l 486 1078 l 433 1078 l 271 892 l 338 892 l 454 1028 z "},"ģ":{"ha":676,"x_min":0,"x_max":0,"o":"m 281 47 b 124 285 157 47 96 131 l 165 521 b 369 742 189 653 253 742 b 535 496 515 742 560 643 l 492 257 b 281 47 469 124 392 47 z m 235 -283 b 501 -47 388 -283 472 -203 l 649 789 l 599 789 l 561 633 b 361 800 550 735 486 800 b 100 524 213 800 129 701 l 57 288 b 263 -12 24 101 97 -12 b 469 128 358 -12 426 39 l 440 -36 b 238 -225 417 -161 354 -225 b 71 -93 122 -225 76 -175 l 0 -93 b 235 -283 7 -211 75 -283 z m 411 894 b 474 953 444 894 467 913 b 440 1003 481 994 465 1003 b 422 999 433 1003 428 1001 b 503 1099 435 1046 464 1079 l 499 1135 b 372 976 431 1107 385 1050 b 411 894 361 918 375 894 z "},"ġ":{"ha":676,"x_min":0,"x_max":0,"o":"m 281 47 b 124 285 157 47 96 131 l 165 521 b 369 742 189 653 253 742 b 535 496 515 742 560 643 l 492 257 b 281 47 469 124 392 47 z m 235 -283 b 501 -47 388 -283 472 -203 l 649 789 l 599 789 l 561 633 b 361 800 550 735 486 800 b 100 524 213 800 129 701 l 57 288 b 263 -12 24 101 97 -12 b 469 128 358 -12 426 39 l 440 -36 b 238 -225 417 -161 354 -225 b 71 -93 122 -225 76 -175 l 0 -93 b 235 -283 7 -211 75 -283 z m 424 890 b 489 951 460 890 479 907 b 443 1018 496 997 479 1018 b 378 954 406 1018 385 1000 b 424 890 368 908 386 890 z "},"ß":{"ha":699,"x_min":0,"x_max":0,"o":"m 331 -4 b 607 232 500 -4 578 68 l 618 294 b 492 546 643 432 604 518 b 672 749 593 568 651 631 l 681 799 b 453 1047 707 954 617 1047 b 172 803 285 1047 200 963 l 31 0 l 96 0 l 238 797 b 446 988 260 926 325 988 b 617 799 575 988 638 919 l 608 750 b 388 578 588 628 507 578 l 353 578 l 342 517 l 381 517 b 550 293 521 517 576 440 l 540 238 b 331 60 515 103 444 60 b 250 65 294 60 263 63 l 239 3 b 331 -4 250 0 296 -4 z "},"ħ":{"ha":669,"x_min":0,"x_max":0,"o":"m 183 508 b 397 742 210 656 278 742 b 538 540 517 742 560 667 l 443 0 l 510 0 l 604 540 b 422 801 633 706 564 801 b 207 650 319 801 249 746 l 250 892 l 379 892 l 388 939 l 258 939 l 275 1039 l 213 1039 l 194 939 l 122 939 l 114 892 l 186 892 l 31 0 l 94 0 z "},"ĥ":{"ha":669,"x_min":0,"x_max":0,"o":"m 183 508 b 397 742 210 656 278 742 b 538 540 517 742 560 667 l 443 0 l 510 0 l 604 540 b 422 801 633 706 564 801 b 207 650 319 801 249 746 l 275 1039 l 213 1039 l 31 0 l 94 0 z m 358 1133 l 419 1133 l 322 1319 l 269 1319 l 107 1133 l 174 1133 l 290 1269 z "},"í":{"ha":264,"x_min":0,"x_max":0,"o":"m 31 0 l 97 0 l 235 789 l 169 789 z m 190 890 l 247 890 l 440 1107 l 365 1107 z "},"ĭ":{"ha":264,"x_min":0,"x_max":0,"o":"m 31 0 l 97 0 l 235 789 l 169 789 z m 222 879 b 424 1063 342 879 401 954 l 371 1063 b 226 929 351 982 307 931 b 131 1063 142 931 119 982 l 76 1063 b 222 879 61 953 100 879 z "},"î":{"ha":264,"x_min":0,"x_max":0,"o":"m 31 0 l 97 0 l 235 789 l 169 789 z m 314 882 l 375 882 l 278 1068 l 225 1068 l 63 882 l 129 882 l 246 1018 z "},"ï":{"ha":264,"x_min":0,"x_max":0,"o":"m 31 0 l 97 0 l 235 789 l 169 789 z m 129 885 b 189 940 163 885 182 899 b 149 999 196 979 181 999 b 89 942 115 999 97 982 b 129 885 82 900 99 885 z m 304 885 b 361 940 335 885 354 899 b 322 999 368 979 354 999 b 263 942 288 999 269 982 b 304 885 256 900 271 885 z "},"ì":{"ha":264,"x_min":0,"x_max":0,"o":"m 31 0 l 97 0 l 235 789 l 169 789 z m 193 883 l 250 883 l 161 1072 l 86 1072 z "},"ī":{"ha":264,"x_min":0,"x_max":0,"o":"m 31 0 l 97 0 l 235 789 l 169 789 z m 79 903 l 368 903 l 378 958 l 89 958 z "},"į":{"ha":264,"x_min":0,"x_max":0,"o":"m 222 886 b 279 944 256 886 271 900 b 240 1004 288 986 275 1004 b 182 946 206 1004 190 990 b 222 886 174 904 188 886 z m 190 -139 l 126 -139 b 24 -203 104 -182 71 -203 b -50 -133 -29 -203 -56 -172 b 97 0 -43 -90 -1 -56 l 235 789 l 169 789 l 33 14 b -106 -128 -49 -32 -94 -75 b 15 -253 -118 -196 -75 -253 b 190 -139 100 -253 154 -215 z "},"ĩ":{"ha":264,"x_min":0,"x_max":0,"o":"m 31 0 l 97 0 l 235 789 l 169 789 z m 31 886 l 82 886 b 143 961 90 938 110 961 b 315 883 203 961 236 883 b 429 1011 383 883 417 931 l 379 1011 b 317 938 371 956 350 938 b 146 1014 263 938 225 1014 b 31 886 79 1014 46 968 z "},"ı":{"ha":264,"x_min":0,"x_max":0,"o":"m 31 0 l 97 0 l 235 789 l 169 789 z "},"ĵ":{"ha":267,"x_min":0,"x_max":0,"o":"m -110 -226 b 92 -36 25 -226 65 -185 l 238 789 l 171 789 l 26 -32 b -106 -164 8 -139 -18 -164 l -137 -164 l -149 -226 z m 318 882 l 379 882 l 282 1068 l 229 1068 l 67 882 l 133 882 l 250 1018 z "},"ȷ":{"ha":267,"x_min":0,"x_max":0,"o":"m -110 -226 b 92 -36 25 -226 65 -185 l 238 789 l 171 789 l 26 -32 b -106 -164 8 -139 -18 -164 l -137 -164 l -149 -226 z "},"ķ":{"ha":613,"x_min":0,"x_max":0,"o":"m 444 0 l 515 0 l 379 503 l 635 789 l 557 789 l 153 342 l 160 372 l 276 1039 l 213 1039 l 31 0 l 94 0 l 139 258 l 322 463 z m 164 -307 b 289 -149 231 -281 276 -222 b 250 -67 300 -90 286 -67 b 188 -125 217 -67 194 -85 b 221 -176 181 -167 196 -176 b 238 -172 226 -176 232 -175 b 158 -271 225 -219 196 -253 z "},"ĸ":{"ha":613,"x_min":0,"x_max":0,"o":"m 444 0 l 515 0 l 379 503 l 635 789 l 557 789 l 153 342 l 160 372 l 233 789 l 169 789 l 31 0 l 94 0 l 139 258 l 322 463 z "},"ĺ":{"ha":265,"x_min":0,"x_max":0,"o":"m 32 0 l 97 0 l 279 1039 l 214 1039 z m 235 1135 l 292 1135 l 485 1351 l 410 1351 z "},"ľ":{"ha":265,"x_min":0,"x_max":0,"o":"m 32 0 l 97 0 l 279 1039 l 214 1039 z m 349 911 l 396 911 l 500 1110 l 436 1110 z "},"ļ":{"ha":265,"x_min":0,"x_max":0,"o":"m 32 0 l 97 0 l 279 1039 l 214 1039 z m -25 -319 b 100 -161 42 -293 88 -235 b 61 -79 111 -103 97 -79 b -1 -137 28 -79 6 -97 b 32 -189 -8 -179 7 -189 b 49 -185 38 -189 43 -187 b -31 -283 36 -232 7 -265 z "},"ŀ":{"ha":360,"x_min":0,"x_max":0,"o":"m 32 0 l 97 0 l 279 1039 l 214 1039 z m 296 311 b 361 372 332 311 351 328 b 315 439 368 418 351 439 b 250 375 278 439 257 421 b 296 311 240 329 258 311 z "},"ł":{"ha":282,"x_min":0,"x_max":0,"o":"m 107 0 l 183 438 l 294 474 l 289 517 l 192 485 l 289 1039 l 224 1039 l 122 463 l 14 426 l 19 383 l 114 414 l 42 0 z "},"ń":{"ha":669,"x_min":0,"x_max":0,"o":"m 186 508 b 397 742 211 656 278 742 b 538 540 517 742 560 667 l 443 0 l 510 0 l 604 540 b 422 801 633 706 564 801 b 203 642 314 801 243 740 l 221 789 l 168 789 l 31 0 l 96 0 z m 406 894 l 463 894 l 656 1111 l 581 1111 z "},"ň":{"ha":669,"x_min":0,"x_max":0,"o":"m 186 508 b 397 742 211 656 278 742 b 538 540 517 742 560 667 l 443 0 l 510 0 l 604 540 b 422 801 633 706 564 801 b 203 642 314 801 243 740 l 221 789 l 168 789 l 31 0 l 96 0 z m 457 892 l 622 1076 l 556 1076 l 440 944 l 375 1076 l 311 1076 l 408 892 z "},"ņ":{"ha":669,"x_min":0,"x_max":0,"o":"m 186 508 b 397 742 211 656 278 742 b 538 540 517 742 560 667 l 443 0 l 510 0 l 604 540 b 422 801 633 706 564 801 b 203 642 314 801 243 740 l 221 789 l 168 789 l 31 0 l 96 0 z m 176 -308 b 301 -150 243 -282 289 -224 b 263 -68 313 -92 299 -68 b 200 -126 229 -68 207 -86 b 233 -178 193 -168 208 -178 b 250 -174 239 -178 244 -176 b 171 -272 238 -221 208 -254 z "},"ñ":{"ha":669,"x_min":0,"x_max":0,"o":"m 186 508 b 397 742 211 656 278 742 b 538 540 517 742 560 667 l 443 0 l 510 0 l 604 540 b 422 801 633 706 564 801 b 203 642 314 801 243 740 l 221 789 l 168 789 l 31 0 l 96 0 z m 250 897 l 301 897 b 363 972 310 949 329 972 b 535 894 422 972 456 894 b 649 1022 603 894 636 942 l 599 1022 b 536 949 590 967 569 949 b 365 1025 482 949 444 1025 b 250 897 299 1025 265 979 z "},"ŋ":{"ha":669,"x_min":0,"x_max":0,"o":"m 299 -226 b 501 -43 438 -226 475 -192 b 604 540 501 -43 601 524 b 422 801 633 706 564 801 b 203 642 314 801 243 740 l 221 789 l 168 789 l 31 0 l 96 0 l 186 508 b 397 742 211 656 278 742 b 538 540 517 742 560 667 l 436 -39 b 303 -164 417 -142 397 -164 l 271 -164 l 260 -226 z "},"ó":{"ha":660,"x_min":0,"x_max":0,"o":"m 281 -12 b 551 232 440 -12 525 75 l 601 511 b 372 801 633 686 549 801 b 106 561 228 801 133 715 l 58 293 b 281 -12 28 115 86 -12 z m 286 49 b 122 281 143 49 99 146 l 172 557 b 371 743 194 678 263 743 b 536 521 497 743 561 663 l 486 242 b 286 49 465 119 403 49 z m 388 896 l 444 896 l 638 1113 l 563 1113 z "},"ŏ":{"ha":660,"x_min":0,"x_max":0,"o":"m 281 -12 b 551 232 440 -12 525 75 l 601 511 b 372 801 633 686 549 801 b 106 561 228 801 133 715 l 58 293 b 281 -12 28 115 86 -12 z m 286 49 b 122 281 143 49 99 146 l 172 557 b 371 743 194 678 263 743 b 536 521 497 743 561 663 l 486 242 b 286 49 465 119 403 49 z m 421 892 b 622 1075 540 892 600 967 l 569 1075 b 425 942 550 994 506 943 b 329 1075 340 943 318 994 l 275 1075 b 421 892 260 965 299 892 z "},"ô":{"ha":660,"x_min":0,"x_max":0,"o":"m 281 -12 b 551 232 440 -12 525 75 l 601 511 b 372 801 633 686 549 801 b 106 561 228 801 133 715 l 58 293 b 281 -12 28 115 86 -12 z m 286 49 b 122 281 143 49 99 146 l 172 557 b 371 743 194 678 263 743 b 536 521 497 743 561 663 l 486 242 b 286 49 465 119 403 49 z m 514 894 l 575 894 l 478 1081 l 425 1081 l 263 894 l 329 894 l 446 1031 z "},"ö":{"ha":660,"x_min":0,"x_max":0,"o":"m 281 -12 b 551 232 440 -12 525 75 l 601 511 b 372 801 633 686 549 801 b 106 561 228 801 133 715 l 58 293 b 281 -12 28 115 86 -12 z m 286 49 b 122 281 143 49 99 146 l 172 557 b 371 743 194 678 263 743 b 536 521 497 743 561 663 l 486 242 b 286 49 465 119 403 49 z m 331 897 b 390 953 364 897 383 911 b 350 1011 397 992 382 1011 b 290 954 317 1011 299 994 b 331 897 283 913 300 897 z m 506 897 b 563 953 536 897 556 911 b 524 1011 569 992 556 1011 b 464 954 489 1011 471 994 b 506 897 457 913 472 897 z "},"œ":{"ha":1083,"x_min":0,"x_max":0,"o":"m 286 49 b 122 281 143 49 99 146 l 172 557 b 371 743 194 678 263 743 b 536 521 497 743 561 663 l 486 242 b 286 49 465 119 403 49 z m 606 550 b 808 743 629 675 700 743 b 971 517 940 743 997 660 l 956 433 l 585 433 z m 985 229 l 992 265 l 924 265 l 919 239 b 724 49 899 113 844 49 b 558 286 575 49 535 146 l 575 376 l 1011 376 l 1035 511 b 817 801 1067 688 985 801 b 585 654 704 801 626 747 b 371 801 561 744 490 801 b 106 561 225 801 133 715 l 58 293 b 279 -12 28 115 85 -12 b 507 135 397 -12 468 42 b 718 -12 526 44 589 -12 b 985 229 878 -12 956 74 z "},"ò":{"ha":660,"x_min":0,"x_max":0,"o":"m 281 -12 b 551 232 440 -12 525 75 l 601 511 b 372 801 633 686 549 801 b 106 561 228 801 133 715 l 58 293 b 281 -12 28 115 86 -12 z m 286 49 b 122 281 143 49 99 146 l 172 557 b 371 743 194 678 263 743 b 536 521 497 743 561 663 l 486 242 b 286 49 465 119 403 49 z m 394 894 l 451 894 l 363 1083 l 288 1083 z "},"ő":{"ha":660,"x_min":0,"x_max":0,"o":"m 281 -12 b 551 232 440 -12 525 75 l 601 511 b 372 801 633 686 549 801 b 106 561 228 801 133 715 l 58 293 b 281 -12 28 115 86 -12 z m 286 49 b 122 281 143 49 99 146 l 172 557 b 371 743 194 678 263 743 b 536 521 497 743 561 663 l 486 242 b 286 49 465 119 403 49 z m 540 1083 l 467 1083 l 318 896 l 371 896 z m 696 1083 l 621 1083 l 460 896 l 514 896 z "},"ō":{"ha":660,"x_min":0,"x_max":0,"o":"m 281 -12 b 551 232 440 -12 525 75 l 601 511 b 372 801 633 686 549 801 b 106 561 228 801 133 715 l 58 293 b 281 -12 28 115 86 -12 z m 286 49 b 122 281 143 49 99 146 l 172 557 b 371 743 194 678 263 743 b 536 521 497 743 561 663 l 486 242 b 286 49 465 119 403 49 z m 278 915 l 567 915 l 576 971 l 288 971 z "},"ø":{"ha":660,"x_min":0,"x_max":0,"o":"m 122 281 l 172 557 b 371 743 194 678 263 743 b 468 721 410 743 442 736 l 163 89 b 122 281 119 129 108 197 z m 286 49 b 201 64 253 49 224 54 l 504 693 b 536 521 538 654 550 596 l 486 242 b 286 49 465 119 403 49 z m 281 -12 b 551 232 440 -12 525 75 l 601 511 b 533 754 621 619 596 704 l 607 906 l 557 906 l 494 778 b 372 801 461 793 419 801 b 106 561 228 801 133 715 l 58 293 b 132 25 38 174 57 76 l 58 -125 l 111 -125 l 172 4 b 281 -12 203 -7 239 -12 z "},"ǿ":{"ha":660,"x_min":0,"x_max":0,"o":"m 122 281 l 172 557 b 371 743 194 678 263 743 b 468 721 410 743 442 736 l 163 89 b 122 281 119 129 108 197 z m 286 49 b 201 64 253 49 224 54 l 504 693 b 536 521 538 654 550 596 l 486 242 b 286 49 465 119 403 49 z m 281 -12 b 551 232 440 -12 525 75 l 601 511 b 533 754 621 619 596 704 l 607 906 l 557 906 l 494 778 b 372 801 461 793 419 801 b 106 561 228 801 133 715 l 58 293 b 132 25 38 174 57 76 l 58 -125 l 111 -125 l 172 4 b 281 -12 203 -7 239 -12 z m 393 929 l 450 929 l 643 1146 l 568 1146 z "},"õ":{"ha":660,"x_min":0,"x_max":0,"o":"m 281 -12 b 551 232 440 -12 525 75 l 601 511 b 372 801 633 686 549 801 b 106 561 228 801 133 715 l 58 293 b 281 -12 28 115 86 -12 z m 286 49 b 122 281 143 49 99 146 l 172 557 b 371 743 194 678 263 743 b 536 521 497 743 561 663 l 486 242 b 286 49 465 119 403 49 z m 228 897 l 279 897 b 340 972 288 949 307 972 b 513 894 400 972 433 894 b 626 1022 581 894 614 942 l 576 1022 b 514 949 568 967 547 949 b 343 1025 460 949 422 1025 b 228 897 276 1025 243 979 z "},"ŕ":{"ha":424,"x_min":0,"x_max":0,"o":"m 94 0 l 178 476 b 414 722 207 649 267 722 l 451 722 l 463 790 l 433 790 b 203 640 313 790 244 746 l 218 789 l 168 789 l 31 0 z m 283 875 l 340 875 l 533 1092 l 458 1092 z "},"ř":{"ha":424,"x_min":0,"x_max":0,"o":"m 94 0 l 178 476 b 414 722 207 649 267 722 l 451 722 l 463 790 l 433 790 b 203 640 313 790 244 746 l 218 789 l 168 789 l 31 0 z m 335 872 l 500 1057 l 433 1057 l 318 925 l 253 1057 l 189 1057 l 286 872 z "},"ŗ":{"ha":424,"x_min":0,"x_max":0,"o":"m 94 0 l 178 476 b 414 722 207 649 267 722 l 451 722 l 463 790 l 433 790 b 203 640 313 790 244 746 l 218 789 l 168 789 l 31 0 z m -37 -319 b 88 -161 29 -293 75 -235 b 49 -79 99 -103 85 -79 b -14 -137 15 -79 -7 -97 b 19 -189 -21 -179 -6 -189 b 36 -185 25 -189 31 -187 b -43 -283 24 -232 -6 -265 z "},"ś":{"ha":604,"x_min":0,"x_max":0,"o":"m 258 -14 b 508 182 400 -14 485 49 l 510 185 b 339 429 535 329 435 381 b 182 619 250 472 163 513 l 182 622 b 351 746 196 699 254 746 b 500 589 463 746 517 686 l 493 543 l 558 543 l 564 582 b 356 804 588 718 506 804 b 118 626 225 804 139 740 l 118 622 b 285 383 92 482 190 432 b 443 188 375 338 464 297 l 443 183 b 265 47 428 103 376 47 b 99 217 146 47 79 111 l 110 276 l 40 276 l 31 224 b 258 -14 4 79 96 -14 z m 360 896 l 417 896 l 610 1113 l 535 1113 z "},"š":{"ha":604,"x_min":0,"x_max":0,"o":"m 258 -14 b 508 182 400 -14 485 49 l 510 185 b 339 429 535 329 435 381 b 182 619 250 472 163 513 l 182 622 b 351 746 196 699 254 746 b 500 589 463 746 517 686 l 493 543 l 558 543 l 564 582 b 356 804 588 718 506 804 b 118 626 225 804 139 740 l 118 622 b 285 383 92 482 190 432 b 443 188 375 338 464 297 l 443 183 b 265 47 428 103 376 47 b 99 217 146 47 79 111 l 110 276 l 40 276 l 31 224 b 258 -14 4 79 96 -14 z m 413 893 l 578 1078 l 511 1078 l 396 946 l 331 1078 l 267 1078 l 364 893 z "},"ş":{"ha":604,"x_min":0,"x_max":0,"o":"m 201 -294 b 360 -194 292 -294 349 -256 b 251 -83 372 -125 333 -86 l 264 -14 b 508 182 400 -14 485 49 l 510 185 b 339 429 535 329 435 381 b 182 619 250 472 163 513 l 182 622 b 351 746 196 699 254 746 b 500 589 463 746 517 686 l 493 543 l 558 543 l 564 582 b 356 804 588 718 506 804 b 118 626 225 804 139 740 l 118 622 b 285 383 92 482 190 432 b 443 188 375 338 464 297 l 443 183 b 265 47 428 103 376 47 b 99 217 146 47 79 111 l 110 276 l 40 276 l 31 224 b 210 -11 7 94 78 7 l 189 -128 l 219 -128 b 301 -190 286 -128 310 -146 b 206 -246 294 -226 261 -246 b 122 -178 151 -246 119 -225 l 61 -178 b 201 -294 60 -253 104 -294 z "},"ŝ":{"ha":604,"x_min":0,"x_max":0,"o":"m 258 -14 b 508 182 400 -14 485 49 l 510 185 b 339 429 535 329 435 381 b 182 619 250 472 163 513 l 182 622 b 351 746 196 699 254 746 b 500 589 463 746 517 686 l 493 543 l 558 543 l 564 582 b 356 804 588 718 506 804 b 118 626 225 804 139 740 l 118 622 b 285 383 92 482 190 432 b 443 188 375 338 464 297 l 443 183 b 265 47 428 103 376 47 b 99 217 146 47 79 111 l 110 276 l 40 276 l 31 224 b 258 -14 4 79 96 -14 z m 488 894 l 549 894 l 451 1081 l 399 1081 l 236 894 l 303 894 l 419 1031 z "},"ș":{"ha":604,"x_min":0,"x_max":0,"o":"m 258 -14 b 508 182 400 -14 485 49 l 510 185 b 339 429 535 329 435 381 b 182 619 250 472 163 513 l 182 622 b 351 746 196 699 254 746 b 500 589 463 746 517 686 l 493 543 l 558 543 l 564 582 b 356 804 588 718 506 804 b 118 626 225 804 139 740 l 118 622 b 285 383 92 482 190 432 b 443 188 375 338 464 297 l 443 183 b 265 47 428 103 376 47 b 99 217 146 47 79 111 l 110 276 l 40 276 l 31 224 b 258 -14 4 79 96 -14 z m 136 -332 b 261 -174 203 -306 249 -247 b 222 -92 272 -115 258 -92 b 160 -150 189 -92 167 -110 b 193 -201 153 -192 168 -201 b 210 -197 199 -201 204 -200 b 131 -296 197 -244 168 -278 z "},"ŧ":{"ha":404,"x_min":0,"x_max":0,"o":"m 308 64 l 276 64 b 169 232 169 64 144 90 l 197 385 l 318 385 l 328 440 l 207 440 l 258 728 l 425 728 l 436 789 l 268 789 l 297 950 l 244 950 b 221 844 242 935 225 854 b 157 789 208 799 199 792 b 93 785 150 786 103 785 l 83 728 l 193 728 l 143 440 l 60 440 l 50 385 l 133 385 l 106 228 b 256 0 74 44 110 0 l 297 0 z "},"ť":{"ha":404,"x_min":0,"x_max":0,"o":"m 308 64 l 276 64 b 169 232 169 64 144 90 l 257 728 l 425 728 l 436 789 l 268 789 l 296 950 l 244 950 b 221 844 242 935 225 854 b 157 789 208 799 199 792 b 93 785 150 786 103 785 l 83 728 l 193 728 l 106 228 b 256 0 74 44 110 0 l 297 0 z m 371 906 l 418 906 l 522 1104 l 458 1104 z "},"ţ":{"ha":404,"x_min":0,"x_max":0,"o":"m 308 64 l 276 64 b 169 232 169 64 144 90 l 257 728 l 425 728 l 436 789 l 268 789 l 296 950 l 244 950 b 221 844 242 935 225 854 b 157 789 208 799 199 792 b 93 785 150 786 103 785 l 83 728 l 193 728 l 106 228 b 256 0 74 44 110 0 l 297 0 z m 85 -318 b 210 -160 151 -292 197 -233 b 171 -78 221 -101 207 -78 b 108 -136 138 -78 115 -96 b 142 -187 101 -178 117 -187 b 158 -183 147 -187 153 -186 b 79 -282 146 -231 117 -264 z "},"ú":{"ha":651,"x_min":0,"x_max":0,"o":"m 433 0 l 486 0 l 624 789 l 557 789 l 468 281 b 265 47 442 132 379 47 b 136 250 154 47 114 122 l 231 789 l 164 789 l 69 256 b 244 -12 40 83 101 -12 b 451 146 346 -12 413 46 z m 374 867 l 431 867 l 624 1083 l 549 1083 z "},"ŭ":{"ha":651,"x_min":0,"x_max":0,"o":"m 433 0 l 486 0 l 624 789 l 557 789 l 468 281 b 265 47 442 132 379 47 b 136 250 154 47 114 122 l 231 789 l 164 789 l 69 256 b 244 -12 40 83 101 -12 b 451 146 346 -12 413 46 z m 415 874 b 617 1057 535 874 594 949 l 564 1057 b 419 924 544 976 500 925 b 324 1057 335 925 313 976 l 269 1057 b 415 874 254 947 293 874 z "},"û":{"ha":651,"x_min":0,"x_max":0,"o":"m 433 0 l 486 0 l 624 789 l 557 789 l 468 281 b 265 47 442 132 379 47 b 136 250 154 47 114 122 l 231 789 l 164 789 l 69 256 b 244 -12 40 83 101 -12 b 451 146 346 -12 413 46 z m 506 876 l 567 876 l 469 1063 l 417 1063 l 254 876 l 321 876 l 438 1013 z "},"ü":{"ha":651,"x_min":0,"x_max":0,"o":"m 433 0 l 486 0 l 624 789 l 557 789 l 468 281 b 265 47 442 132 379 47 b 136 250 154 47 114 122 l 231 789 l 164 789 l 69 256 b 244 -12 40 83 101 -12 b 451 146 346 -12 413 46 z m 322 879 b 382 935 356 879 375 893 b 342 993 389 974 374 993 b 282 936 308 993 290 976 b 322 879 275 894 292 879 z m 497 879 b 554 935 528 879 547 893 b 515 993 561 974 547 993 b 456 936 481 993 463 976 b 497 879 449 894 464 879 z "},"ù":{"ha":651,"x_min":0,"x_max":0,"o":"m 433 0 l 486 0 l 624 789 l 557 789 l 468 281 b 265 47 442 132 379 47 b 136 250 154 47 114 122 l 231 789 l 164 789 l 69 256 b 244 -12 40 83 101 -12 b 451 146 346 -12 413 46 z m 385 865 l 442 865 l 353 1054 l 278 1054 z "},"ű":{"ha":651,"x_min":0,"x_max":0,"o":"m 433 0 l 486 0 l 624 789 l 557 789 l 468 281 b 265 47 442 132 379 47 b 136 250 154 47 114 122 l 231 789 l 164 789 l 69 256 b 244 -12 40 83 101 -12 b 451 146 346 -12 413 46 z m 522 1063 l 449 1063 l 300 875 l 353 875 z m 678 1063 l 603 1063 l 442 875 l 496 875 z "},"ū":{"ha":651,"x_min":0,"x_max":0,"o":"m 433 0 l 486 0 l 624 789 l 557 789 l 468 281 b 265 47 442 132 379 47 b 136 250 154 47 114 122 l 231 789 l 164 789 l 69 256 b 244 -12 40 83 101 -12 b 451 146 346 -12 413 46 z m 269 897 l 558 897 l 568 953 l 279 953 z "},"ų":{"ha":651,"x_min":0,"x_max":0,"o":"m 579 -139 l 515 -139 b 413 -203 493 -182 460 -203 b 339 -133 360 -203 333 -172 b 486 0 346 -90 388 -56 l 624 789 l 557 789 l 468 281 b 265 47 442 132 379 47 b 136 250 154 47 114 122 l 231 789 l 164 789 l 69 256 b 244 -12 40 83 101 -12 b 451 146 346 -12 413 46 l 436 21 b 283 -128 346 -28 296 -72 b 404 -253 271 -196 314 -253 b 579 -139 489 -253 543 -215 z "},"ů":{"ha":651,"x_min":0,"x_max":0,"o":"m 433 0 l 486 0 l 624 789 l 557 789 l 468 281 b 265 47 442 132 379 47 b 136 250 154 47 114 122 l 231 789 l 164 789 l 69 256 b 244 -12 40 83 101 -12 b 451 146 346 -12 413 46 z m 418 869 b 551 981 489 869 539 910 b 440 1111 564 1050 519 1111 b 306 1000 374 1111 318 1068 b 418 869 293 929 338 869 z m 421 919 b 358 994 376 919 351 953 b 438 1061 367 1038 396 1061 b 499 986 482 1061 506 1026 b 421 919 490 942 464 919 z "},"ũ":{"ha":651,"x_min":0,"x_max":0,"o":"m 433 0 l 486 0 l 624 789 l 557 789 l 468 281 b 265 47 442 132 379 47 b 136 250 154 47 114 122 l 231 789 l 164 789 l 69 256 b 244 -12 40 83 101 -12 b 451 146 346 -12 413 46 z m 225 882 l 276 882 b 338 957 285 933 304 957 b 510 879 397 957 431 879 b 624 1007 578 879 611 926 l 574 1007 b 511 933 565 951 544 933 b 340 1010 457 933 419 1010 b 225 882 274 1010 240 964 z "},"ẃ":{"ha":881,"x_min":0,"x_max":0,"o":"m 464 617 l 492 701 l 489 618 l 535 0 l 597 0 l 910 789 l 844 789 l 603 163 l 575 72 l 576 165 l 528 789 l 486 789 l 208 164 l 175 74 l 183 164 l 176 789 l 113 789 l 125 0 l 190 0 z m 492 883 l 549 883 l 742 1100 l 667 1100 z "},"ŵ":{"ha":881,"x_min":0,"x_max":0,"o":"m 464 617 l 492 701 l 489 618 l 535 0 l 597 0 l 910 789 l 844 789 l 603 163 l 575 72 l 576 165 l 528 789 l 486 789 l 208 164 l 175 74 l 183 164 l 176 789 l 113 789 l 125 0 l 190 0 z m 618 882 l 679 882 l 582 1068 l 529 1068 l 367 882 l 433 882 l 550 1018 z "},"ẅ":{"ha":881,"x_min":0,"x_max":0,"o":"m 464 617 l 492 701 l 489 618 l 535 0 l 597 0 l 910 789 l 844 789 l 603 163 l 575 72 l 576 165 l 528 789 l 486 789 l 208 164 l 175 74 l 183 164 l 176 789 l 113 789 l 125 0 l 190 0 z m 435 885 b 494 940 468 885 488 899 b 454 999 501 979 486 999 b 394 942 421 999 403 982 b 435 885 388 900 404 885 z m 610 885 b 667 940 640 885 660 899 b 628 999 674 979 660 999 b 568 942 593 999 575 982 b 610 885 561 900 576 885 z "},"ẁ":{"ha":881,"x_min":0,"x_max":0,"o":"m 464 617 l 492 701 l 489 618 l 535 0 l 597 0 l 910 789 l 844 789 l 603 163 l 575 72 l 576 165 l 528 789 l 486 789 l 208 164 l 175 74 l 183 164 l 176 789 l 113 789 l 125 0 l 190 0 z m 499 883 l 556 883 l 467 1072 l 392 1072 z "},"ý":{"ha":619,"x_min":0,"x_max":0,"o":"m 3 -218 b 254 -42 140 -218 183 -189 l 653 789 l 583 789 l 288 160 l 254 65 l 253 163 l 176 789 l 110 789 l 213 7 l 194 -33 b 11 -156 140 -139 110 -156 l -25 -156 l -35 -218 z m 349 868 l 406 868 l 599 1085 l 524 1085 z "},"ŷ":{"ha":619,"x_min":0,"x_max":0,"o":"m 3 -218 b 254 -42 140 -218 183 -189 l 653 789 l 583 789 l 288 160 l 254 65 l 253 163 l 176 789 l 110 789 l 213 7 l 194 -33 b 11 -156 140 -139 110 -156 l -25 -156 l -35 -218 z m 478 872 l 539 872 l 442 1058 l 389 1058 l 226 872 l 293 872 l 410 1008 z "},"ÿ":{"ha":619,"x_min":0,"x_max":0,"o":"m 3 -218 b 254 -42 140 -218 183 -189 l 653 789 l 583 789 l 288 160 l 254 65 l 253 163 l 176 789 l 110 789 l 213 7 l 194 -33 b 11 -156 140 -139 110 -156 l -25 -156 l -35 -218 z m 293 875 b 353 931 326 875 346 889 b 313 989 360 969 344 989 b 253 932 279 989 261 972 b 293 875 246 890 263 875 z m 468 875 b 525 931 499 875 518 889 b 486 989 532 969 518 989 b 426 932 451 989 433 972 b 468 875 419 890 435 875 z "},"ỳ":{"ha":619,"x_min":0,"x_max":0,"o":"m 3 -218 b 254 -42 140 -218 183 -189 l 653 789 l 583 789 l 288 160 l 254 65 l 253 163 l 176 789 l 110 789 l 213 7 l 194 -33 b 11 -156 140 -139 110 -156 l -25 -156 l -35 -218 z m 356 858 l 413 858 l 324 1047 l 249 1047 z "},"ĳ":{"ha":525,"x_min":0,"x_max":0,"o":"m 488 886 b 544 944 519 886 535 900 b 506 1004 551 986 539 1004 b 447 946 471 1004 456 990 b 488 886 439 904 453 886 z m 222 886 b 279 944 256 886 271 900 b 240 1004 288 986 275 1004 b 182 946 206 1004 190 990 b 222 886 174 904 188 886 z m 147 -222 b 351 -32 283 -222 326 -182 l 497 789 l 432 789 l 288 -28 b 154 -161 269 -136 243 -161 l 0 -161 l -11 -222 z m 97 0 l 235 789 l 169 789 l 31 0 z "},"ź":{"ha":547,"x_min":0,"x_max":0,"o":"m 433 0 l 444 63 l 67 63 l 563 733 l 574 789 l 139 789 l 128 729 l 486 729 l -15 53 l -24 0 z m 342 883 l 399 883 l 592 1100 l 517 1100 z "},"ž":{"ha":547,"x_min":0,"x_max":0,"o":"m 433 0 l 444 63 l 67 63 l 563 733 l 574 789 l 139 789 l 128 729 l 486 729 l -15 53 l -24 0 z m 394 881 l 560 1065 l 493 1065 l 378 933 l 313 1065 l 249 1065 l 346 881 z "},"ż":{"ha":547,"x_min":0,"x_max":0,"o":"m 433 0 l 444 63 l 67 63 l 563 733 l 574 789 l 139 789 l 128 729 l 486 729 l -15 53 l -24 0 z m 372 881 b 438 942 408 881 428 897 b 392 1008 444 988 428 1008 b 326 944 354 1008 333 990 b 372 881 317 899 335 881 z "},"þ":{"ha":682,"x_min":0,"x_max":0,"o":"m 311 50 b 144 294 160 50 118 150 l 186 533 b 394 743 210 667 285 743 b 556 504 521 743 582 656 l 511 260 b 311 50 488 129 429 50 z m 319 -12 b 579 258 468 -12 549 86 l 622 501 b 414 801 656 685 574 801 b 211 671 319 801 253 754 l 275 1039 l 213 1039 l -18 -274 l 44 -274 l 119 154 b 319 -12 129 53 193 -12 z "},"ª":{"ha":494,"x_min":0,"x_max":0,"o":"m 239 472 b 150 575 168 472 140 513 b 207 664 158 618 179 644 b 319 711 235 683 261 693 b 429 775 379 731 414 740 l 401 639 b 239 472 381 535 321 472 z m 476 431 l 497 431 l 508 486 l 500 486 b 450 590 450 486 431 500 l 500 838 b 340 1000 518 939 460 1000 b 142 844 232 1000 161 944 l 135 804 l 197 804 l 203 838 b 338 947 218 917 264 947 b 444 846 428 947 454 903 b 303 754 432 789 376 776 b 158 694 231 732 193 718 b 83 576 122 669 94 632 l 83 575 b 211 421 67 483 111 421 b 383 528 285 421 346 449 b 476 431 381 458 411 431 z "},"º":{"ha":485,"x_min":0,"x_max":0,"o":"m 265 422 b 458 596 379 422 439 485 l 493 793 b 329 1001 515 917 457 1001 b 139 829 225 1001 158 939 l 106 639 b 265 422 83 513 125 422 z m 268 479 b 165 635 178 479 149 544 l 197 822 b 331 946 214 906 258 946 b 433 797 413 946 451 892 l 401 606 b 268 479 386 525 346 479 z "},"&":{"ha":822,"x_min":0,"x_max":0,"o":"m 332 792 l 333 803 b 469 940 351 889 399 940 b 568 825 540 940 581 892 l 568 817 b 333 564 549 703 447 636 b 332 792 319 646 318 721 z m 269 46 b 88 253 138 46 67 126 l 89 256 b 289 481 108 367 188 415 b 336 335 301 435 317 386 b 457 100 371 239 413 158 b 269 46 403 65 340 46 z m 639 -10 b 715 11 671 -10 693 -4 l 725 76 b 650 49 701 57 682 49 b 544 99 615 49 579 67 b 788 603 668 208 753 390 l 796 657 l 735 657 l 725 603 b 508 138 693 410 621 239 b 390 358 465 190 425 265 b 344 510 371 413 356 463 b 626 807 476 593 601 671 l 628 817 b 475 994 646 921 582 994 b 274 807 371 994 299 925 l 272 794 b 276 535 256 710 258 626 b 24 260 151 458 47 392 l 24 257 b 261 -12 -6 88 94 -12 b 493 60 347 -12 425 13 b 639 -10 538 14 586 -10 z "},"´":{"ha":546,"x_min":0,"x_max":0,"o":"m 308 890 l 365 890 l 558 1107 l 483 1107 z "},"˘":{"ha":546,"x_min":0,"x_max":0,"o":"m 363 886 b 564 1069 482 886 542 961 l 511 1069 b 367 936 492 989 447 938 b 271 1069 282 938 260 989 l 217 1069 b 363 886 201 960 240 886 z "},"ˇ":{"ha":546,"x_min":0,"x_max":0,"o":"m 383 888 l 549 1072 l 482 1072 l 367 940 l 301 1072 l 238 1072 l 335 888 z "},"¸":{"ha":546,"x_min":0,"x_max":0,"o":"m 160 -279 b 318 -179 250 -279 307 -240 b 210 -68 331 -110 292 -71 l 224 7 l 168 7 l 147 -112 l 178 -112 b 260 -175 244 -112 268 -131 b 164 -231 253 -211 219 -231 b 81 -162 110 -231 78 -210 l 19 -162 b 160 -279 18 -237 63 -279 z "},"ˆ":{"ha":546,"x_min":0,"x_max":0,"o":"m 456 889 l 517 889 l 419 1075 l 367 1075 l 204 889 l 271 889 l 388 1025 z "},"¨":{"ha":549,"x_min":0,"x_max":0,"o":"m 271 892 b 331 947 304 892 324 906 b 290 1006 338 986 322 1006 b 231 949 257 1006 239 989 b 271 892 224 907 240 892 z m 446 892 b 503 947 476 892 496 906 b 464 1006 510 986 496 1006 b 404 949 429 1006 411 989 b 446 892 397 907 413 892 z "},"˙":{"ha":549,"x_min":0,"x_max":0,"o":"m 354 888 b 419 949 390 888 410 904 b 374 1015 426 994 410 1015 b 308 951 336 1015 315 997 b 354 888 299 906 317 888 z "},"`":{"ha":546,"x_min":0,"x_max":0,"o":"m 371 889 l 428 889 l 339 1078 l 264 1078 z "},"˝":{"ha":546,"x_min":0,"x_max":0,"o":"m 446 1078 l 372 1078 l 224 890 l 276 890 z m 601 1078 l 526 1078 l 365 890 l 419 890 z "},"¯":{"ha":546,"x_min":0,"x_max":0,"o":"m 221 910 l 510 910 l 519 965 l 231 965 z "},"˛":{"ha":546,"x_min":0,"x_max":0,"o":"m 165 -253 b 340 -139 250 -253 304 -215 l 276 -139 b 174 -203 254 -182 221 -203 b 100 -133 121 -203 94 -172 b 247 0 107 -90 149 -56 l 210 28 b 44 -128 111 -24 57 -69 b 165 -253 32 -196 75 -253 z "},"˚":{"ha":546,"x_min":0,"x_max":0,"o":"m 368 890 b 501 1001 439 890 489 931 b 390 1132 514 1071 469 1132 b 256 1021 324 1132 268 1089 b 368 890 243 950 288 890 z m 371 940 b 308 1015 326 940 301 974 b 388 1082 317 1058 346 1082 b 449 1007 432 1082 456 1047 b 371 940 440 963 414 940 z "},"˜":{"ha":546,"x_min":0,"x_max":0,"o":"m 174 892 l 225 892 b 286 967 233 943 253 967 b 458 889 346 967 379 889 b 572 1017 526 889 560 936 l 522 1017 b 460 943 514 961 493 943 b 289 1019 406 943 368 1019 b 174 892 222 1019 189 974 z "},".":{"ha":336,"x_min":0,"x_max":0,"o":"m 100 -11 b 167 51 138 -11 158 6 b 121 122 176 100 160 122 b 53 58 82 122 61 103 b 100 -11 44 10 63 -11 z "},",":{"ha":336,"x_min":0,"x_max":0,"o":"m 21 -154 b 165 28 97 -122 150 -58 b 121 118 178 93 161 118 b 53 53 82 118 61 99 b 89 -8 44 8 63 -8 b 111 -1 97 -8 104 -6 b 17 -115 96 -56 61 -94 z "},":":{"ha":344,"x_min":0,"x_max":0,"o":"m 199 528 b 265 590 236 528 257 543 b 219 661 275 638 257 661 b 151 597 181 661 160 642 b 199 528 143 549 161 528 z m 118 67 b 185 129 156 67 176 82 b 139 200 194 176 176 200 b 71 136 99 200 78 181 b 118 67 63 88 81 67 z "},";":{"ha":344,"x_min":0,"x_max":0,"o":"m 199 528 b 265 590 236 528 257 543 b 219 661 275 638 257 661 b 151 597 181 661 160 642 b 199 528 143 549 161 528 z m 26 -154 b 169 28 103 -122 154 -58 b 125 118 182 93 165 118 b 57 53 88 118 65 99 b 93 -8 50 8 67 -8 b 115 -1 101 -8 108 -6 b 21 -115 101 -56 65 -94 z "},"…":{"ha":792,"x_min":0,"x_max":0,"o":"m 556 -11 b 621 51 592 -11 611 6 b 576 122 629 100 614 122 b 510 58 538 122 518 103 b 556 -11 501 10 517 -11 z m 328 -11 b 393 51 365 -11 385 6 b 350 122 403 100 388 122 b 283 58 310 122 290 103 b 328 -11 275 10 290 -11 z m 100 -11 b 165 51 136 -11 156 6 b 121 122 174 100 158 122 b 54 58 82 122 63 103 b 100 -11 46 10 61 -11 z "},"!":{"ha":357,"x_min":0,"x_max":0,"o":"m 119 206 b 143 207 122 207 136 207 b 167 206 150 207 163 207 b 283 806 175 236 244 583 l 315 985 l 246 985 l 214 804 b 119 206 175 583 122 236 z m 107 -11 b 174 51 144 -11 165 6 b 129 122 183 100 167 122 b 61 58 89 122 68 103 b 107 -11 53 10 69 -11 z "},"¡":{"ha":357,"x_min":0,"x_max":0,"o":"m 229 686 b 297 750 268 686 289 704 b 251 819 306 797 289 819 b 183 757 214 819 193 803 b 229 686 175 707 192 686 z m 42 -182 l 111 -182 l 143 3 b 236 603 182 225 235 571 b 214 600 232 600 222 600 b 189 603 204 600 194 600 b 74 3 182 571 113 225 z "},"?":{"ha":678,"x_min":0,"x_max":0,"o":"m 328 200 l 343 286 b 485 482 364 394 424 438 b 636 697 549 528 615 575 l 647 761 b 436 994 668 888 601 994 b 167 768 278 994 192 911 l 143 632 l 211 632 l 233 761 b 429 933 253 869 311 933 b 579 769 560 933 594 853 l 568 706 b 436 525 551 608 494 568 b 279 297 372 478 303 429 l 269 250 b 263 200 268 242 263 204 b 296 206 267 203 286 206 b 328 200 307 206 325 203 z m 261 -11 b 328 54 300 -11 319 8 b 283 121 336 100 322 121 b 217 57 243 121 225 101 b 261 -11 207 8 224 -11 z "},"¿":{"ha":678,"x_min":0,"x_max":0,"o":"m 413 756 b 346 690 375 756 354 736 b 392 624 338 644 353 624 b 457 688 431 624 450 643 b 413 756 467 736 450 756 z m 346 544 l 331 458 b 189 263 311 350 250 307 b 39 47 125 217 60 169 l 28 -17 b 239 -250 7 -143 74 -250 b 507 -24 396 -250 482 -167 l 532 113 l 463 113 l 440 -17 b 244 -189 421 -125 363 -189 b 94 -25 114 -189 81 -108 l 106 39 b 238 219 124 136 179 176 b 394 447 303 267 371 315 l 404 494 b 411 544 406 503 411 540 b 378 539 408 542 389 539 b 346 544 367 539 349 542 z "},"‽":{"ha":690,"x_min":0,"x_max":0,"o":"m 335 201 l 349 281 b 489 483 368 389 428 436 b 647 714 556 535 625 588 l 656 765 b 439 994 675 893 604 994 b 167 768 279 994 193 913 l 143 629 l 208 629 l 231 761 b 408 938 250 867 301 929 l 385 804 b 292 269 351 619 310 381 b 283 201 285 232 283 211 b 308 204 286 203 300 204 b 335 201 315 204 332 203 z m 444 806 l 468 938 b 592 774 574 925 604 858 l 581 711 b 451 519 563 601 508 571 b 369 422 424 494 393 467 b 444 806 394 540 425 690 z m 272 -11 b 339 54 311 -11 331 8 b 294 121 347 100 333 121 b 228 57 254 121 236 101 b 272 -11 218 8 235 -11 z "},"⸘":{"ha":690,"x_min":0,"x_max":0,"o":"m 413 753 b 346 688 374 753 354 735 b 390 622 338 643 351 622 b 457 686 431 622 449 642 b 413 753 467 735 450 753 z m 246 -253 b 518 -25 406 -253 492 -169 l 542 113 l 476 113 l 454 -18 b 276 -194 435 -125 383 -187 l 300 -62 b 393 474 333 122 375 363 b 401 542 400 510 401 532 b 376 539 399 539 385 539 b 350 540 369 539 353 539 l 336 463 b 196 258 317 354 257 307 b 38 29 129 207 60 156 l 29 -22 b 246 -253 10 -150 81 -253 z m 93 -31 l 104 32 b 233 224 122 142 176 172 b 315 321 261 249 292 276 b 240 -62 289 203 260 53 l 217 -194 b 93 -31 111 -182 81 -117 z "},"‘":{"ha":317,"x_min":0,"x_max":0,"o":"m 219 735 b 285 799 257 735 278 754 b 251 856 293 842 276 856 b 226 847 243 856 235 853 b 317 963 240 901 275 938 l 308 999 b 178 824 240 965 192 904 b 219 735 165 757 181 735 z "},"’":{"ha":317,"x_min":0,"x_max":0,"o":"m 178 733 b 308 908 246 767 294 826 b 267 997 321 974 306 997 b 200 933 229 997 207 978 b 233 876 193 889 208 876 b 258 883 242 876 250 879 b 168 769 244 831 211 794 z "},"“":{"ha":501,"x_min":0,"x_max":0,"o":"m 404 735 b 469 799 442 735 463 754 b 436 856 478 842 461 856 b 411 847 428 856 419 853 b 501 963 425 901 460 938 l 493 999 b 363 824 425 965 376 904 b 404 735 350 757 365 735 z m 219 735 b 285 799 257 735 278 754 b 251 856 293 842 276 856 b 226 847 243 856 235 853 b 317 963 240 901 275 938 l 308 999 b 178 824 240 965 192 904 b 219 735 165 757 181 735 z "},"”":{"ha":501,"x_min":0,"x_max":0,"o":"m 178 733 b 308 908 246 767 294 828 b 267 997 321 974 306 997 b 200 933 229 997 207 978 b 233 876 193 889 208 876 b 258 883 242 876 250 879 b 168 769 244 831 211 794 z m 363 733 b 493 908 431 767 479 828 b 451 997 506 974 490 997 b 385 933 414 997 392 978 b 418 876 378 889 393 876 b 443 883 426 876 435 879 b 353 769 429 831 396 794 z "},"‚":{"ha":322,"x_min":0,"x_max":0,"o":"m 24 -147 b 156 28 92 -115 140 -54 b 113 117 168 93 151 117 b 46 53 76 117 54 96 b 81 -6 39 8 56 -6 b 104 1 89 -6 97 -3 b 15 -112 92 -51 57 -87 z "},"„":{"ha":504,"x_min":0,"x_max":0,"o":"m 210 -147 b 340 28 278 -115 326 -54 b 299 117 353 93 338 117 b 232 53 261 117 240 96 b 267 -6 225 8 242 -6 b 290 1 275 -6 283 -3 b 201 -112 278 -51 243 -87 z m 22 -147 b 153 28 90 -115 139 -54 b 111 117 165 93 150 117 b 44 53 74 117 53 96 b 79 -6 38 8 54 -6 b 103 1 88 -6 96 -3 b 14 -112 90 -51 56 -87 z "},"‛":{"ha":317,"x_min":0,"x_max":0,"o":"m 281 768 b 232 883 246 792 225 828 b 253 875 238 878 244 875 b 308 932 281 875 300 885 b 265 997 315 976 301 997 b 190 907 225 997 203 974 b 260 733 176 826 204 761 z "},"‟":{"ha":501,"x_min":0,"x_max":0,"o":"m 281 768 b 232 883 246 792 225 828 b 253 875 238 878 244 875 b 308 932 281 875 300 885 b 265 997 315 976 301 997 b 190 907 225 997 203 974 b 260 733 176 826 204 761 z m 465 768 b 417 883 431 792 410 828 b 438 875 422 878 429 875 b 493 932 465 875 485 885 b 450 997 500 976 486 997 b 375 907 410 997 388 974 b 444 733 361 826 389 761 z "},"‹":{"ha":415,"x_min":0,"x_max":0,"o":"m 292 146 l 146 407 l 386 686 l 314 686 l 85 415 l 83 406 l 226 146 z "},"›":{"ha":415,"x_min":0,"x_max":0,"o":"m 107 146 l 340 408 l 342 419 l 204 686 l 139 686 l 278 418 l 33 146 z "},"«":{"ha":653,"x_min":0,"x_max":0,"o":"m 535 146 l 386 408 l 625 686 l 554 686 l 324 417 l 322 406 l 467 146 z m 292 146 l 147 411 l 385 686 l 315 686 l 86 418 l 85 410 l 225 146 z "},"»":{"ha":653,"x_min":0,"x_max":0,"o":"m 103 146 l 339 410 l 342 421 l 204 686 l 138 686 l 279 421 l 32 146 z m 347 146 l 578 407 l 579 415 l 442 686 l 376 686 l 515 415 l 276 146 z "},"/":{"ha":396,"x_min":0,"x_max":0,"o":"m -17 0 l 51 0 l 451 983 l 383 983 z "},"\\":{"ha":396,"x_min":0,"x_max":0,"o":"m 156 983 l 208 0 l 276 0 l 224 983 z "},"|":{"ha":282,"x_min":0,"x_max":0,"o":"m 78 -162 l 303 1119 l 236 1119 l 11 -162 z "},"‖":{"ha":517,"x_min":0,"x_max":0,"o":"m 246 -162 l 313 -162 l 538 1119 l 471 1119 z m 11 -162 l 78 -162 l 303 1119 l 236 1119 z "},"¦":{"ha":282,"x_min":0,"x_max":0,"o":"m 138 563 l 204 563 l 303 1119 l 236 1119 z m 114 422 l 11 -162 l 78 -162 l 181 422 z "},"•":{"ha":361,"x_min":0,"x_max":0,"o":"m 171 326 b 257 399 218 326 249 344 b 193 476 268 453 240 476 b 107 404 146 476 117 457 b 171 326 97 350 122 326 z "},"·":{"ha":338,"x_min":0,"x_max":0,"o":"m 165 354 b 232 418 203 354 224 371 b 186 486 240 464 225 486 b 118 419 146 486 126 465 b 165 354 110 372 126 354 z "},"-":{"ha":586,"x_min":0,"x_max":0,"o":"m 79 388 l 508 388 l 519 453 l 90 453 z "},"­":{"ha":586,"x_min":0,"x_max":0,"o":"m 79 388 l 508 388 l 519 453 l 90 453 z "},"–":{"ha":581,"x_min":0,"x_max":0,"o":"m 79 388 l 501 388 l 513 453 l 90 453 z "},"—":{"ha":767,"x_min":0,"x_max":0,"o":"m 79 388 l 686 388 l 697 453 l 90 453 z "},"‒":{"ha":713,"x_min":0,"x_max":0,"o":"m 79 388 l 633 388 l 644 453 l 90 453 z "},"―":{"ha":1025,"x_min":0,"x_max":0,"o":"m 79 388 l 946 388 l 957 453 l 90 453 z "},"(":{"ha":438,"x_min":0,"x_max":0,"o":"m 272 -254 l 283 -189 b 135 178 153 -175 90 -71 l 210 607 b 489 975 254 856 353 963 l 500 1039 b 142 615 317 1026 193 906 l 67 185 b 272 -254 15 -107 100 -236 z "},")":{"ha":438,"x_min":0,"x_max":0,"o":"m -61 -253 b 297 171 122 -242 246 -119 l 372 601 b 167 1039 424 892 339 1022 l 156 974 b 304 608 286 961 349 857 l 229 179 b -50 -189 185 -71 86 -176 z "},"[":{"ha":419,"x_min":0,"x_max":0,"o":"m 264 -190 l 82 -190 l 286 976 l 469 976 l 479 1036 l 231 1036 l 4 -250 l 253 -250 z "},"]":{"ha":419,"x_min":0,"x_max":0,"o":"m 190 -250 l 417 1036 l 167 1036 l 157 976 l 342 976 l 136 -190 l -49 -190 l -60 -250 z "},"{":{"ha":428,"x_min":0,"x_max":0,"o":"m 261 -251 l 271 -193 l 219 -193 b 110 -72 117 -193 96 -149 b 231 271 124 18 215 186 b 138 413 247 356 211 413 b 276 542 215 413 263 457 b 278 861 292 629 263 774 b 431 981 292 939 326 981 l 479 981 l 489 1038 l 421 1038 b 213 868 281 1038 231 968 b 211 547 196 769 225 628 b 96 444 199 476 161 444 l 53 444 l 40 381 l 85 381 b 165 265 149 381 179 346 b 43 -64 151 185 60 33 b 189 -251 25 -167 51 -251 z "},"}":{"ha":428,"x_min":0,"x_max":0,"o":"m 14 -219 b 222 -50 154 -219 204 -150 b 224 271 239 49 210 190 b 339 374 236 342 274 374 l 382 374 l 394 438 l 350 438 b 269 553 286 438 256 472 b 392 882 283 633 375 785 b 246 1069 410 985 383 1069 l 174 1069 l 164 1011 l 215 1011 b 325 890 318 1011 339 967 b 204 547 311 800 219 632 b 297 406 188 463 224 406 b 158 276 219 406 172 361 b 157 -43 143 189 172 44 b 4 -162 143 -121 108 -162 l -44 -162 l -54 -219 z "},"〈":{"ha":425,"x_min":0,"x_max":0,"o":"m 261 -261 l 146 378 l 492 1028 l 419 1028 l 76 383 l 192 -261 z "},"〉":{"ha":425,"x_min":0,"x_max":0,"o":"m 7 -261 l 346 381 l 229 1028 l 160 1028 l 275 386 l -67 -261 z "},"*":{"ha":471,"x_min":0,"x_max":0,"o":"m 431 717 l 468 768 l 326 831 l 489 892 l 469 942 l 324 842 l 375 1004 l 315 1004 l 308 842 l 197 942 l 158 890 l 300 829 l 138 768 l 158 717 l 304 818 l 253 656 l 313 656 l 319 818 z "},"†":{"ha":565,"x_min":0,"x_max":0,"o":"m 539 658 l 551 724 l 374 724 l 425 1013 l 360 1013 l 308 724 l 132 724 l 121 658 l 297 658 l 176 -29 l 242 -29 l 363 658 z "},"‡":{"ha":565,"x_min":0,"x_max":0,"o":"m 474 288 l 486 353 l 308 353 l 363 660 l 540 660 l 551 725 l 375 725 l 425 1013 l 360 1013 l 310 725 l 132 725 l 121 660 l 297 660 l 243 353 l 67 353 l 56 288 l 232 288 l 176 -29 l 242 -29 l 297 288 z "},"§":{"ha":651,"x_min":0,"x_max":0,"o":"m 321 422 b 158 606 221 471 142 513 l 158 608 b 221 700 165 644 194 679 b 375 599 260 656 321 626 b 536 406 465 553 554 511 l 536 403 b 486 315 531 371 510 338 b 321 422 447 363 382 393 z m 274 -14 b 522 179 415 -14 500 46 l 522 182 b 503 294 529 228 521 264 b 601 400 546 314 592 347 l 601 404 b 428 643 624 531 542 588 b 249 832 339 686 231 731 l 249 835 b 417 957 263 913 319 957 b 567 800 528 957 583 897 l 560 754 l 625 754 l 631 793 b 421 1015 654 929 571 1015 b 185 840 290 1015 206 954 l 185 835 b 206 721 176 788 185 751 b 94 610 153 703 103 661 l 93 606 b 268 376 69 478 160 433 b 457 185 372 325 475 292 l 457 181 b 279 47 443 100 390 47 b 113 217 160 47 101 111 l 118 274 l 50 274 l 44 224 b 274 -14 26 79 111 -14 z "},"¶":{"ha":747,"x_min":0,"x_max":0,"o":"m 386 0 l 550 925 l 674 925 l 510 0 l 574 0 l 747 983 l 443 983 b 119 718 261 983 149 883 l 117 707 b 340 432 88 547 175 431 l 399 432 l 322 0 z m 353 492 b 183 701 225 492 158 569 l 185 714 b 433 925 207 846 296 925 l 485 925 l 408 492 z "},"^":{"ha":560,"x_min":0,"x_max":0,"o":"m 442 672 l 506 674 l 410 983 l 357 983 l 153 674 l 219 672 l 375 919 z "},"~":{"ha":558,"x_min":0,"x_max":0,"o":"m 147 757 l 200 757 b 267 846 210 813 231 846 b 436 753 325 846 351 753 b 561 893 508 753 546 808 l 508 893 b 442 806 499 833 476 806 b 271 899 385 806 353 899 b 147 757 200 899 163 843 z "},"_":{"ha":593,"x_min":0,"x_max":0,"o":"m -44 -144 l 450 -144 l 461 -81 l -33 -81 z "},"'":{"ha":210,"x_min":0,"x_max":0,"o":"m 133 663 l 172 663 b 225 897 185 704 213 825 l 240 983 l 179 983 l 164 897 b 133 663 151 826 135 703 z "},"\"":{"ha":360,"x_min":0,"x_max":0,"o":"m 282 663 l 322 663 b 376 906 335 704 364 833 l 390 983 l 328 983 l 315 906 b 282 663 301 833 283 704 z m 132 663 l 172 663 b 226 906 186 704 214 833 l 240 983 l 179 983 l 165 906 b 132 663 153 833 135 704 z "},"‴":{"ha":508,"x_min":0,"x_max":0,"o":"m 431 663 l 472 663 b 526 906 485 704 513 833 l 539 983 l 478 983 l 464 906 b 431 663 451 833 433 704 z m 282 663 l 322 663 b 376 906 336 704 364 833 l 390 983 l 328 983 l 315 906 b 282 663 301 833 283 704 z m 132 663 l 174 663 b 226 906 186 704 214 833 l 240 983 l 179 983 l 165 906 b 132 663 153 833 135 704 z "},"@":{"ha":926,"x_min":0,"x_max":0,"o":"m 389 -161 b 692 -28 514 -161 615 -118 l 633 -6 b 393 -104 574 -72 503 -104 b 114 247 185 -104 72 7 b 169 561 114 247 167 543 b 539 911 210 789 344 911 b 821 583 756 911 854 776 l 768 281 b 654 114 747 167 714 114 b 594 214 601 114 583 149 b 689 747 597 231 689 747 l 649 747 l 624 650 b 500 754 614 715 574 754 b 318 547 400 754 343 689 l 267 260 b 394 54 243 124 285 54 b 539 150 465 54 511 89 b 647 63 546 96 583 63 b 824 275 744 63 799 132 l 878 582 b 543 967 917 803 785 967 b 113 564 317 967 158 822 l 56 244 b 389 -161 7 -33 156 -161 z m 410 106 b 325 260 335 106 306 153 l 375 540 b 504 701 393 651 433 701 b 594 536 585 701 615 649 l 547 261 b 410 106 528 158 483 106 z "},"©":{"ha":903,"x_min":0,"x_max":0,"o":"m 410 -14 b 821 361 633 -14 774 96 l 863 596 b 532 994 908 858 740 994 b 115 614 317 994 161 876 l 75 385 b 410 -14 28 113 190 -14 z m 415 40 b 128 375 225 40 88 149 l 169 613 b 528 942 208 840 340 942 b 810 606 707 942 849 826 l 767 363 b 415 40 726 139 613 40 z m 433 176 b 629 364 550 176 608 243 l 638 407 l 582 407 l 574 365 b 436 229 557 272 513 229 b 331 392 343 229 313 292 l 372 628 b 513 758 390 719 439 758 b 618 615 597 758 636 711 l 610 576 l 667 576 l 672 613 b 515 810 697 733 636 810 b 317 626 410 810 339 749 l 276 396 b 433 176 254 267 294 176 z "},"®":{"ha":601,"x_min":0,"x_max":0,"o":"m 342 531 b 597 743 474 531 572 597 l 600 753 b 394 999 625 897 529 999 b 140 785 261 999 165 924 l 139 776 b 342 531 114 633 204 531 z m 346 569 b 178 774 228 569 157 653 l 179 778 b 392 961 200 900 275 961 b 560 756 511 961 583 878 l 560 750 b 346 569 538 626 461 569 z m 390 856 b 438 817 428 856 442 843 b 371 772 432 788 413 772 l 318 772 l 333 856 z m 365 740 b 410 697 407 740 415 728 b 403 660 410 696 403 663 b 404 647 401 654 401 650 l 443 647 b 442 660 442 650 440 654 l 449 697 b 418 756 454 733 444 750 b 475 815 450 764 469 782 b 396 889 482 857 461 889 l 300 889 l 258 647 l 296 647 l 313 740 z "},"℗":{"ha":901,"x_min":0,"x_max":0,"o":"m 408 -14 b 821 361 633 -14 774 96 l 863 596 b 532 994 908 858 740 994 b 115 614 317 994 161 876 l 75 385 b 408 -14 28 113 189 -14 z m 414 40 b 128 375 224 40 88 149 l 169 613 b 528 942 208 840 340 942 b 810 606 707 942 849 826 l 767 363 b 414 40 726 139 611 40 z m 525 751 b 618 639 608 751 631 710 l 599 535 b 467 425 586 460 544 425 l 374 425 l 431 751 z m 463 375 b 651 529 574 375 635 428 l 671 639 b 533 800 689 739 649 800 l 386 800 l 278 183 l 331 183 l 364 375 z "},"™":{"ha":690,"x_min":0,"x_max":0,"o":"m 356 942 l 363 983 l 140 983 l 133 942 l 219 942 l 153 561 l 197 561 l 264 942 z m 435 818 l 446 926 l 450 886 l 503 672 l 517 672 l 646 888 l 665 928 l 638 818 l 592 561 l 635 561 l 710 983 l 665 983 l 522 743 l 464 983 l 421 983 l 347 561 l 389 561 z "},"℠":{"ha":715,"x_min":0,"x_max":0,"o":"m 464 818 l 475 926 l 479 886 l 532 672 l 546 672 l 675 888 l 694 928 l 667 818 l 621 561 l 664 561 l 739 983 l 694 983 l 551 743 l 493 983 l 450 983 l 376 561 l 418 561 z m 194 554 b 321 665 272 554 310 603 b 244 794 333 740 288 772 b 175 888 204 814 167 833 b 251 951 183 928 210 951 b 307 886 294 951 315 925 l 301 853 l 346 853 l 351 888 b 254 989 363 950 325 989 b 132 890 188 989 143 953 b 207 765 119 819 163 788 b 278 668 249 746 288 724 b 197 594 271 624 246 594 b 132 672 143 594 125 628 l 138 707 l 93 707 l 86 671 b 194 554 74 601 111 554 z "},"€":{"ha":724,"x_min":0,"x_max":0,"o":"m 651 290 l 654 310 l 585 310 l 582 294 b 363 50 553 126 494 50 b 188 315 211 50 158 144 l 196 363 l 407 363 l 436 415 l 206 415 l 235 574 l 517 574 l 547 628 l 244 628 l 254 683 b 481 933 286 865 357 933 b 653 688 626 933 682 843 l 653 683 l 722 683 l 724 685 b 488 994 757 879 664 994 b 186 688 325 994 225 906 l 175 628 l 78 628 l 69 574 l 167 574 l 138 415 l 42 415 l 32 363 l 129 363 l 121 317 b 356 -14 85 119 151 -14 b 651 290 538 -14 617 88 z "},"$":{"ha":649,"x_min":0,"x_max":0,"o":"m 261 -171 l 289 -14 b 556 217 451 -14 531 74 l 560 239 b 378 526 585 401 479 467 b 208 763 282 582 188 636 l 213 783 b 397 936 229 885 301 936 b 569 746 538 936 590 857 l 558 679 l 625 679 l 638 749 b 467 989 657 868 601 965 l 496 1156 l 435 1156 l 407 994 l 400 994 b 146 789 271 994 168 921 l 143 768 b 319 486 115 610 219 544 b 493 244 417 429 513 375 l 490 222 b 283 49 472 119 417 49 b 107 263 149 49 82 121 l 121 339 l 53 339 l 39 267 b 226 -10 8 108 79 10 l 199 -171 z "},"¢":{"ha":640,"x_min":0,"x_max":0,"o":"m 540 221 l 553 279 l 483 279 l 474 232 b 286 49 453 113 400 49 b 122 281 140 49 99 146 l 171 554 b 371 743 194 678 263 743 b 526 532 503 743 553 669 l 521 499 l 590 499 l 594 521 b 436 796 622 676 565 774 l 468 983 l 406 983 l 374 801 b 104 558 229 801 133 715 l 58 293 b 231 -10 31 132 72 11 l 194 -214 l 258 -214 l 293 -12 b 540 221 442 -8 514 72 z "},"£":{"ha":739,"x_min":0,"x_max":0,"o":"m 453 -17 b 646 197 571 -17 617 40 l 657 261 l 588 261 l 579 208 b 453 46 557 83 528 46 b 286 121 392 46 339 83 b 314 208 299 147 308 176 b 315 417 326 281 324 350 l 486 417 l 496 472 l 308 472 b 290 799 292 579 269 688 b 456 947 307 897 364 947 b 576 789 549 947 596 892 l 569 749 l 638 749 l 644 785 b 458 1007 668 925 594 1007 b 222 803 333 1007 247 938 b 246 472 203 686 228 574 l 111 472 l 101 417 l 256 417 b 261 207 267 347 274 278 b 244 149 257 186 251 167 b 110 199 203 176 158 199 b -18 101 44 199 -6 163 b 93 -17 -29 38 1 -17 b 258 74 160 -17 217 18 b 453 -17 314 31 375 -17 z m 101 33 b 38 93 53 33 32 58 b 110 150 44 128 67 150 b 219 103 147 150 183 129 b 101 33 190 60 150 33 z "},"ƒ":{"ha":414,"x_min":0,"x_max":0,"o":"m 178 79 l 250 490 l 399 490 l 410 550 l 261 550 l 314 849 b 461 1008 338 983 364 1008 l 490 1008 l 501 1067 l 467 1067 b 250 853 332 1067 279 1021 l 197 550 l 61 550 l 50 490 l 186 490 l 115 86 b -31 -68 92 -44 65 -68 l -64 -68 l -75 -131 l -36 -131 b 178 79 104 -131 149 -89 z "},"¥":{"ha":606,"x_min":0,"x_max":0,"o":"m 478 161 l 488 215 l 300 215 l 321 338 l 510 338 l 519 393 l 332 393 l 676 983 l 603 983 l 322 485 l 306 440 l 306 485 l 208 983 l 139 983 l 264 393 l 89 393 l 79 338 l 256 338 l 235 215 l 58 215 l 49 161 l 225 161 l 197 0 l 263 0 l 290 161 z "},"₡":{"ha":718,"x_min":0,"x_max":0,"o":"m 133 315 l 200 683 b 442 936 232 864 318 935 l 163 115 b 133 315 129 161 118 228 z m 276 51 b 197 82 244 56 218 67 l 488 933 b 568 906 518 929 546 919 z m 201 -161 l 249 -161 l 299 -14 l 319 -14 b 631 290 501 -14 594 88 l 640 349 l 575 349 l 565 293 b 326 47 535 125 461 47 l 321 47 l 603 875 b 635 689 638 832 650 769 l 621 607 l 686 607 l 700 688 b 625 942 721 803 690 890 l 699 1140 l 653 1140 l 589 964 b 506 990 564 978 536 986 l 558 1140 l 513 1140 l 461 994 l 451 994 b 136 688 289 994 175 906 l 69 317 b 136 43 49 196 69 100 l 61 -161 l 108 -161 l 174 18 b 254 -8 196 6 224 -4 z "},"₢":{"ha":710,"x_min":0,"x_max":0,"o":"m 619 290 l 628 344 l 558 344 l 549 293 b 333 50 521 129 460 54 l 376 299 b 556 485 401 438 436 485 l 593 485 l 606 550 l 575 550 b 397 439 485 550 431 513 l 410 549 l 360 549 l 272 54 b 143 315 156 74 117 164 l 208 683 b 442 933 242 865 317 933 b 621 689 590 933 649 844 l 614 657 l 685 657 l 690 688 b 449 994 725 882 628 994 b 140 688 285 994 179 906 l 74 317 b 317 -14 39 119 107 -14 b 619 290 499 -14 583 88 z "},"₣":{"ha":569,"x_min":0,"x_max":0,"o":"m 464 311 l 474 374 l 169 374 l 199 539 l 503 539 l 514 600 l 210 600 l 267 922 l 618 922 l 628 983 l 211 983 l 38 0 l 104 0 l 158 311 z "},"₤":{"ha":744,"x_min":0,"x_max":0,"o":"m 453 -17 b 646 197 571 -17 617 40 l 657 261 l 588 261 l 579 208 b 453 46 557 83 528 46 b 289 118 393 46 342 81 b 315 201 301 143 310 171 b 322 349 325 251 326 300 l 478 349 l 486 399 l 318 399 b 303 507 314 435 308 471 l 506 507 l 514 557 l 294 557 b 286 801 282 640 271 722 b 450 947 303 900 357 947 b 574 792 539 947 592 890 l 564 742 l 632 743 l 640 786 b 456 1007 665 919 586 1007 b 219 807 328 1007 243 942 b 231 557 204 722 215 640 l 111 557 l 101 507 l 240 507 b 261 399 249 471 256 435 l 83 399 l 74 349 l 268 349 b 265 204 274 300 274 253 b 249 146 261 183 256 164 b 110 199 206 175 160 199 b -18 101 44 199 -6 163 b 93 -17 -29 38 1 -17 b 261 71 160 -17 219 17 b 453 -17 317 28 376 -17 z m 101 33 b 38 93 53 33 32 58 b 110 150 44 128 67 150 b 224 100 149 150 185 128 b 101 33 193 58 150 33 z "},"₦":{"ha":786,"x_min":0,"x_max":0,"o":"m 251 753 l 271 899 l 282 829 l 347 611 l 226 611 z m 394 450 l 199 450 l 218 561 l 361 561 z m 610 450 l 457 450 l 424 561 l 629 561 z m 528 0 l 593 0 l 663 400 l 775 400 l 783 450 l 672 450 l 692 561 l 803 561 l 811 611 l 700 611 l 765 983 l 703 983 l 638 611 l 408 611 l 297 983 l 231 983 l 165 611 l 53 611 l 43 561 l 156 561 l 136 450 l 25 450 l 15 400 l 128 400 l 57 0 l 119 0 l 189 400 l 410 400 z m 539 176 l 472 400 l 600 400 l 574 246 l 553 90 z "},"₧":{"ha":1528,"x_min":0,"x_max":0,"o":"m 410 924 b 569 722 547 924 590 840 l 544 583 b 324 382 522 454 458 382 l 171 382 l 267 924 z m 318 322 b 608 564 496 321 582 411 l 635 715 b 636 728 636 719 636 724 l 776 728 l 699 290 b 940 0 664 88 726 0 l 1167 0 b 1438 192 1325 0 1414 57 l 1438 196 b 1265 433 1464 339 1363 389 b 1106 619 1174 474 1086 513 l 1106 622 b 1272 746 1119 699 1178 746 b 1424 590 1383 746 1440 688 l 1415 543 l 1481 543 l 1488 585 b 1276 804 1511 721 1425 804 b 1042 626 1147 804 1063 740 l 1040 622 b 1208 390 1017 482 1113 435 b 1372 197 1300 347 1392 310 l 1372 194 b 1168 61 1354 101 1288 61 l 950 61 b 763 294 782 61 733 124 l 839 728 l 996 728 l 1007 789 l 850 789 l 885 983 l 836 983 b 804 844 829 954 810 860 b 749 789 792 797 786 792 b 640 785 743 786 667 785 b 422 983 639 904 568 983 l 211 983 l 38 0 l 104 0 l 161 322 z "},"₨":{"ha":1258,"x_min":0,"x_max":0,"o":"m 883 -15 b 1161 193 1040 -15 1138 54 l 1161 196 b 990 432 1188 339 1088 389 b 832 619 900 475 813 511 l 832 622 b 999 746 846 699 904 746 b 1150 590 1110 746 1167 688 l 1142 543 l 1207 543 l 1214 585 b 1003 804 1238 721 1151 804 b 768 626 874 804 789 740 l 767 622 b 936 389 742 481 840 433 b 1096 197 1028 347 1115 307 l 1096 194 b 890 46 1078 97 1013 46 l 865 46 b 644 224 743 46 688 92 l 617 307 b 467 461 588 401 542 444 b 643 653 568 483 622 544 l 657 729 b 447 983 686 885 618 983 l 211 983 l 38 0 l 104 0 l 181 432 l 339 432 b 558 272 456 432 524 393 l 585 189 b 858 -15 631 43 699 -15 z m 438 924 b 592 738 571 924 614 854 l 578 668 b 357 490 556 546 489 490 l 190 490 l 267 924 z "},"₩":{"ha":1001,"x_min":0,"x_max":0,"o":"m 564 825 l 588 908 l 582 825 l 592 614 l 476 614 z m 357 453 l 229 453 l 233 564 l 403 564 z m 600 453 l 410 453 l 456 564 l 594 564 z m 782 453 l 649 453 l 644 564 l 821 564 z m 222 185 l 228 404 l 336 404 l 243 179 l 208 69 z m 621 0 l 681 0 l 825 404 l 989 404 l 999 453 l 842 453 l 882 564 l 1018 564 l 1026 614 l 899 614 l 1031 983 l 968 983 l 839 614 l 642 614 l 624 983 l 578 983 l 424 614 l 235 614 l 244 983 l 182 983 l 174 614 l 53 614 l 44 564 l 172 564 l 169 453 l 25 453 l 17 404 l 169 404 l 160 0 l 222 0 l 390 404 l 601 404 z m 663 179 l 651 404 l 765 404 l 688 183 l 658 71 z "},"₪":{"ha":896,"x_min":0,"x_max":0,"o":"m 422 925 b 582 710 569 925 608 860 l 493 211 b 571 290 544 211 560 229 l 646 713 b 426 983 678 889 608 983 l 211 983 l 38 0 l 101 0 l 264 925 z m 488 0 b 776 276 663 0 744 99 l 903 989 l 838 989 l 713 279 b 492 60 688 133 617 60 l 319 60 b 432 696 336 154 431 693 b 382 776 443 763 436 776 l 246 0 z "},"₮":{"ha":546,"x_min":0,"x_max":0,"o":"m 467 449 l 476 499 l 313 433 l 335 563 l 499 628 l 507 678 l 343 614 l 397 921 l 603 921 l 614 983 l 142 983 l 132 921 l 331 921 l 272 585 l 117 524 l 108 472 l 263 533 l 240 406 l 85 343 l 76 293 l 232 356 l 169 0 l 236 0 l 303 383 z "},"₱":{"ha":699,"x_min":0,"x_max":0,"o":"m 413 924 b 578 753 540 924 586 857 l 264 753 l 294 924 z m 547 571 l 232 571 l 256 704 l 571 704 z m 319 344 l 193 344 l 224 522 l 539 522 b 319 344 513 408 449 344 z m 314 285 b 603 522 490 283 576 372 l 701 522 l 710 571 l 613 571 l 636 704 l 735 704 l 743 753 l 642 753 b 424 983 654 889 583 983 l 239 983 l 199 753 l 89 753 l 81 704 l 190 704 l 167 571 l 57 571 l 49 522 l 158 522 l 67 0 l 132 0 l 182 285 z "},"฿":{"ha":706,"x_min":0,"x_max":0,"o":"m 363 538 l 199 538 l 267 925 l 431 925 z m 624 754 l 614 700 b 417 538 594 585 538 538 l 486 925 b 624 754 606 918 640 850 z m 114 61 l 188 478 l 351 478 l 279 61 z m 556 299 l 543 226 b 338 61 522 115 478 61 l 333 61 l 407 478 b 556 299 538 478 575 408 z m 333 0 b 610 210 518 0 583 63 l 622 288 b 515 507 642 400 615 478 b 679 688 613 526 661 581 l 690 747 b 496 983 713 879 664 976 l 519 1114 l 464 1114 l 440 983 l 211 983 l 38 0 l 268 0 l 243 -140 l 297 -140 l 322 0 z "},"#":{"ha":910,"x_min":0,"x_max":0,"o":"m 540 394 l 332 394 l 407 625 l 615 625 z m 411 0 l 475 0 l 585 335 l 797 335 l 807 394 l 604 394 l 679 625 l 888 625 l 897 685 l 699 685 l 796 983 l 733 983 l 636 685 l 426 685 l 524 983 l 461 983 l 364 685 l 156 685 l 146 625 l 343 625 l 268 394 l 64 394 l 54 335 l 249 335 l 139 0 l 204 0 l 313 335 l 521 335 z "},"⁰":{"ha":385,"x_min":0,"x_max":0,"o":"m 224 496 b 375 644 314 496 357 546 l 408 833 b 286 992 426 936 371 992 b 133 840 207 992 153 949 l 101 661 b 224 496 85 563 122 496 z m 226 546 b 154 663 163 546 142 590 l 185 835 b 283 944 200 915 231 944 b 356 832 344 944 368 903 l 322 651 b 226 546 310 576 282 546 z "},"¹":{"ha":274,"x_min":0,"x_max":0,"o":"m 260 501 l 268 550 l 192 550 l 268 985 l 225 985 b 140 908 210 935 188 910 l 132 864 b 203 892 158 865 186 875 l 143 550 l 64 550 l 56 501 z "},"²":{"ha":360,"x_min":0,"x_max":0,"o":"m 336 501 l 344 551 l 135 551 b 261 693 153 614 207 653 b 392 854 319 736 379 781 l 393 861 b 278 990 407 932 372 990 b 138 867 200 990 151 942 l 125 799 l 179 799 l 190 865 b 276 944 200 918 226 944 b 342 867 329 944 350 911 l 340 858 b 211 715 331 800 271 761 b 75 536 151 671 90 619 l 69 501 z "},"³":{"ha":369,"x_min":0,"x_max":0,"o":"m 211 494 b 358 622 303 494 343 540 l 361 635 b 313 747 371 689 358 731 b 393 858 365 761 385 804 l 394 867 b 279 990 410 940 364 990 b 139 878 197 990 151 946 b 131 825 139 878 131 826 l 183 825 l 192 874 b 276 946 200 917 224 946 b 344 867 333 946 353 913 l 343 856 b 251 772 333 804 314 772 l 210 772 l 200 725 l 243 725 b 308 638 300 725 318 690 l 307 625 b 215 542 296 568 272 542 b 142 621 157 542 132 568 l 151 674 l 97 674 l 88 624 b 211 494 74 543 118 494 z "},"⁴":{"ha":360,"x_min":0,"x_max":0,"o":"m 311 894 l 319 910 l 311 881 l 272 656 l 132 656 z m 369 611 l 378 656 l 318 656 l 376 985 l 328 985 l 78 651 l 71 611 l 265 611 l 246 501 l 292 501 l 311 611 z "},"⁵":{"ha":372,"x_min":0,"x_max":0,"o":"m 211 494 b 363 628 300 494 347 539 b 376 701 363 628 376 696 b 279 831 392 782 351 831 b 178 778 233 831 203 811 b 222 936 189 818 210 892 l 346 936 b 406 982 388 936 400 950 l 406 985 l 189 985 l 119 732 l 160 719 b 169 732 161 719 169 732 b 264 786 193 765 215 786 b 325 699 315 786 336 757 b 313 628 325 696 313 628 b 217 542 303 569 271 542 b 149 629 156 542 140 575 l 154 656 l 101 656 l 96 632 b 211 494 82 550 115 494 z "},"⁶":{"ha":381,"x_min":0,"x_max":0,"o":"m 368 625 l 374 665 b 272 799 389 749 347 799 b 164 733 221 799 186 774 l 182 833 b 282 946 196 908 218 946 b 349 867 338 946 358 918 l 346 842 l 397 842 l 401 864 b 288 990 415 942 367 990 b 132 833 196 990 150 939 l 100 653 b 217 494 83 556 118 494 b 368 625 308 494 354 543 z m 221 542 b 149 646 163 542 136 575 l 154 678 b 256 757 168 721 201 757 b 325 669 311 757 333 725 l 319 632 b 221 542 310 574 283 542 z "},"⁷":{"ha":314,"x_min":0,"x_max":0,"o":"m 157 501 b 378 943 207 657 293 819 l 385 985 l 135 985 l 126 935 l 324 935 b 101 501 247 824 154 660 z "},"⁸":{"ha":374,"x_min":0,"x_max":0,"o":"m 210 494 b 367 611 300 494 351 528 l 371 636 b 314 749 381 693 353 732 b 400 847 356 758 386 786 l 403 867 b 286 990 417 946 371 990 b 144 874 206 990 158 953 l 142 856 b 186 753 132 801 151 767 b 96 651 143 742 106 710 l 92 629 b 210 494 75 544 115 494 z m 250 771 b 192 851 201 771 185 803 l 194 869 b 282 947 203 919 228 947 b 353 863 338 947 363 919 l 350 849 b 263 771 340 797 311 771 z m 218 542 b 142 626 158 542 132 572 l 146 650 b 239 729 156 700 189 729 l 251 729 b 321 642 301 729 331 697 l 317 618 b 218 542 307 563 275 542 z "},"⁹":{"ha":376,"x_min":0,"x_max":0,"o":"m 244 729 b 175 815 190 729 168 760 l 181 851 b 276 944 190 907 217 944 b 351 833 339 944 364 907 l 346 806 b 244 729 332 763 299 729 z m 213 493 b 368 650 307 493 350 544 l 400 826 b 279 990 418 933 371 990 b 133 860 192 990 146 935 l 126 819 b 228 688 113 738 153 688 b 336 753 278 688 314 713 l 318 650 b 218 539 306 575 282 539 b 151 617 163 539 143 565 l 156 644 l 103 644 l 99 618 b 213 493 85 540 129 493 z "},"⁺":{"ha":372,"x_min":0,"x_max":0,"o":"m 365 722 l 374 767 l 271 767 l 289 865 l 243 865 l 225 767 l 125 767 l 118 722 l 218 722 l 200 621 l 246 621 l 264 722 z "},"⁻":{"ha":372,"x_min":0,"x_max":0,"o":"m 118 721 l 364 721 l 372 768 l 126 768 z "},"⁼":{"ha":372,"x_min":0,"x_max":0,"o":"m 135 782 l 372 782 l 379 828 l 142 828 z m 111 649 l 349 649 l 357 694 l 119 694 z "},"⁽":{"ha":260,"x_min":0,"x_max":0,"o":"m 238 386 l 247 438 b 157 621 168 453 136 496 l 200 858 b 354 1046 222 986 272 1040 l 363 1096 b 151 872 250 1089 179 1026 l 110 629 b 238 386 82 472 131 401 z "},"⁾":{"ha":260,"x_min":0,"x_max":0,"o":"m 21 385 b 231 608 132 392 204 454 l 274 853 b 144 1096 301 1008 251 1079 l 136 1044 b 225 860 214 1029 246 986 l 182 622 b 29 436 161 494 110 442 z "},"₀":{"ha":385,"x_min":0,"x_max":0,"o":"m 136 -7 b 288 142 226 -7 269 43 l 321 331 b 199 489 339 433 283 489 b 46 338 119 489 65 446 l 14 158 b 136 -7 -3 60 35 -7 z m 139 43 b 67 160 75 43 54 88 l 97 332 b 196 442 113 413 143 442 b 268 329 257 442 281 400 l 235 149 b 139 43 222 74 194 43 z "},"₁":{"ha":274,"x_min":0,"x_max":0,"o":"m 172 0 l 181 49 l 104 49 l 181 483 l 138 483 b 53 407 122 433 100 408 l 44 363 b 115 390 71 364 99 374 l 56 49 l -24 49 l -32 0 z "},"₂":{"ha":360,"x_min":0,"x_max":0,"o":"m 249 0 l 257 50 l 47 50 b 174 192 65 113 119 151 b 304 353 232 235 292 279 l 306 360 b 190 489 319 431 285 489 b 50 365 113 489 64 440 l 38 297 l 92 297 l 103 364 b 189 443 113 417 139 443 b 254 365 242 443 263 410 l 253 357 b 124 214 243 299 183 260 b -12 35 64 169 3 118 l -18 0 z "},"₃":{"ha":369,"x_min":0,"x_max":0,"o":"m 124 -7 b 271 121 215 -7 256 39 l 274 133 b 225 246 283 188 271 229 b 306 357 278 260 297 303 l 307 365 b 192 489 322 439 276 489 b 51 376 110 489 64 444 b 43 324 51 376 43 325 l 96 324 l 104 372 b 189 444 113 415 136 444 b 257 365 246 444 265 411 l 256 354 b 164 271 246 303 226 271 l 122 271 l 113 224 l 156 224 b 221 136 213 224 231 189 l 219 124 b 128 40 208 67 185 40 b 54 119 69 40 44 67 l 64 172 l 10 172 l 0 122 b 124 -7 -14 42 31 -7 z "},"₄":{"ha":360,"x_min":0,"x_max":0,"o":"m 224 393 l 232 408 l 224 379 l 185 154 l 44 154 z m 282 110 l 290 154 l 231 154 l 289 483 l 240 483 l -10 150 l -17 110 l 178 110 l 158 0 l 204 0 l 224 110 z "},"₅":{"ha":372,"x_min":0,"x_max":0,"o":"m 124 -7 b 275 126 213 -7 260 38 b 289 200 275 126 289 194 b 192 329 304 281 264 329 b 90 276 146 329 115 310 b 135 435 101 317 122 390 l 258 435 b 318 481 300 435 313 449 l 318 483 l 101 483 l 32 231 l 72 218 b 82 231 74 218 82 231 b 176 285 106 264 128 285 b 238 197 228 285 249 256 b 225 126 238 194 225 126 b 129 40 215 68 183 40 b 61 128 68 40 53 74 l 67 154 l 14 154 l 8 131 b 124 -7 -6 49 28 -7 z "},"₆":{"ha":381,"x_min":0,"x_max":0,"o":"m 281 124 l 286 164 b 185 297 301 247 260 297 b 76 232 133 297 99 272 l 94 332 b 194 444 108 407 131 444 b 261 365 250 444 271 417 l 258 340 l 310 340 l 314 363 b 200 489 328 440 279 489 b 44 332 108 489 63 438 l 13 151 b 129 -7 -4 54 31 -7 b 281 124 221 -7 267 42 z m 133 40 b 61 144 75 40 49 74 l 67 176 b 168 256 81 219 114 256 b 238 168 224 256 246 224 l 232 131 b 133 40 222 72 196 40 z "},"₇":{"ha":314,"x_min":0,"x_max":0,"o":"m 69 0 b 290 442 119 156 206 318 l 297 483 l 47 483 l 39 433 l 236 433 b 14 0 160 322 67 158 z "},"₈":{"ha":372,"x_min":0,"x_max":0,"o":"m 121 -7 b 278 110 211 -7 263 26 l 282 135 b 225 247 292 192 264 231 b 311 346 267 257 297 285 l 314 365 b 197 489 328 444 282 489 b 56 372 117 489 69 451 l 53 354 b 97 251 43 300 63 265 b 7 150 54 240 17 208 l 3 128 b 121 -7 -14 43 26 -7 z m 161 269 b 103 350 113 269 96 301 l 106 368 b 193 446 114 418 139 446 b 264 361 249 446 274 418 l 261 347 b 174 269 251 296 222 269 z m 129 40 b 53 125 69 40 43 71 l 57 149 b 150 228 67 199 100 228 l 163 228 b 232 140 213 228 242 196 l 228 117 b 129 40 218 61 186 40 z "},"₉":{"ha":376,"x_min":0,"x_max":0,"o":"m 157 228 b 88 314 103 228 81 258 l 93 350 b 189 443 103 406 129 443 b 264 332 251 443 276 406 l 258 304 b 157 228 244 261 211 228 z m 125 -8 b 281 149 219 -8 263 43 l 313 325 b 192 489 331 432 283 489 b 46 358 104 489 58 433 l 39 318 b 140 186 25 236 65 186 b 249 251 190 186 226 211 l 231 149 b 131 38 218 74 194 38 b 64 115 75 38 56 64 l 68 143 l 15 143 l 11 117 b 125 -8 -3 39 42 -8 z "},"₊":{"ha":372,"x_min":0,"x_max":0,"o":"m 278 219 l 286 264 l 183 264 l 201 363 l 156 363 l 138 264 l 38 264 l 31 219 l 131 219 l 113 118 l 158 118 l 176 219 z "},"₋":{"ha":372,"x_min":0,"x_max":0,"o":"m 31 218 l 276 218 l 285 265 l 39 265 z "},"₌":{"ha":372,"x_min":0,"x_max":0,"o":"m 47 285 l 285 285 l 292 331 l 54 331 z m 24 151 l 261 151 l 269 197 l 32 197 z "},"₍":{"ha":260,"x_min":0,"x_max":0,"o":"m 147 -131 l 157 -79 b 67 104 78 -64 46 -21 l 110 342 b 264 529 132 469 182 524 l 272 579 b 61 356 160 572 89 510 l 19 113 b 147 -131 -8 -44 40 -115 z "},"₎":{"ha":260,"x_min":0,"x_max":0,"o":"m -69 -132 b 140 92 42 -125 114 -62 l 183 336 b 54 579 211 492 161 563 l 46 528 b 135 343 124 513 156 469 l 92 106 b -61 -81 71 -22 19 -75 z "},"⁄":{"ha":806,"x_min":0,"x_max":0,"o":"m 486 553 l 842 968 l 783 1010 l 464 568 z m 64 -21 l 393 440 l 372 457 l 4 25 z "},"⅟":{"ha":806,"x_min":0,"x_max":0,"o":"m 486 553 l 842 968 l 783 1010 l 464 568 z m 64 -21 l 393 440 l 372 457 l 4 25 z m 311 501 l 319 550 l 243 550 l 319 985 l 276 985 b 192 908 261 935 239 910 l 183 864 b 254 892 210 865 238 875 l 194 550 l 115 550 l 107 501 z "},"½":{"ha":806,"x_min":0,"x_max":0,"o":"m 486 553 l 842 968 l 783 1010 l 464 568 z m 64 -21 l 393 440 l 372 457 l 4 25 z m 311 501 l 319 550 l 243 550 l 319 985 l 276 985 b 192 908 261 935 239 910 l 183 864 b 254 892 210 865 238 875 l 194 550 l 115 550 l 107 501 z m 674 0 l 682 50 l 472 50 b 599 192 490 113 544 151 b 729 353 657 235 717 279 l 731 360 b 615 489 744 431 710 489 b 475 365 538 489 489 440 l 463 297 l 517 297 l 528 364 b 614 443 538 417 564 443 b 679 365 667 443 688 410 l 678 357 b 549 214 668 299 608 260 b 413 35 489 169 428 118 l 407 0 z "},"⅓":{"ha":806,"x_min":0,"x_max":0,"o":"m 486 553 l 842 968 l 783 1010 l 464 568 z m 64 -21 l 393 440 l 372 457 l 4 25 z m 311 501 l 319 550 l 243 550 l 319 985 l 276 985 b 192 908 261 935 239 910 l 183 864 b 254 892 210 865 238 875 l 194 550 l 115 550 l 107 501 z m 542 -7 b 689 121 633 -7 674 39 l 692 133 b 643 246 701 188 689 229 b 724 357 696 260 715 303 l 725 365 b 610 489 740 439 694 489 b 469 376 528 489 482 444 b 461 324 469 376 461 325 l 514 324 l 522 372 b 607 444 531 415 554 444 b 675 365 664 444 683 411 l 674 354 b 582 271 664 303 644 271 l 540 271 l 531 224 l 574 224 b 639 136 631 224 649 189 l 638 124 b 546 40 626 67 603 40 b 472 119 488 40 463 67 l 482 172 l 428 172 l 418 122 b 542 -7 404 42 449 -7 z "},"⅔":{"ha":806,"x_min":0,"x_max":0,"o":"m 486 553 l 842 968 l 783 1010 l 464 568 z m 64 -21 l 393 440 l 372 457 l 4 25 z m 343 501 l 351 551 l 142 551 b 268 693 160 614 214 653 b 399 854 326 736 386 781 l 400 861 b 285 990 414 932 379 990 b 144 867 207 990 158 942 l 132 799 l 186 799 l 197 865 b 283 944 207 918 233 944 b 349 867 336 944 357 911 l 347 858 b 218 715 338 800 278 761 b 82 536 158 671 97 619 l 76 501 z m 542 -7 b 689 121 633 -7 674 39 l 692 133 b 643 246 701 188 689 229 b 724 357 696 260 715 303 l 725 365 b 610 489 740 439 694 489 b 469 376 528 489 482 444 b 461 324 469 376 461 325 l 514 324 l 522 372 b 607 444 531 415 554 444 b 675 365 664 444 683 411 l 674 354 b 582 271 664 303 644 271 l 540 271 l 531 224 l 574 224 b 639 136 631 224 649 189 l 638 124 b 546 40 626 67 603 40 b 472 119 488 40 463 67 l 482 172 l 428 172 l 418 122 b 542 -7 404 42 449 -7 z "},"¼":{"ha":806,"x_min":0,"x_max":0,"o":"m 486 553 l 842 968 l 783 1010 l 464 568 z m 64 -21 l 393 440 l 372 457 l 4 25 z m 606 393 l 614 408 l 606 379 l 567 154 l 426 154 z m 664 110 l 672 154 l 613 154 l 671 483 l 622 483 l 372 150 l 365 110 l 560 110 l 540 0 l 586 0 l 606 110 z m 311 501 l 319 550 l 243 550 l 319 985 l 276 985 b 192 908 261 935 239 910 l 183 864 b 254 892 210 865 238 875 l 194 550 l 115 550 l 107 501 z "},"¾":{"ha":806,"x_min":0,"x_max":0,"o":"m 486 553 l 842 968 l 783 1010 l 464 568 z m 64 -21 l 393 440 l 372 457 l 4 25 z m 606 393 l 614 408 l 606 379 l 567 154 l 426 154 z m 664 110 l 672 154 l 613 154 l 671 483 l 622 483 l 372 150 l 365 110 l 560 110 l 540 0 l 586 0 l 606 110 z m 219 494 b 367 622 311 494 351 540 l 369 635 b 321 747 379 689 367 731 b 401 858 374 761 393 804 l 403 867 b 288 990 418 940 372 990 b 147 878 206 990 160 946 b 139 825 147 878 139 826 l 192 825 l 200 874 b 285 946 208 917 232 946 b 353 867 342 946 361 913 l 351 856 b 260 772 342 804 322 772 l 218 772 l 208 725 l 251 725 b 317 638 308 725 326 690 l 315 625 b 224 542 304 568 281 542 b 150 621 165 542 140 568 l 160 674 l 106 674 l 96 624 b 219 494 82 543 126 494 z "},"⅕":{"ha":806,"x_min":0,"x_max":0,"o":"m 486 553 l 842 968 l 783 1010 l 464 568 z m 64 -21 l 393 440 l 372 457 l 4 25 z m 542 -7 b 693 126 631 -7 678 38 b 707 200 693 126 707 194 b 610 329 722 281 682 329 b 508 276 564 329 533 310 b 553 435 519 317 540 390 l 676 435 b 736 481 718 435 731 449 l 736 483 l 519 483 l 450 231 l 490 218 b 500 231 492 218 500 231 b 594 285 524 264 546 285 b 656 197 646 285 667 256 b 643 126 656 194 643 126 b 547 40 633 68 601 40 b 479 128 486 40 471 74 l 485 154 l 432 154 l 426 131 b 542 -7 413 49 446 -7 z m 311 501 l 319 550 l 243 550 l 319 985 l 276 985 b 192 908 261 935 239 910 l 183 864 b 254 892 210 865 238 875 l 194 550 l 115 550 l 107 501 z "},"⅖":{"ha":806,"x_min":0,"x_max":0,"o":"m 486 553 l 842 968 l 783 1010 l 464 568 z m 64 -21 l 393 440 l 372 457 l 4 25 z m 542 -7 b 693 126 631 -7 678 38 b 707 200 693 126 707 194 b 610 329 722 281 682 329 b 508 276 564 329 533 310 b 553 435 519 317 540 390 l 676 435 b 736 481 718 435 731 449 l 736 483 l 519 483 l 450 231 l 490 218 b 500 231 492 218 500 231 b 594 285 524 264 546 285 b 656 197 646 285 667 256 b 643 126 656 194 643 126 b 547 40 633 68 601 40 b 479 128 486 40 471 74 l 485 154 l 432 154 l 426 131 b 542 -7 413 49 446 -7 z m 343 501 l 351 551 l 142 551 b 268 693 160 614 214 653 b 399 854 326 736 386 781 l 400 861 b 285 990 414 932 379 990 b 144 867 207 990 158 942 l 132 799 l 186 799 l 197 865 b 283 944 207 918 233 944 b 349 867 336 944 357 911 l 347 858 b 218 715 338 800 278 761 b 82 536 158 671 97 619 l 76 501 z "},"⅗":{"ha":806,"x_min":0,"x_max":0,"o":"m 486 553 l 842 968 l 783 1010 l 464 568 z m 64 -21 l 393 440 l 372 457 l 4 25 z m 542 -7 b 693 126 631 -7 678 38 b 707 200 693 126 707 194 b 610 329 722 281 682 329 b 508 276 564 329 533 310 b 553 435 519 317 540 390 l 676 435 b 736 481 718 435 731 449 l 736 483 l 519 483 l 450 231 l 490 218 b 500 231 492 218 500 231 b 594 285 524 264 546 285 b 656 197 646 285 667 256 b 643 126 656 194 643 126 b 547 40 633 68 601 40 b 479 128 486 40 471 74 l 485 154 l 432 154 l 426 131 b 542 -7 413 49 446 -7 z m 219 494 b 367 622 311 494 351 540 l 369 635 b 321 747 379 689 367 731 b 401 858 374 761 393 804 l 403 867 b 288 990 418 940 372 990 b 147 878 206 990 160 946 b 139 825 147 878 139 826 l 192 825 l 200 874 b 285 946 208 917 232 946 b 353 867 342 946 361 913 l 351 856 b 260 772 342 804 322 772 l 218 772 l 208 725 l 251 725 b 317 638 308 725 326 690 l 315 625 b 224 542 304 568 281 542 b 150 621 165 542 140 568 l 160 674 l 106 674 l 96 624 b 219 494 82 543 126 494 z "},"⅘":{"ha":806,"x_min":0,"x_max":0,"o":"m 486 553 l 842 968 l 783 1010 l 464 568 z m 64 -21 l 393 440 l 372 457 l 4 25 z m 542 -7 b 693 126 631 -7 678 38 b 707 200 693 126 707 194 b 610 329 722 281 682 329 b 508 276 564 329 533 310 b 553 435 519 317 540 390 l 676 435 b 736 481 718 435 731 449 l 736 483 l 519 483 l 450 231 l 490 218 b 500 231 492 218 500 231 b 594 285 524 264 546 285 b 656 197 646 285 667 256 b 643 126 656 194 643 126 b 547 40 633 68 601 40 b 479 128 486 40 471 74 l 485 154 l 432 154 l 426 131 b 542 -7 413 49 446 -7 z m 322 894 l 331 910 l 322 881 l 283 656 l 143 656 z m 381 611 l 389 656 l 329 656 l 388 985 l 339 985 l 89 651 l 82 611 l 276 611 l 257 501 l 303 501 l 322 611 z "},"⅙":{"ha":806,"x_min":0,"x_max":0,"o":"m 486 553 l 842 968 l 783 1010 l 464 568 z m 64 -21 l 393 440 l 372 457 l 4 25 z m 311 501 l 319 550 l 243 550 l 319 985 l 276 985 b 192 908 261 935 239 910 l 183 864 b 254 892 210 865 238 875 l 194 550 l 115 550 l 107 501 z m 692 124 l 697 164 b 596 297 713 247 671 297 b 488 232 544 297 510 272 l 506 332 b 606 444 519 407 542 444 b 672 365 661 444 682 417 l 669 340 l 721 340 l 725 363 b 611 489 739 440 690 489 b 456 332 519 489 474 438 l 424 151 b 540 -7 407 54 442 -7 b 692 124 632 -7 678 42 z m 544 40 b 472 144 486 40 460 74 l 478 176 b 579 256 492 219 525 256 b 649 168 635 256 657 224 l 643 131 b 544 40 633 72 607 40 z "},"⅚":{"ha":806,"x_min":0,"x_max":0,"o":"m 486 553 l 842 968 l 783 1010 l 464 568 z m 64 -21 l 393 440 l 372 457 l 4 25 z m 219 494 b 371 628 308 494 356 539 b 385 701 371 628 385 696 b 288 831 400 782 360 831 b 186 778 242 831 211 811 b 231 936 197 818 218 892 l 354 936 b 414 982 396 936 408 950 l 414 985 l 197 985 l 128 732 l 168 719 b 178 732 169 719 178 732 b 272 786 201 765 224 786 b 333 699 324 786 344 757 b 321 628 333 696 321 628 b 225 542 311 569 279 542 b 157 629 164 542 149 575 l 163 656 l 110 656 l 104 632 b 219 494 90 550 124 494 z m 692 124 l 697 164 b 596 297 713 247 671 297 b 488 232 544 297 510 272 l 506 332 b 606 444 519 407 542 444 b 672 365 661 444 682 417 l 669 340 l 721 340 l 725 363 b 611 489 739 440 690 489 b 456 332 519 489 474 438 l 424 151 b 540 -7 407 54 442 -7 b 692 124 632 -7 678 42 z m 544 40 b 472 144 486 40 460 74 l 478 176 b 579 256 492 219 525 256 b 649 168 635 256 657 224 l 643 131 b 544 40 633 72 607 40 z "},"⅛":{"ha":806,"x_min":0,"x_max":0,"o":"m 486 553 l 842 968 l 783 1010 l 464 568 z m 64 -21 l 393 440 l 372 457 l 4 25 z m 313 501 l 321 550 l 244 550 l 321 985 l 278 985 b 193 908 263 935 240 910 l 185 864 b 256 892 211 865 239 875 l 196 550 l 117 550 l 108 501 z m 540 -7 b 697 110 631 -7 682 26 l 701 135 b 644 247 711 192 683 231 b 731 346 686 257 717 285 l 733 365 b 617 489 747 444 701 489 b 475 372 536 489 489 451 l 472 354 b 517 251 463 300 482 265 b 426 150 474 240 436 208 l 422 128 b 540 -7 406 43 446 -7 z m 581 269 b 522 350 532 269 515 301 l 525 368 b 613 446 533 418 558 446 b 683 361 668 446 693 418 l 681 347 b 593 269 671 296 642 269 z m 549 40 b 472 125 489 40 463 71 l 476 149 b 569 228 486 199 519 228 l 582 228 b 651 140 632 228 661 196 l 647 117 b 549 40 638 61 606 40 z "},"⅜":{"ha":806,"x_min":0,"x_max":0,"o":"m 486 553 l 842 968 l 783 1010 l 464 568 z m 64 -21 l 393 440 l 372 457 l 4 25 z m 540 -7 b 697 110 631 -7 682 26 l 701 135 b 644 247 711 192 683 231 b 731 346 686 257 717 285 l 733 365 b 617 489 747 444 701 489 b 475 372 536 489 489 451 l 472 354 b 517 251 463 300 482 265 b 426 150 474 240 436 208 l 422 128 b 540 -7 406 43 446 -7 z m 581 269 b 522 350 532 269 515 301 l 525 368 b 613 446 533 418 558 446 b 683 361 668 446 693 418 l 681 347 b 593 269 671 296 642 269 z m 549 40 b 472 125 489 40 463 71 l 476 149 b 569 228 486 199 519 228 l 582 228 b 651 140 632 228 661 196 l 647 117 b 549 40 638 61 606 40 z m 219 494 b 367 622 311 494 351 540 l 369 635 b 321 747 379 689 367 731 b 401 858 374 761 393 804 l 403 867 b 288 990 418 940 372 990 b 147 878 206 990 160 946 b 139 825 147 878 139 826 l 192 825 l 200 874 b 285 946 208 917 232 946 b 353 867 342 946 361 913 l 351 856 b 260 772 342 804 322 772 l 218 772 l 208 725 l 251 725 b 317 638 308 725 326 690 l 315 625 b 224 542 304 568 281 542 b 150 621 165 542 140 568 l 160 674 l 106 674 l 96 624 b 219 494 82 543 126 494 z "},"⅝":{"ha":806,"x_min":0,"x_max":0,"o":"m 486 553 l 842 968 l 783 1010 l 464 568 z m 64 -21 l 393 440 l 372 457 l 4 25 z m 540 -7 b 697 110 631 -7 682 26 l 701 135 b 644 247 711 192 683 231 b 731 346 686 257 717 285 l 733 365 b 617 489 747 444 701 489 b 475 372 536 489 489 451 l 472 354 b 517 251 463 300 482 265 b 426 150 474 240 436 208 l 422 128 b 540 -7 406 43 446 -7 z m 581 269 b 522 350 532 269 515 301 l 525 368 b 613 446 533 418 558 446 b 683 361 668 446 693 418 l 681 347 b 593 269 671 296 642 269 z m 549 40 b 472 125 489 40 463 71 l 476 149 b 569 228 486 199 519 228 l 582 228 b 651 140 632 228 661 196 l 647 117 b 549 40 638 61 606 40 z m 219 494 b 371 628 308 494 356 539 b 385 701 371 628 385 696 b 288 831 400 782 360 831 b 186 778 242 831 211 811 b 231 936 197 818 218 892 l 354 936 b 414 982 396 936 408 950 l 414 985 l 197 985 l 128 732 l 168 719 b 178 732 169 719 178 732 b 272 786 201 765 224 786 b 333 699 324 786 344 757 b 321 628 333 696 321 628 b 225 542 311 569 279 542 b 157 629 164 542 149 575 l 163 656 l 110 656 l 104 632 b 219 494 90 550 124 494 z "},"⅞":{"ha":806,"x_min":0,"x_max":0,"o":"m 486 553 l 842 968 l 783 1010 l 464 568 z m 64 -21 l 393 440 l 372 457 l 4 25 z m 540 -7 b 697 110 631 -7 682 26 l 701 135 b 644 247 711 192 683 231 b 731 346 686 257 717 285 l 733 365 b 617 489 747 444 701 489 b 475 372 536 489 489 451 l 472 354 b 517 251 463 300 482 265 b 426 150 474 240 436 208 l 422 128 b 540 -7 406 43 446 -7 z m 581 269 b 522 350 532 269 515 301 l 525 368 b 613 446 533 418 558 446 b 683 361 668 446 693 418 l 681 347 b 593 269 671 296 642 269 z m 549 40 b 472 125 489 40 463 71 l 476 149 b 569 228 486 199 519 228 l 582 228 b 651 140 632 228 661 196 l 647 117 b 549 40 638 61 606 40 z m 244 501 b 465 943 294 657 381 819 l 472 985 l 222 985 l 214 935 l 411 935 b 189 501 335 824 242 660 z "},"%":{"ha":810,"x_min":0,"x_max":0,"o":"m 261 586 b 419 724 356 586 404 636 l 438 829 b 303 994 456 926 407 994 b 149 857 217 994 164 943 l 129 758 b 261 586 113 658 147 586 z m 17 0 l 89 0 l 828 983 l 758 983 z m 264 638 b 183 756 194 638 169 683 l 200 851 b 304 943 213 917 246 943 b 383 832 364 943 399 904 l 367 732 b 264 638 356 668 325 638 z m 538 -14 b 696 124 632 -14 681 36 l 715 231 b 581 396 733 328 685 396 b 425 258 494 396 440 344 l 406 158 b 538 -14 389 58 424 -14 z m 540 38 b 460 154 471 38 446 83 l 478 253 b 582 344 490 318 524 344 b 663 233 642 344 676 306 l 644 132 b 540 38 633 67 601 38 z "},"‰":{"ha":1203,"x_min":0,"x_max":0,"o":"m 261 586 b 419 724 356 586 404 636 l 438 829 b 303 994 456 926 407 994 b 149 857 217 994 164 943 l 129 758 b 261 586 113 658 147 586 z m 17 0 l 89 0 l 828 983 l 758 983 z m 264 638 b 183 756 194 638 169 683 l 200 851 b 304 943 213 917 246 943 b 383 832 364 943 399 904 l 367 732 b 264 638 356 668 325 638 z m 931 -14 b 1089 124 1025 -14 1074 36 l 1108 231 b 974 396 1126 328 1078 396 b 818 258 888 396 833 344 l 799 158 b 931 -14 782 58 817 -14 z m 538 -14 b 696 124 632 -14 681 36 l 715 231 b 581 396 733 328 685 396 b 425 258 494 396 440 344 l 406 158 b 538 -14 389 58 424 -14 z m 933 38 b 853 154 864 38 839 83 l 871 253 b 975 344 883 318 917 344 b 1056 233 1035 344 1069 306 l 1038 132 b 933 38 1026 67 994 38 z m 540 38 b 460 154 471 38 446 83 l 478 253 b 582 344 490 318 524 344 b 663 233 642 344 676 306 l 644 132 b 540 38 633 67 601 38 z "},"№":{"ha":1172,"x_min":0,"x_max":0,"o":"m 964 422 b 1157 596 1078 422 1138 485 l 1192 793 b 1028 1001 1214 917 1156 1001 b 838 829 924 1001 857 939 l 804 639 b 964 422 782 513 824 422 z m 967 479 b 864 635 876 479 847 544 l 896 822 b 1029 946 913 906 957 946 b 1132 797 1111 946 1150 892 l 1100 606 b 967 479 1085 525 1044 479 z m 233 753 l 249 899 l 260 819 l 507 0 l 565 0 l 738 983 l 674 983 l 544 244 l 529 97 l 514 185 l 271 983 l 211 983 l 38 0 l 101 0 z m 749 246 l 1085 246 l 1094 306 l 758 306 z "},"¤":{"ha":690,"x_min":0,"x_max":0,"o":"m 335 311 b 206 476 233 311 189 386 l 213 524 b 399 689 229 617 297 689 b 531 524 506 689 547 615 l 524 478 b 335 311 507 385 438 311 z m 332 254 b 472 293 386 254 433 268 l 546 193 l 594 235 l 519 336 b 582 472 551 372 572 419 l 590 519 b 571 661 600 574 593 622 l 688 772 l 649 813 l 535 704 b 406 746 503 731 460 746 b 267 707 351 746 306 732 l 190 811 l 142 769 l 217 665 b 153 529 185 629 163 582 l 144 481 b 163 343 135 428 142 381 l 39 229 l 78 186 l 197 299 b 332 254 231 271 275 254 z "},"←":{"ha":1182,"x_min":0,"x_max":0,"o":"m 1083 471 l 1083 538 l 194 538 b 418 813 272 590 374 696 l 340 813 b 79 521 297 700 174 572 l 79 486 b 342 196 172 438 297 307 l 422 196 b 193 471 374 311 272 418 z "},"→":{"ha":1182,"x_min":0,"x_max":0,"o":"m 833 196 b 1096 486 875 308 1001 436 l 1096 521 b 835 813 1003 571 879 701 l 757 813 b 978 539 803 700 901 593 l 92 539 l 92 471 l 982 471 b 754 196 903 418 800 313 z "},"↑":{"ha":1182,"x_min":0,"x_max":0,"o":"m 896 624 l 896 703 b 606 964 783 746 656 869 l 571 964 b 279 703 521 869 390 747 l 279 624 b 554 849 392 669 500 769 l 554 25 l 621 25 l 621 847 b 896 624 674 769 779 669 z "},"↓":{"ha":1182,"x_min":0,"x_max":0,"o":"m 604 22 b 896 283 654 115 785 239 l 896 363 b 621 136 782 315 675 215 l 621 961 l 554 961 l 554 136 b 279 361 501 215 396 317 l 279 283 b 569 22 392 240 519 117 z "},"↖":{"ha":1182,"x_min":0,"x_max":0,"o":"m 961 175 l 333 803 b 685 839 425 785 572 788 l 629 894 b 240 874 521 846 343 842 l 215 849 b 194 458 247 747 242 569 l 250 403 b 285 756 297 515 303 661 l 914 128 z "},"↗":{"ha":1182,"x_min":0,"x_max":0,"o":"m 914 404 l 969 460 b 949 849 921 568 918 746 l 925 874 b 535 894 824 842 644 847 l 478 839 b 829 801 590 793 736 785 l 203 174 l 251 128 l 879 756 b 914 404 860 663 864 517 z "},"↘":{"ha":1182,"x_min":0,"x_max":0,"o":"m 925 140 l 949 164 b 971 554 918 265 924 444 l 914 611 b 878 258 868 497 861 351 l 250 886 l 203 838 l 832 210 b 479 174 738 228 593 224 l 535 118 b 925 140 644 168 822 171 z "},"↙":{"ha":1182,"x_min":0,"x_max":0,"o":"m 631 118 l 686 174 b 333 210 572 219 428 226 l 961 838 l 914 885 l 285 256 b 250 610 304 349 300 494 l 194 554 b 215 164 243 444 247 267 l 240 139 b 631 118 342 171 519 165 z "},"○":{"ha":1253,"x_min":0,"x_max":0,"o":"m 628 -14 b 1131 489 919 -14 1131 197 b 628 993 1131 781 921 993 b 125 489 338 993 125 782 b 628 -14 125 196 335 -14 z m 628 71 b 214 489 388 71 214 251 b 628 908 214 729 393 908 b 1042 489 867 908 1042 725 b 628 71 1042 251 864 71 z "},"●":{"ha":1253,"x_min":0,"x_max":0,"o":"m 628 -14 b 1131 489 919 -14 1131 197 b 628 993 1131 781 921 993 b 125 489 338 993 125 782 b 628 -14 125 196 335 -14 z "},"■":{"ha":1249,"x_min":0,"x_max":0,"o":"m 138 0 l 1115 0 l 1115 983 l 138 983 z "},"□":{"ha":1249,"x_min":0,"x_max":0,"o":"m 138 0 l 1115 0 l 1115 983 l 138 983 z m 225 83 l 225 901 l 1026 901 l 1026 83 z "},"⊠":{"ha":1249,"x_min":0,"x_max":0,"o":"m 138 0 l 1115 0 l 1115 983 l 138 983 z m 225 83 l 225 901 l 1026 901 l 1026 83 z m 854 210 l 908 263 l 681 496 l 904 726 l 850 779 l 628 550 l 404 781 l 350 728 l 576 496 l 346 258 l 399 204 l 629 442 z "},"▪":{"ha":1060,"x_min":0,"x_max":0,"o":"m 140 0 l 922 0 l 922 782 l 140 782 z "},"▫":{"ha":1060,"x_min":0,"x_max":0,"o":"m 140 0 l 922 0 l 922 782 l 140 782 z m 228 83 l 228 699 l 835 699 l 835 83 z "},"▲":{"ha":1211,"x_min":0,"x_max":0,"o":"m 1185 0 l 608 1001 l 29 0 z "},"▼":{"ha":1211,"x_min":0,"x_max":0,"o":"m 608 -17 l 1185 985 l 29 985 z "},"◄":{"ha":1211,"x_min":0,"x_max":0,"o":"m 1078 1079 l 76 501 l 1078 -76 z "},"►":{"ha":1211,"x_min":0,"x_max":0,"o":"m 138 -76 l 1139 501 l 138 1079 z "},"◤":{"ha":1211,"x_min":0,"x_max":0,"o":"m 1158 -72 l 860 1043 l 42 226 z "},"◥":{"ha":1211,"x_min":0,"x_max":0,"o":"m 1178 219 l 363 1039 l 63 -78 z "},"◢":{"ha":1211,"x_min":0,"x_max":0,"o":"m 1179 719 l 64 1018 l 363 -99 z "},"◣":{"ha":1211,"x_min":0,"x_max":0,"o":"m 856 -99 l 1154 1018 l 38 719 z "},"◎":{"ha":1244,"x_min":0,"x_max":0,"o":"m 622 -14 b 1124 486 917 -14 1124 199 b 622 989 1124 779 913 989 b 125 486 332 989 125 775 b 622 -14 125 194 332 -14 z m 622 164 b 304 486 443 164 304 303 b 622 814 304 672 443 814 b 944 486 808 814 944 668 b 622 164 944 303 808 164 z m 624 254 b 858 485 758 254 858 354 b 624 718 858 618 757 718 b 392 485 493 718 392 618 b 624 254 392 351 489 254 z m 624 407 b 551 485 582 407 551 442 b 624 565 551 532 582 565 b 699 485 668 565 699 532 b 624 407 699 442 668 407 z "},"★":{"ha":1243,"x_min":0,"x_max":0,"o":"m 363 117 l 619 304 l 878 117 l 778 418 l 1036 603 l 718 604 l 621 906 l 521 604 l 206 606 l 463 419 z "},"☼":{"ha":1282,"x_min":0,"x_max":0,"o":"m 625 783 l 651 783 l 675 979 l 601 979 z m 774 753 l 794 739 l 914 897 l 850 935 z m 483 739 l 503 753 l 428 935 l 363 897 z m 885 650 l 899 628 l 1081 706 l 1040 768 z m 379 628 l 393 649 l 233 768 l 196 704 z m 399 490 b 638 251 399 360 507 251 b 879 490 769 251 879 360 b 638 732 879 622 769 732 b 399 490 507 732 399 622 z m 929 506 l 929 479 l 1125 456 l 1125 529 z m 347 479 l 347 506 l 151 529 l 151 456 z m 393 336 l 379 357 l 196 281 l 236 217 z m 899 357 l 885 338 l 1043 217 l 1081 282 z m 503 233 l 483 247 l 363 88 l 428 50 z m 794 247 l 774 233 l 850 50 l 914 88 z m 651 201 l 625 201 l 601 6 l 675 6 z "},"☾":{"ha":1088,"x_min":0,"x_max":0,"o":"m 739 835 b 838 818 772 835 806 826 b 592 897 767 868 681 897 b 183 488 367 897 183 714 b 592 79 183 264 367 79 b 838 158 681 79 767 108 b 739 142 806 149 772 142 b 410 488 557 142 410 299 b 739 835 410 679 557 835 z "},"♻":{"ha":1146,"x_min":0,"x_max":0,"o":"m 485 938 b 592 872 485 938 556 933 l 675 726 l 629 699 l 829 661 l 901 857 l 851 828 l 818 885 b 711 939 789 936 754 938 l 485 939 z m 246 728 l 422 626 l 557 861 b 365 903 533 906 435 943 b 325 867 346 893 331 876 z m 954 644 l 781 544 l 915 311 b 1047 457 964 311 1047 375 b 1036 507 1047 478 1042 497 z m 231 172 b 235 299 231 172 201 239 b 319 444 238 304 319 444 l 368 415 l 299 610 l 94 574 l 144 544 l 111 488 b 117 368 81 436 96 406 l 228 172 z m 1022 340 b 910 279 1022 340 979 279 l 740 279 l 740 338 l 610 178 l 740 19 l 740 76 l 808 76 b 910 142 869 76 888 106 l 1024 339 z m 535 76 l 535 279 l 264 279 b 325 92 238 236 254 133 b 378 76 343 81 364 76 z "},"♼":{"ha":1146,"x_min":0,"x_max":0,"o":"m 1042 488 b 576 957 1042 749 833 957 b 107 488 317 957 107 749 b 576 24 107 231 317 24 b 1042 488 833 24 1042 231 z m 497 844 l 672 844 b 756 801 707 844 732 842 l 782 758 l 821 779 l 765 628 l 610 657 l 646 679 l 581 792 b 497 843 554 838 497 843 z m 381 786 b 410 815 383 796 396 807 b 558 783 464 847 540 818 l 456 601 l 318 681 z m 928 510 b 939 471 933 500 939 488 b 838 354 939 407 876 354 l 731 536 l 868 615 z m 304 250 l 217 400 b 213 493 203 431 189 453 l 239 538 l 201 561 l 358 588 l 413 438 l 375 461 l 308 347 b 306 250 282 301 306 250 z m 919 376 l 832 226 b 753 176 815 199 801 176 l 701 176 l 701 131 l 599 254 l 701 375 l 701 333 l 832 333 b 918 378 888 333 918 378 z m 415 176 b 375 188 406 176 389 179 b 326 333 319 219 306 299 l 538 333 l 538 176 z "},"♽":{"ha":1146,"x_min":0,"x_max":0,"o":"m 1042 488 b 576 957 1042 749 833 957 b 107 488 317 957 107 749 b 576 24 107 231 317 24 b 1042 488 833 24 1042 231 z m 1018 488 b 576 46 1018 243 821 46 b 131 488 329 46 131 243 b 576 933 131 736 329 933 b 1018 488 821 933 1018 736 z m 497 843 b 581 792 497 843 554 838 l 646 679 l 610 657 l 765 628 l 821 779 l 782 758 l 756 801 b 672 844 732 842 707 844 l 497 844 z m 318 681 l 456 601 l 558 783 b 410 815 540 818 464 847 b 381 786 396 807 383 796 z m 868 615 l 731 536 l 838 354 b 939 471 876 354 939 407 b 928 510 939 488 933 500 z m 306 250 b 308 347 306 250 282 301 l 375 461 l 413 438 l 358 588 l 201 561 l 239 538 l 213 493 b 217 400 189 453 203 431 l 304 250 z m 918 378 b 832 333 918 378 888 333 l 701 333 l 701 375 l 599 254 l 701 131 l 701 176 l 753 176 b 832 226 801 176 815 199 l 919 376 z m 538 176 l 538 333 l 326 333 b 375 188 306 299 319 219 b 415 176 389 179 406 176 z "},"⌂":{"ha":1178,"x_min":0,"x_max":0,"o":"m 140 0 l 1040 0 l 1040 560 l 590 992 l 140 560 z "},"♠":{"ha":1238,"x_min":0,"x_max":0,"o":"m 665 392 b 910 210 701 299 778 210 b 1124 422 1028 210 1124 306 b 815 858 1124 576 1039 681 l 626 1008 l 625 1008 l 436 858 b 117 422 213 681 117 576 b 349 208 117 306 224 208 b 578 392 472 208 544 299 b 450 0 578 229 488 69 l 800 0 b 665 392 765 69 665 229 z "},"♣":{"ha":1246,"x_min":0,"x_max":0,"o":"m 896 176 b 1133 418 1028 176 1133 286 b 897 657 1133 550 1029 657 b 835 646 875 657 853 653 b 860 765 850 683 860 725 b 622 1001 860 897 753 1001 b 383 765 490 1001 383 897 b 411 649 383 725 394 685 b 354 657 393 653 375 657 b 114 418 221 657 114 550 b 354 176 114 286 221 176 b 581 340 458 176 543 246 b 456 0 564 197 489 61 l 806 0 b 674 339 775 61 692 196 b 896 176 710 244 792 176 z "},"♥":{"ha":1246,"x_min":0,"x_max":0,"o":"m 621 -24 l 811 189 b 1125 747 1038 439 1125 589 b 869 1001 1125 886 1008 1001 b 621 785 731 1001 636 908 b 371 1001 606 908 507 1001 b 122 747 231 1001 122 886 b 431 189 122 589 206 439 z "},"♦":{"ha":1246,"x_min":0,"x_max":0,"o":"m 625 -14 l 1065 501 l 625 1013 l 182 501 z "},"+":{"ha":633,"x_min":0,"x_max":0,"o":"m 539 457 l 549 517 l 369 517 l 400 692 l 339 692 l 308 517 l 132 517 l 121 457 l 297 457 l 267 282 l 328 282 l 358 457 z "},"−":{"ha":633,"x_min":0,"x_max":0,"o":"m 551 456 l 561 518 l 114 518 l 104 456 z "},"±":{"ha":633,"x_min":0,"x_max":0,"o":"m 549 578 l 560 639 l 389 639 l 418 801 l 357 801 l 328 639 l 163 639 l 151 578 l 318 578 l 289 414 l 350 414 l 379 578 z m 496 267 l 506 328 l 108 328 l 97 267 z "},"×":{"ha":631,"x_min":0,"x_max":0,"o":"m 458 294 l 506 335 l 371 504 l 556 663 l 522 706 l 338 546 l 217 699 l 172 660 l 293 507 l 94 335 l 128 293 l 325 464 z "},"÷":{"ha":633,"x_min":0,"x_max":0,"o":"m 353 619 b 408 668 383 619 403 633 b 372 719 415 704 404 719 b 317 669 342 719 324 704 b 353 619 311 632 322 619 z m 107 456 l 549 456 l 558 517 l 118 517 z m 289 251 b 343 300 318 251 336 264 b 306 351 349 336 338 351 b 250 301 275 351 256 336 b 289 251 243 264 257 251 z "},"=":{"ha":639,"x_min":0,"x_max":0,"o":"m 568 594 l 578 656 l 153 656 l 142 594 z m 521 336 l 532 396 l 107 396 l 96 336 z "},"≠":{"ha":639,"x_min":0,"x_max":0,"o":"m 522 336 l 532 396 l 311 396 l 401 596 l 568 596 l 578 656 l 429 656 l 483 775 l 439 775 l 385 656 l 153 656 l 142 596 l 357 596 l 267 396 l 107 396 l 96 336 l 239 336 l 179 204 l 224 204 l 283 336 z "},"≈":{"ha":639,"x_min":0,"x_max":0,"o":"m 213 433 b 114 389 172 433 131 411 l 101 318 b 201 372 122 347 164 372 b 421 321 267 372 339 321 b 518 365 467 321 501 343 l 531 433 b 432 382 503 400 471 382 b 213 433 368 382 292 433 z m 256 663 b 154 617 213 663 171 639 l 142 547 b 243 601 165 581 208 601 b 461 549 307 601 376 549 b 558 593 500 549 542 572 l 571 665 b 472 611 549 631 513 611 b 256 663 407 611 332 663 z "},"<":{"ha":639,"x_min":0,"x_max":0,"o":"m 496 296 l 507 364 l 204 503 l 556 639 l 568 710 l 135 533 l 125 476 z "},">":{"ha":639,"x_min":0,"x_max":0,"o":"m 113 296 l 546 475 l 556 533 l 186 710 l 174 644 l 481 507 l 125 367 z "},"≤":{"ha":639,"x_min":0,"x_max":0,"o":"m 515 388 l 526 454 l 221 579 l 571 701 l 583 772 l 151 611 l 142 554 z m 489 235 l 499 296 l 96 296 l 86 235 z "},"≥":{"ha":639,"x_min":0,"x_max":0,"o":"m 122 388 l 554 551 l 564 608 l 190 772 l 179 706 l 483 582 l 135 460 z m 96 235 l 497 235 l 508 296 l 106 296 z "},"¬":{"ha":700,"x_min":0,"x_max":0,"o":"m 592 296 l 649 621 l 106 621 l 93 558 l 572 558 l 526 296 z "},"≡":{"ha":639,"x_min":0,"x_max":0,"o":"m 578 658 l 589 718 l 164 718 l 153 658 z m 544 467 l 556 526 l 131 526 l 118 467 z m 510 275 l 522 335 l 96 335 l 85 275 z "},"′":{"ha":224,"x_min":0,"x_max":0,"o":"m 151 708 l 281 983 l 213 983 l 104 708 z "},"″":{"ha":357,"x_min":0,"x_max":0,"o":"m 282 708 l 418 983 l 350 983 l 236 708 z m 151 708 l 279 983 l 211 983 l 104 708 z "},"℅":{"ha":810,"x_min":0,"x_max":0,"o":"m 17 0 l 89 0 l 828 983 l 758 983 z m 261 586 b 419 724 356 586 404 636 l 422 742 l 367 742 l 365 732 b 264 638 354 668 324 638 b 183 756 193 638 169 683 l 200 851 b 304 943 213 917 246 943 b 382 832 363 943 396 904 l 381 824 l 436 824 l 438 829 b 303 994 456 926 407 994 b 149 857 217 994 164 943 l 129 758 b 261 586 113 658 147 586 z m 538 -14 b 696 124 632 -14 681 36 l 715 231 b 581 396 733 328 685 396 b 425 258 494 396 440 344 l 406 158 b 538 -14 389 58 424 -14 z m 540 38 b 460 154 471 38 446 83 l 478 253 b 582 344 490 318 524 344 b 663 233 642 344 676 306 l 644 132 b 540 38 633 67 601 38 z "},"‗":{"ha":585,"x_min":0,"x_max":0,"o":"m 476 56 l -8 56 l -18 0 l 467 0 z m 450 -94 l -35 -94 l -44 -150 l 440 -150 z "},"‼":{"ha":592,"x_min":0,"x_max":0,"o":"m 361 206 b 385 207 364 207 378 207 b 408 206 392 207 404 207 b 525 806 417 236 486 583 l 557 985 l 488 985 l 456 804 b 361 206 417 583 364 236 z m 119 206 b 143 207 122 207 136 207 b 167 206 150 207 163 207 b 283 806 175 236 244 583 l 315 985 l 246 985 l 214 804 b 119 206 175 583 122 236 z m 349 -11 b 415 51 386 -11 407 6 b 369 122 425 100 408 122 b 301 58 331 122 310 103 b 349 -11 293 10 311 -11 z m 107 -11 b 174 51 144 -11 165 6 b 129 122 183 100 167 122 b 61 58 89 122 68 103 b 107 -11 53 10 69 -11 z "},"∞":{"ha":968,"x_min":0,"x_max":0,"o":"m 243 328 b 499 457 344 328 431 399 b 719 328 551 403 618 328 b 910 488 814 328 892 388 b 758 667 928 586 864 667 b 507 536 667 667 575 594 b 286 667 454 592 393 667 b 97 508 196 667 115 607 b 243 328 79 407 138 328 z m 250 388 b 160 504 186 388 149 440 b 286 608 169 568 224 608 b 464 499 363 608 419 547 b 250 388 403 447 332 388 z m 719 388 b 544 494 644 388 589 449 b 754 607 606 549 681 607 b 849 494 819 607 858 557 b 719 388 838 435 785 388 z "},"∂":{"ha":658,"x_min":0,"x_max":0,"o":"m 281 -12 b 551 232 439 -12 524 75 l 604 531 b 401 1068 643 756 578 931 l 303 1068 b 557 660 476 940 554 817 b 365 794 538 744 474 794 b 103 553 224 794 131 707 l 57 293 b 281 -12 26 115 86 -12 z m 285 49 b 122 281 142 49 99 146 l 169 549 b 369 735 192 671 261 735 b 533 513 494 735 558 654 l 486 242 b 285 49 465 119 401 49 z "},"π":{"ha":768,"x_min":0,"x_max":0,"o":"m 469 190 b 611 0 442 43 475 0 l 649 0 l 660 61 l 628 61 b 538 194 535 61 518 86 l 665 922 l 819 922 l 829 983 l 146 983 l 136 922 l 282 922 l 119 0 l 186 0 l 349 922 l 599 922 z "},"μ":{"ha":654,"x_min":0,"x_max":0,"o":"m 257 -12 b 450 135 357 -12 415 43 l 435 0 l 488 0 l 626 789 l 560 789 l 471 283 b 268 49 444 135 378 49 b 139 246 160 49 117 121 l 235 789 l 168 789 l -19 -274 l 44 -274 l 114 121 b 257 -12 118 33 160 -12 z "},"∫":{"ha":372,"x_min":0,"x_max":0,"o":"m -118 -214 l -75 -214 b 140 -4 65 -214 111 -172 l 290 849 b 439 1008 314 983 342 1008 l 472 1008 l 483 1067 l 443 1067 b 226 853 310 1067 256 1021 l 76 3 b -69 -153 53 -128 26 -153 l -108 -153 z "},"√":{"ha":804,"x_min":0,"x_max":0,"o":"m 318 0 l 867 985 l 797 985 l 307 103 l 240 642 l 92 642 l 81 579 l 181 579 l 256 0 z "},"∆":{"ha":803,"x_min":0,"x_max":0,"o":"m -50 0 l 718 0 l 510 1001 z m 636 61 l 57 61 l 483 832 z "},"Ω":{"ha":854,"x_min":0,"x_max":0,"o":"m 296 54 b 192 563 228 192 153 343 b 508 933 239 828 358 933 b 719 556 665 933 767 818 b 438 54 681 335 560 188 l 460 0 l 751 0 l 763 63 l 526 63 b 788 550 635 178 749 339 b 515 996 843 851 701 996 b 125 565 318 996 176 858 b 219 63 85 342 151 182 l -24 63 l -33 0 l 254 0 z "},"∏":{"ha":768,"x_min":0,"x_max":0,"o":"m 440 0 l 507 0 l 669 922 l 819 922 l 831 983 l 146 983 l 136 922 l 283 922 l 121 0 l 188 0 l 349 922 l 603 922 z "},"∑":{"ha":538,"x_min":0,"x_max":0,"o":"m 431 63 l 61 63 l 381 503 l 215 922 l 569 922 l 581 983 l 160 983 l 149 918 l 308 510 l -12 68 l -24 0 l 419 0 z "},"◊":{"ha":821,"x_min":0,"x_max":0,"o":"m 361 122 l 792 488 l 488 856 l 58 490 z m 374 211 l 147 486 l 475 768 l 703 490 z "},"°":{"ha":442,"x_min":0,"x_max":0,"o":"m 285 683 b 456 826 376 683 440 736 b 315 996 472 918 415 996 b 142 854 228 996 160 942 b 285 683 126 761 182 683 z m 288 738 b 199 847 222 738 189 788 b 311 943 210 910 251 943 b 400 833 378 943 410 892 b 288 738 388 769 351 738 z "}}}
